<svg id="Capa_1" data-name="Capa 1" xmlns="http://www.w3.org/2000/svg" viewBox="0 0 551.61 140.26"><title>logo_footer</title><path d="M137.46,262.35c2.13,2.32.88,4.08-1.05,5.82-0.87.78-.69,1.9-0.35,2.93a12.8,12.8,0,0,1,.65,6.95,10.29,10.29,0,0,1-10.25,7.59,52,52,0,0,0-11.44.93c-3.81.71-6.4,3.7-6.06,7a0.93,0.93,0,0,1-1.13,1.13c-2.76,0-5.52,0-8.28,0a2,2,0,0,1-1.75-.85,41.44,41.44,0,0,1-4.35-6.46c-1.65-3.33-.86-6.58,1.13-9.51s4.71-3.6,7.91-2.93,6.18,1.61,9.42,1.58a8.1,8.1,0,0,0,3.78-1,4.16,4.16,0,0,0,2.39-3.73,10,10,0,0,1,.3-1.89,3,3,0,0,1,3-2.39c2.17-.07,2.93-1,2.52-3.16a1.32,1.32,0,0,1,1.11-1.82c1.75-.48,2.19-1.46,1.56-3.19a13,13,0,0,1-.82-3.61c-0.11-1.6.41-2.61,1.93-3,3-.82,4.39-3,1.92-6.41a31,31,0,0,1-2.76-4.76,6.53,6.53,0,0,1-.38-5.23A46.59,46.59,0,0,1,128,232c2.69-5.75,2.77-11.6,1.15-17.65-2-7.4-5-14.25-10.24-19.93A40.89,40.89,0,0,0,97.22,182.2c-13.93-3.09-26.76,0-38.38,7.93-5.79,4-9.4,9.85-12,16.29-4.08,10.22-3.71,20.54-.42,30.86a79.61,79.61,0,0,0,10.22,20.23c2.82,4.19,4.51,8.84,4.07,14a46.25,46.25,0,0,1-2.21,9.18c-1.23,4.13-2.73,8.17-4.28,12.19a3.59,3.59,0,0,1-4.74,1.63,0.92,0.92,0,0,1-.24-1.18c0.32-1.28.69-2.54,1.06-3.81a43.64,43.64,0,0,0,2.08-16.17,27.43,27.43,0,0,0-4-12.18,90.92,90.92,0,0,1-11.06-25C34.51,225,34.49,214,39,203.17c5.64-13.47,15.75-22.26,29.3-27.23,15.07-5.53,29.5-3.54,43.41,4,8.92,4.82,16,11.47,20.58,20.61,4,7.94,5.6,16.18,3.13,24.93-0.4,1.44.25,2.57,1,3.67l8.35,12c0.57,0.82,1.13,1.65,1.69,2.47a5.55,5.55,0,0,1,1,3.27,2.36,2.36,0,0,1-1.11,2.11,34.4,34.4,0,0,1-5.11,2.85c-2.47,1.13-2.85,2.12-1.3,4.42a4.27,4.27,0,0,1-1.17,5.24A2.71,2.71,0,0,0,137.46,262.35Z" transform="translate(-35.39 -172.79)" fill="#2b73b5"/><path d="M400.08,197.33a3,3,0,0,1,1,2.21q1.69,14.46,3.38,28.92c0.57,4.92,1,9.86,1.74,14.76,0.49,3.38,2.09,5.63,5.79,5.67a1.61,1.61,0,0,1,1.58.84c-5.64-.14-11.25-0.74-16.89-0.17l-0.07-.37c0.44-.19.86-0.41,1.31-0.57a3.21,3.21,0,0,0,2.37-3.57q-1.65-16.51-3.36-33a2.51,2.51,0,0,0-.23-0.5c-1,2-2,3.89-3,5.77l-15.88,30.86c-0.07.14-.14,0.29-0.23,0.42-0.86,1.38-1.66,1.4-2.44,0-1.32-2.41-2.58-4.86-3.87-7.3L356.38,213c-0.13-.24-0.27-0.48-0.57-1-0.19,1.89-.35,3.48-0.5,5.06-0.81,8.79-1.66,17.58-2.37,26.38-0.21,2.56.31,4.77,3.74,5.47a1.1,1.1,0,0,1,.82.46,1.34,1.34,0,0,1-1.36.31,52.23,52.23,0,0,0-11.24,0,3.6,3.6,0,0,1-1.63-.17,0.9,0.9,0,0,1,.7-0.44c3-.68,4.16-3,4.5-5.67,1-7.61,1.8-15.23,2.68-22.85q1.24-10.71,2.47-21.43c0.06-.49,0-1.2.64-1.29s0.92,0.64,1.19,1.14q9.84,18.49,19.67,37l2.75,5.16Z" transform="translate(-35.39 -172.79)" fill="#2b73b5"/><path d="M497.31,242v-1.53q0-17.21,0-34.43c0-3.76-1-5-4.78-5.82a1.72,1.72,0,0,1-1.58-1.15,87.07,87.07,0,0,0,15.51-.08,1.22,1.22,0,0,1-1.23,1.15A3.93,3.93,0,0,0,501.6,204a14,14,0,0,0-.08,1.67q0,21,0,42c0,0.92.39,2.24-.59,2.61s-1.75-.75-2.41-1.45q-8.36-8.92-16.68-17.88l-22.56-24.2a3.18,3.18,0,0,0-.36-0.29,0.89,0.89,0,0,0-.19.9q0,17.57,0,35.15a8.8,8.8,0,0,0,.59,3.4,4.49,4.49,0,0,0,4.11,3,2.51,2.51,0,0,1,1.89.73,123.77,123.77,0,0,0-16.29.05,1.48,1.48,0,0,1,1.12-.8,5.1,5.1,0,0,0,4.2-5c0.05-.6.05-1.2,0.05-1.8q0-20.75,0-41.51a5.22,5.22,0,0,1,.61-2.9Z" transform="translate(-35.39 -172.79)" fill="#2b73b5"/><path d="M584.38,219.69c-1.39,3.25-1,6.65-1.31,10.25a2.9,2.9,0,0,1-1-1.81c-0.62-2.64-1.77-3.79-4.39-3.9-2.83-.13-5.68-0.08-8.52,0-1.2,0-1.58.56-1.58,2q0,7.5,0,15,0,1,0,1.92c0,2.55.91,3.7,3.43,4a26.53,26.53,0,0,0,9.3,0c2.62-.61,4.84-1.93,5.53-4.86a1.93,1.93,0,0,1,.63-1.31,1.68,1.68,0,0,1,.53,1.47,26.22,26.22,0,0,1-.75,5.56,2,2,0,0,1-1.66,1.54,12.46,12.46,0,0,1-2.26.22q-12.06,0-24.11,0a2.12,2.12,0,0,1-1.59-.31,1,1,0,0,1,1-.59c2.25-.51,3-1.45,3-3.74q0-10,.08-20,0-10.62.07-21.23c0-2.09-.51-2.72-2.53-3.32a8.11,8.11,0,0,1-3-1,1.35,1.35,0,0,1,1.42-.37q12.54,0,25.07,0a9.31,9.31,0,0,0,2.79-.5c0.8-.24,1.28.09,0.95,0.9a19.85,19.85,0,0,0-1.11,6.58,1,1,0,0,1-.44.93,1.4,1.4,0,0,1-.83-1.22c-0.49-2.6-2.73-3.79-5.47-4s-5.44-.07-8.16,0c-1.7,0-2.25.64-2.25,2.37q0,7.5,0,15c0,2,.44,2.5,2.44,2.49,3.24,0,6.48-.05,9.71,0a4.77,4.77,0,0,0,3.72-1.6A1.18,1.18,0,0,1,584.38,219.69Z" transform="translate(-35.39 -172.79)" fill="#2b73b5"/><path d="M445.07,240.89c0.68,1.8.23,3.48,0.06,5.15a5.36,5.36,0,0,1-.16.7c-0.65,2.64-1.13,3-3.93,3.05q-12.29,0-24.59,0a2,2,0,0,1-1.38-.3,1.19,1.19,0,0,1,1.08-.62c2.09-.46,2.9-1.43,2.92-3.6,0-3.84,0-7.68,0-11.51q0-10.31.08-20.63c0-3,.07-5.91.08-8.87,0-2.56-.48-3.18-3-3.82a7.17,7.17,0,0,1-2.56-.89,1.5,1.5,0,0,1,1.52-.39c8.36,0,16.71,0,25.07,0a10.83,10.83,0,0,0,2.79-.52c0.79-.2,1.18.19,0.89,0.87a21.59,21.59,0,0,0-1.14,6.81,0.89,0.89,0,0,1-.37.73,1.19,1.19,0,0,1-.85-1.16c-0.5-2.69-3-3.89-5.56-4s-5.36-.06-8,0c-1.74,0-2.34.66-2.35,2.44q0,7.38,0,14.75c0,2.24.45,2.68,2.67,2.68,3.2,0,6.39-.06,9.59-0.05a4.72,4.72,0,0,0,3.62-1.54,1.06,1.06,0,0,1,1.2-.41c-1.18,3.22-1.18,6.6-1.31,10a2.32,2.32,0,0,1-.94-1.71c-0.58-2.46-1.75-3.63-4.27-3.76-2.87-.14-5.76-0.06-8.63-0.05a1.43,1.43,0,0,0-1.56,1.58c0,6.12,0,12.23,0,18.35a2.86,2.86,0,0,0,2.62,2.85,27.74,27.74,0,0,0,8.69.41,10.45,10.45,0,0,0,3.43-.93,6,6,0,0,0,3.53-4.26A1.79,1.79,0,0,1,445.07,240.89Z" transform="translate(-35.39 -172.79)" fill="#2b73b5"/><path d="M527.55,201.81c-4.06.18-8-.27-11.88,0.25-3.1.42-5.89,1.48-7.63,4.35a1.2,1.2,0,0,1-.68.64,0.5,0.5,0,0,1-.2-0.62,61,61,0,0,1,1.51-7.26,1,1,0,0,1,1.28-.77c1.89,0.73,3.87.46,5.79,0.49,11.07,0.15,22.15.2,33.22,0.27a8.4,8.4,0,0,0,2.71-.38c0.64-.21,1.28-0.1,1.3.74a65.48,65.48,0,0,1-.13,7.78,0.51,0.51,0,0,1-.15.19,1.45,1.45,0,0,1-1-1.05,7.29,7.29,0,0,0-6.68-4.5c-3.71-.13-7.43,0-11.16,0a2.54,2.54,0,0,0-.14,1.4c0,13,0,25.92,0,38.88,0,3.64,1.61,6.45,5.51,6.84a8.72,8.72,0,0,1,1.11.28,3.67,3.67,0,0,1-1.91.47c-5,0-10-.24-15,0a8.56,8.56,0,0,1-1.29-.15,5,5,0,0,1,1.71-.69c2-.64,3.4-1.75,3.61-4,0.05-.56.13-1.11,0.13-1.67q0-20.28,0-40.56v-0.87Z" transform="translate(-35.39 -172.79)" fill="#2b73b5"/><path d="M419.57,290v-8.85a9,9,0,0,1,2.75,0v24.3a5.86,5.86,0,0,1-2.14,0c-0.31-.51,0-1.1-0.38-1.52a1.1,1.1,0,0,0-.61.57,3.85,3.85,0,0,1-6.19-.37c-1.8-2.57-1.91-5.54-1.74-8.51a11.22,11.22,0,0,1,1.27-4.82,4.58,4.58,0,0,1,2.57-2.39A3.66,3.66,0,0,1,419.57,290Zm0,7c0-.88,0-1.76,0-2.64a4.81,4.81,0,0,0-.74-2.62,2,2,0,0,0-3.74.1,6.76,6.76,0,0,0-.58,1.44,14.52,14.52,0,0,0-.41,5.35,8.62,8.62,0,0,0,.93,3.57c1,1.73,2.75,1.76,3.78.05a4.8,4.8,0,0,0,.76-2.61C419.53,298.79,419.55,297.91,419.55,297Z" transform="translate(-35.39 -172.79)" fill="#2b73b5"/><path d="M531.77,305.5h-2.26c-0.4-.51-0.14-1.12-0.36-1.73a11.7,11.7,0,0,1-1.08,1.2,3.94,3.94,0,0,1-6-1.22,9.54,9.54,0,0,1-1.31-4.07,16.22,16.22,0,0,1,.84-8.24c1-2.31,2.58-3.35,4.68-3.21a4.13,4.13,0,0,1,2.59,1.59v-8.68h2.77C531.76,289.2,531.45,297.28,531.77,305.5Zm-3-8.41c0-1,0-2.08,0-3.12a3.78,3.78,0,0,0-1.11-2.7,1.88,1.88,0,0,0-2.93.08,4.59,4.59,0,0,0-1,2.14,17.89,17.89,0,0,0-.14,6.42,6.16,6.16,0,0,0,.89,2.58,2,2,0,0,0,3.46,0,4.53,4.53,0,0,0,.85-2.58C528.81,299,528.81,298,528.81,297.09Z" transform="translate(-35.39 -172.79)" fill="#2b73b5"/><path d="M302.19,288.51a8.36,8.36,0,0,1,2.2,0c0.36,0.56.07,1.16,0.34,1.79,0.95-1.15,1.95-2.11,3.55-2.11a4.08,4.08,0,0,1,4,2.9,15.74,15.74,0,0,1-.07,11.8,4.38,4.38,0,0,1-5.06,2.88A4.62,4.62,0,0,1,305,304.3v5.87c0,2.54,0,2.54-2.82,2.11V288.51Zm2.86,8.41c0.05,1.58-.28,3.2.35,4.74,0.41,1,1,1.9,2.22,1.87a2.39,2.39,0,0,0,2.22-1.89,14.31,14.31,0,0,0,0-9,2.37,2.37,0,0,0-2.28-2c-1.25,0-1.86,1-2.26,2a4.08,4.08,0,0,0-.26,1.28C305,294.93,305,295.92,305,296.92Z" transform="translate(-35.39 -172.79)" fill="#2b73b5"/><path d="M469.21,288.56a7.21,7.21,0,0,1,2.42,0,7.91,7.91,0,0,1,.31,1.78c0.9-1.09,1.82-2,3.32-2.1a4,4,0,0,1,3.58,1.77,9.29,9.29,0,0,1,1.54,4.6,16.27,16.27,0,0,1-.65,7.56,5.14,5.14,0,0,1-3.88,3.69c-1.51.3-2.58-.4-3.7-1.57v8a7.87,7.87,0,0,1-2.67.17C469.3,304.42,469.66,296.53,469.21,288.56Zm2.93,8.24c0,1,0,1.77,0,2.57a6.52,6.52,0,0,0,.55,2.56,2.26,2.26,0,0,0,2.15,1.62,2.33,2.33,0,0,0,2.11-1.7,15.43,15.43,0,0,0,.53-7.68,5.62,5.62,0,0,0-.88-2.46,2,2,0,0,0-3.56-.06,4.35,4.35,0,0,0-.72,1.62A20,20,0,0,0,472.14,296.8Z" transform="translate(-35.39 -172.79)" fill="#2b73b5"/><path d="M461,281.76l5.24,23.58a5.26,5.26,0,0,1-2.22.2c-0.63,0-.63-0.52-0.72-0.92-0.4-1.75-.8-3.5-1.13-5.26a0.91,0.91,0,0,0-1.12-.87c-1.08,0-2.16.05-3.23,0a1,1,0,0,0-1.3,1c-0.28,1.61-.73,3.19-1,4.8a1.27,1.27,0,0,1-1.67,1.27,11,11,0,0,0-1.39,0c1.08-4.78,2.13-9.4,3.18-14,0.67-2.91,1.4-5.81,2-8.73a1,1,0,0,1,1.32-1.06A19.47,19.47,0,0,0,461,281.76Zm-1.64,3.36-2.16,11h4.32Z" transform="translate(-35.39 -172.79)" fill="#2b73b5"/><path d="M552.82,278.63h-1.91l1-17.45c0.42,0,.7,0,1-0.08,1-.16,1.44.23,1.68,1.27,1,4.07,2,8.12,3,12.19l2.78-11.5c0.5-2.08.51-2.08,2.82-1.88l1,17.31a3.59,3.59,0,0,1-2,.11l-0.65-12.71-0.15,0-1.53,6c-0.51,2-1,3.94-1.52,5.91a0.87,0.87,0,0,1-.9.89,0.93,0.93,0,0,1-1-.94c-1-3.87-2-7.73-3.18-11.61Z" transform="translate(-35.39 -172.79)" fill="#2b73b5"/><path d="M210.81,305.46c0-3.63,0-7.14,0-10.65a7.89,7.89,0,0,0-.27-2.61,2.05,2.05,0,0,0-1.5-1.55,2.16,2.16,0,0,0-2.23.85,4.44,4.44,0,0,0-.88,2.92c0,3.24,0,6.47,0,9.71,0,0.43,0,.86,0,1.35h-2.86v-17h2.22a6.55,6.55,0,0,1,.27,1.74,4.92,4.92,0,0,1,4-2.07,3.67,3.67,0,0,1,3.53,2.4,5.22,5.22,0,0,1,.51,2c0,4.27,0,8.54,0,12.87A8.52,8.52,0,0,1,210.81,305.46Z" transform="translate(-35.39 -172.79)" fill="#2b73b5"/><path d="M516.92,305.49h-2.59a2.07,2.07,0,0,1-.19-1.33q0-4.85,0-9.71a6.79,6.79,0,0,0-.32-2.36,1.92,1.92,0,0,0-1.69-1.48,2.14,2.14,0,0,0-2.14,1,5.3,5.3,0,0,0-.74,3q0,4.73,0,9.47a2.8,2.8,0,0,1-.14,1.37,9,9,0,0,1-2.63,0c-0.16-5.66.14-11.27-.23-16.95h2.34c0.36,0.43.12,1,.36,1.65a4.8,4.8,0,0,1,3.91-2,3.64,3.64,0,0,1,3.42,2.19,5.46,5.46,0,0,1,.63,2.29C516.94,296.91,516.92,301.14,516.92,305.49Z" transform="translate(-35.39 -172.79)" fill="#2b73b5"/><path d="M340.69,305.44c-2.28.31-2.35,0.27-2.56-1.28a8.45,8.45,0,0,1-2.71,1.62,3.74,3.74,0,0,1-4.63-2.55,8.87,8.87,0,0,1-.5-2.82q0-5.63,0-11.27c0-.19,0-0.38.07-0.63h2.53a1.56,1.56,0,0,1,.21,1.26q0,5.09,0,10.19a7,7,0,0,0,.28,1.89,2,2,0,0,0,1.7,1.64,2.19,2.19,0,0,0,2.19-1.17,6,6,0,0,0,.62-3.13c0-3.51,0-7,0-10.56a6.29,6.29,0,0,1,2.5-.12C340.57,289.06,340.82,304.46,340.69,305.44Z" transform="translate(-35.39 -172.79)" fill="#2b73b5"/><path d="M400.21,288.51H403c-1.05,4.17-2.07,8.26-3.13,12.34a35.32,35.32,0,0,1-2.84,8,9.36,9.36,0,0,1-4.14,4.21l-1.12-2.27a9.43,9.43,0,0,0,3.83-4.68,3.59,3.59,0,0,0,.11-2.34c-1.28-4.65-2.54-9.31-3.81-14a2.39,2.39,0,0,1-.15-1.16,0.63,0.63,0,0,1,.21-0.13c2.48-.22,2.5-0.23,3.06,2.16,0.81,3.45,1.58,6.92,2.56,10.43Z" transform="translate(-35.39 -172.79)" fill="#2b73b5"/><path d="M246.78,297.05a11,11,0,0,1-1.64,6.63,4.74,4.74,0,0,1-8.1-.09c-1.65-2.6-1.71-5.52-1.45-8.46a9.4,9.4,0,0,1,1.57-4.72,4.76,4.76,0,0,1,8.19.19A11.8,11.8,0,0,1,246.78,297.05Zm-2.85,0a11.24,11.24,0,0,0-.71-4.92,2.3,2.3,0,0,0-2.08-1.71,2.19,2.19,0,0,0-2.06,1.72,15.1,15.1,0,0,0-.05,9.61,2.27,2.27,0,0,0,2.22,1.85c1.28,0,1.75-1,2.13-2A11.82,11.82,0,0,0,243.92,297.06Z" transform="translate(-35.39 -172.79)" fill="#2b73b5"/><path d="M372,297.11a11.4,11.4,0,0,1,1.17-5.92,4.93,4.93,0,0,1,4.67-3,4.62,4.62,0,0,1,4.38,3.17,14.42,14.42,0,0,1,0,11.2,4.93,4.93,0,0,1-4.71,3.32c-2.24,0-3.69-1.32-4.57-3.3A11.88,11.88,0,0,1,372,297.11Zm2.82,0.1a11.3,11.3,0,0,0,.61,4.46c0.38,1,.92,1.9,2.16,1.94a2.19,2.19,0,0,0,2.17-1.88,15.32,15.32,0,0,0,0-9.39,2.28,2.28,0,0,0-2.17-1.91c-1.23,0-1.78.95-2.16,1.95A12.65,12.65,0,0,0,374.86,297.21Z" transform="translate(-35.39 -172.79)" fill="#2b73b5"/><path d="M563.79,305.48a7.53,7.53,0,0,1-2.16,0c-0.37-.33-0.09-0.82-0.41-1.16a0.65,0.65,0,0,0-.3.08,3.85,3.85,0,0,1-4.64,1.15c-1.88-.83-2.49-2.5-2.54-4.4-0.1-3.55,2.19-5.93,6.08-6.4,0.31,0,.63-0.06,1-0.09,0.21-1.35.23-2.69-.86-3.64-1.42-1.23-2.93-.43-4.36.11-1.06-1.68-.95-2,0.87-2.59a7.64,7.64,0,0,1,3.79-.23c2.05,0.38,3.41,2.27,3.47,4.85,0.06,2.91,0,5.83,0,8.74C563.79,303.06,563.79,304.21,563.79,305.48Zm-2.72-8.55c-3.11-.43-5.34,1.72-4.35,5.24a1.94,1.94,0,0,0,3.23,1,3.17,3.17,0,0,0,.94-1.64A17.2,17.2,0,0,0,561.07,296.94Z" transform="translate(-35.39 -172.79)" fill="#2b73b5"/><path d="M294.87,294.66c0.64-3.73-1.23-5-5.17-3.55-1.09-1.5-1-1.91.73-2.51a7.64,7.64,0,0,1,3.67-.32c2.22,0.31,3.67,2.22,3.74,5,0.08,3.16,0,6.32,0,9.48,0,0.87,0,1.74,0,2.69a7.12,7.12,0,0,1-2.31,0l-0.2-1.36a1.65,1.65,0,0,0-.37.21,3.81,3.81,0,0,1-4.5,1.3,4.24,4.24,0,0,1-2.67-3.94c-0.39-3.79,2-6.47,6.13-6.94Zm0.33,4.27c0-.59,0-1.07,0-1.55a0.59,0.59,0,0,0-.76-0.65,3.87,3.87,0,0,0-3.81,5c0.22,1,.63,1.83,1.8,1.91a2.21,2.21,0,0,0,2.34-1.65A7.25,7.25,0,0,0,295.2,298.93Z" transform="translate(-35.39 -172.79)" fill="#2b73b5"/><path d="M186.65,302.92a4.61,4.61,0,0,1,.52,1.77c0.17,0.55-.31.69-0.68,0.78-3.47.86-7.07,0.25-9-3.46-1.71-3.23-1.9-6.72-1.6-10.26a13.08,13.08,0,0,1,2.55-7.35,7.42,7.42,0,0,1,7.46-2.76,1.85,1.85,0,0,1,1.33.62l-0.56,2.07c-0.89,0-1.7-.47-2.57-0.36a4.87,4.87,0,0,0-3.81,2.59,9.81,9.81,0,0,0-1.29,3.83,21.67,21.67,0,0,0,.35,8.32C180.43,302.64,182.65,303.92,186.65,302.92Z" transform="translate(-35.39 -172.79)" fill="#2b73b5"/><path d="M584.18,303.1c0.74,2,.74,2-1.16,2.49-4,1-7-.76-8-4.8a13.7,13.7,0,0,1,.91-9.68,4.82,4.82,0,0,1,3.88-2.86c2.47-.27,4.15,1,5,3.67a12.73,12.73,0,0,1,.43,5.38h-7.8c-0.09,2.09.09,3.93,1.53,5.36S582.43,303.49,584.18,303.1Zm-1.58-8a6.1,6.1,0,0,0-.83-3.81,1.75,1.75,0,0,0-2.86-.34,6.07,6.07,0,0,0-1.41,4.15h5.1Z" transform="translate(-35.39 -172.79)" fill="#2b73b5"/><path d="M268.23,297.49c0.33,5.54,1.36,6.41,6.75,5.65a1.63,1.63,0,0,1,.21.39c0.11,0.46.19,0.92,0.28,1.37-3.56,1.78-8.13,1.18-9.47-3.56a14.31,14.31,0,0,1,.56-9.84,5.11,5.11,0,0,1,3.76-3.22,4.29,4.29,0,0,1,5,2.78,12.83,12.83,0,0,1,.88,5.51c0,0.76-.49.78-1.06,0.78q-2.94,0-5.88,0A1.56,1.56,0,0,0,268.23,297.49Zm5.13-2.36a5.46,5.46,0,0,0-.47-3.22,2.18,2.18,0,0,0-1.84-1.5,2,2,0,0,0-1.87,1.25,5.46,5.46,0,0,0-.79,3.47h5Z" transform="translate(-35.39 -172.79)" fill="#2b73b5"/><path d="M198.37,303.1a4.31,4.31,0,0,1,.57,1.73c-2.69,2-7.29,1.13-8.75-1.87a12.92,12.92,0,0,1,.24-12.18,4.58,4.58,0,0,1,4.89-2.53c2,0.24,3,1.63,3.67,3.36a13.4,13.4,0,0,1,.68,4.71,0.86,0.86,0,0,1-1.06,1c-2.23,0-4.46,0-6.66,0C190.8,301.7,193.57,304.17,198.37,303.1Zm-1.56-8a5.43,5.43,0,0,0-.78-3.74,1.78,1.78,0,0,0-3.14-.12,5.69,5.69,0,0,0-1.1,3.86h5Z" transform="translate(-35.39 -172.79)" fill="#2b73b5"/><path d="M319,297.53c-0.05,1.86.09,3.71,1.5,5.11s3.4,0.92,5.15.44c0.84,1.9.78,2-1.06,2.49-4.06,1-7-.75-8-4.84a13.75,13.75,0,0,1,.89-9.57,4.85,4.85,0,0,1,3.85-2.9c2.38-.29,4.06.87,5,3.4a13.63,13.63,0,0,1,.63,5c0,0.72-.43.73-0.95,0.73l-6.72,0A1.17,1.17,0,0,0,319,297.53Zm0-2.41h5.22a7.68,7.68,0,0,0-.77-3.52,1.85,1.85,0,0,0-3.37-.25A6.19,6.19,0,0,0,319,295.12Z" transform="translate(-35.39 -172.79)" fill="#2b73b5"/><path d="M435.51,303a5.1,5.1,0,0,0,.19.78c0.42,1,0,1.44-.94,1.72-4.42,1.23-7.49-.55-8.52-5a14.64,14.64,0,0,1,.46-8.25,6.74,6.74,0,0,1,1.74-2.69,4.39,4.39,0,0,1,7.16,1.14,11,11,0,0,1,.82,6.64h-7.57C428.39,301.29,430.16,305,435.51,303Zm-1.57-7.86a6.53,6.53,0,0,0-.84-3.65,1.82,1.82,0,0,0-3.3-.12,6.77,6.77,0,0,0-1.08,3.77h5.21Z" transform="translate(-35.39 -172.79)" fill="#2b73b5"/><path d="M501.68,303.08a3.81,3.81,0,0,1,.53,1.85c-3.55,1.79-8.1,1.07-9.36-3.36-1.07-3.75-1.1-7.5,1-11a4.62,4.62,0,0,1,4.88-2.33c1.9,0.26,2.9,1.59,3.5,3.24a10.93,10.93,0,0,1,.53,5.84H495c0,2,.14,3.9,1.54,5.32S499.92,303.55,501.68,303.08Zm-1.6-7.95a5.31,5.31,0,0,0-.85-3.9,1.75,1.75,0,0,0-2.87-.19,5.12,5.12,0,0,0-1.2,4.09h4.91Z" transform="translate(-35.39 -172.79)" fill="#2b73b5"/><path d="M261.12,305.48h-2.81V284.23h-4.19a6.05,6.05,0,0,1-.12-2.39h11.31a7.16,7.16,0,0,1,.1,2.33h-4.29v21.32Z" transform="translate(-35.39 -172.79)" fill="#2b73b5"/><path d="M538.57,269.95a13.84,13.84,0,0,1,1.15-6.19,4.36,4.36,0,0,1,4.07-2.85c1.93,0,3,1.21,3.78,2.85a10.13,10.13,0,0,1,.72,2.4,19.92,19.92,0,0,1-.25,8.55,6.49,6.49,0,0,1-1.54,2.94c-2,2.17-5.29,1.55-6.73-1.28A14.5,14.5,0,0,1,538.57,269.95Zm2.19,0.68a12.84,12.84,0,0,0,.87,4.77,2.18,2.18,0,0,0,2,1.6,2,2,0,0,0,2-1.65,17.45,17.45,0,0,0,.07-10.7,2.18,2.18,0,0,0-2.09-1.84c-1.21,0-1.71.95-2.06,1.9A16.29,16.29,0,0,0,540.76,270.63Z" transform="translate(-35.39 -172.79)" fill="#2b73b5"/><path d="M541.84,305.47a3.47,3.47,0,0,1,.34-2.53c1.94-3.72,3.85-7.45,5.76-11.18a0.87,0.87,0,0,0,.13-0.92h-5.54a7.41,7.41,0,0,1-.05-2.31h9a4,4,0,0,1-.35,2.68c-2,3.74-3.9,7.51-5.84,11.27a0.77,0.77,0,0,0-.11.8h6.23a5.83,5.83,0,0,1,.07,2.18h-9.65Z" transform="translate(-35.39 -172.79)" fill="#2b73b5"/><path d="M351.23,303.48c0.31,2.23.25,2.3-1.78,2.31-2.51,0-3.76-1.28-3.8-4,0-3.24,0-6.48,0-9.72,0-.43,0-0.86,0-1.35l-2-.14a5.26,5.26,0,0,1,0-1.91c0.62-.39,1.3,0,2.09-0.35-0.42-2,.12-3.61,2.78-3.65v3.79h3.13a5.2,5.2,0,0,1,0,2c-1,.33-2,0-3,0.22a2.53,2.53,0,0,0-.18,1.53c0,2.76,0,5.52,0,8.28C348.45,303,348.69,303.28,351.23,303.48Z" transform="translate(-35.39 -172.79)" fill="#2b73b5"/><path d="M224.36,288.45v2.17h-3.11a6.32,6.32,0,0,0-.14,2.26c0.05,2.87-.17,5.75.15,8.62,0.16,1.49.51,1.9,2,1.9,0.87,0,.83.5,0.87,1.08s0.08,1.16-.8,1.29c-3.14.46-4.84-.89-4.91-4.09s0-6.4,0-9.59c0-.43,0-0.86,0-1.25-0.7-.4-1.38,0-2-0.34a7.12,7.12,0,0,1-.08-1.83,1.26,1.26,0,0,1,.36-0.18c1.76-.15,1.8-0.15,1.75-1.86a1.22,1.22,0,0,1,1-1.48,4.41,4.41,0,0,1,1.63-.45,13.09,13.09,0,0,1,.09,2.85,0.75,0.75,0,0,0,.9.92C222.74,288.42,223.5,288.45,224.36,288.45Z" transform="translate(-35.39 -172.79)" fill="#2b73b5"/><path d="M501.45,261.19c2.27-.2,2.3-0.2,2.75,1.78,1.17,5.17,2.3,10.34,3.45,15.5-1.81.5-2.08,0.35-2.4-1.3-0.06-.31-0.13-0.62-0.2-0.93-0.65-2.78-.65-2.76-3.47-2.7a1,1,0,0,0-1.13.91c-0.15.9-.36,1.8-0.55,2.69-0.37,1.72-.4,1.74-2.4,1.39Zm1.2,2.87-0.15,0-1.51,7.7a9.51,9.51,0,0,0,3.12,0Z" transform="translate(-35.39 -172.79)" fill="#2b73b5"/><path d="M568.37,288.5H571a2,2,0,0,1,.19,1.32q0,7.68,0,15.35a11.71,11.71,0,0,1-.61,4,5.32,5.32,0,0,1-4.27,3.44,0.58,0.58,0,0,1-.81-0.58l-0.2-1.55c2.92-.68,3-3,3.05-5.42,0-5,0-10.08,0-15.11C568.37,289.51,568.37,289.08,568.37,288.5Z" transform="translate(-35.39 -172.79)" fill="#2b73b5"/><path d="M576.25,278.52c-1.88.39-1.93,0.36-2.31-1.31a11,11,0,0,1-.44-2.1c0-1.42-.79-1.64-2-1.58-2.12.09-2.13,0-2.59,2.06-0.11.51-.21,1-0.32,1.52-0.36,1.76-.45,1.81-2.39,1.41l2.74-12c0.36-1.55.79-3.1,1.05-4.67,0.17-1,.87-0.7,1.45-0.75a0.92,0.92,0,0,1,1.24.73c1.17,5.42,2.39,10.82,3.59,16.23A2.1,2.1,0,0,1,576.25,278.52Zm-3.42-6.76-1.58-8.07-1.59,8.07h3.17Z" transform="translate(-35.39 -172.79)" fill="#2b73b5"/><path d="M440.08,305.56v-24.4a11.36,11.36,0,0,1,2.7,0v24.29A11.22,11.22,0,0,1,440.08,305.56Z" transform="translate(-35.39 -172.79)" fill="#2b73b5"/><path d="M369.68,303.17c0.55,2.24.38,2.48-1.79,2.59-3.17.17-5.32-1.21-6.28-4.23a13.27,13.27,0,0,1,.19-9,6.23,6.23,0,0,1,6.27-4.27c2.2,0.08,2.48.57,1.42,2.66-1.53-.39-3.06-0.57-4.24.87a5.52,5.52,0,0,0-.91,1.67,11.16,11.16,0,0,0-.35,6C364.56,302.29,365.83,304.11,369.68,303.17Z" transform="translate(-35.39 -172.79)" fill="#2b73b5"/><path d="M534.66,263H529.6a3.1,3.1,0,0,1,0-1.82h7.63a2.82,2.82,0,0,1-.25,2.23q-2.45,6-4.89,12a3.37,3.37,0,0,0-.42,1.51h5.48a2.24,2.24,0,0,1,.1,1.73h-8.1a2.44,2.44,0,0,1,.16-2q2.52-6.08,5-12.16A2.58,2.58,0,0,0,534.66,263Z" transform="translate(-35.39 -172.79)" fill="#2b73b5"/><path d="M229.58,288.49c0.27,0.73,0,1.42.42,2.07,1-1.37,2-2.55,3.91-2.31a8.48,8.48,0,0,1,.11,2.61c-3.2,1.05-3.86,2-3.86,5.48,0,2.64,0,5.28,0,7.91,0,0.39,0,.78-0.06,1.2a10.72,10.72,0,0,1-2.73,0V288.54A7,7,0,0,1,229.58,288.49Z" transform="translate(-35.39 -172.79)" fill="#2b73b5"/><path d="M282.45,305.49h-2.77c-0.19-5.66.17-11.27-.26-16.93a7.56,7.56,0,0,1,2.55,0l0.12,2.32c1.07-1.59,2.13-2.88,4.14-2.59a10,10,0,0,1,.09,2.69c-2.7.46-3.79,1.67-3.85,4.38-0.06,2.91,0,5.83,0,8.74C282.45,304.51,282.45,304.95,282.45,305.49Z" transform="translate(-35.39 -172.79)" fill="#2b73b5"/><path d="M490.77,291c-2.45.27-3.71,1.53-3.78,3.92-0.09,3.07,0,6.15-.06,9.22a2.18,2.18,0,0,1-.17,1.32,10.21,10.21,0,0,1-2.59,0c-0.2-5.62.16-11.23-.26-16.86a5.75,5.75,0,0,1,2.4-.13c0.4,0.68.09,1.43,0.31,2.24,1-1.42,2.07-2.83,4.16-2.43V291Z" transform="translate(-35.39 -172.79)" fill="#2b73b5"/><path d="M515.26,276.38c0.62,0.2,1,.35,1.45.46a3.07,3.07,0,0,0,3.53-1.07,3.62,3.62,0,0,0-.29-3.84,8.84,8.84,0,0,0-1.89-1.65,8.65,8.65,0,0,1-2.25-2.3,4.61,4.61,0,0,1,.36-5.47,4.89,4.89,0,0,1,5.37-1.25c1.31,0.53.32,1.27,0.28,1.93a2,2,0,0,1-1.31-.25,2.49,2.49,0,0,0-2.87.93,2.77,2.77,0,0,0,.21,3.34,17.58,17.58,0,0,0,2.57,2.14,5.58,5.58,0,0,1,2.34,4.38,5,5,0,0,1-7.24,4.73C514.24,277.91,515.24,277.18,515.26,276.38Z" transform="translate(-35.39 -172.79)" fill="#2b73b5"/><path d="M489.26,263.31l-1.09-.32a2.58,2.58,0,0,0-3.08.92,2.83,2.83,0,0,0,.35,3.43,18.13,18.13,0,0,0,1.94,1.58c2,1.59,3.36,3.47,2.76,6.27-0.74,3.42-4.48,4.45-7.23,3.2-1.08-.49-0.14-1.22-0.21-1.85a3.3,3.3,0,0,1,1.56.32,3,3,0,0,0,3.49-1.15,3.35,3.35,0,0,0-.45-3.89,12.54,12.54,0,0,0-1.79-1.58c-1.6-1.26-3-2.63-2.9-4.93,0.13-3.53,3.54-5.13,6.46-4C490.31,261.75,489.4,262.57,489.26,263.31Z" transform="translate(-35.39 -172.79)" fill="#2b73b5"/><path d="M585.68,276.79c0.61,1.69.47,1.92-1.25,2.07a5.34,5.34,0,0,1-6-3.82A14.8,14.8,0,0,1,578.5,265c1.22-3.34,4.6-4.87,7.46-3.53-0.14,1.59-.14,1.59-1.66,1.41a3.48,3.48,0,0,0-3.55,2.32,12.62,12.62,0,0,0-.15,9.34C581.39,276.67,582.74,277.2,585.68,276.79Z" transform="translate(-35.39 -172.79)" fill="#2b73b5"/><path d="M538.73,305.49a10.54,10.54,0,0,1-2.68,0V288.53h2.68v17Z" transform="translate(-35.39 -172.79)" fill="#2b73b5"/><path d="M357.31,305.48a9.93,9.93,0,0,1-2.56,0c-0.22-.92-0.28-15.41-0.06-16.93a9.13,9.13,0,0,1,2.61,0v17Z" transform="translate(-35.39 -172.79)" fill="#2b73b5"/><path d="M276.3,211.28a3,3,0,0,1-1.06-1.79,9.79,9.79,0,0,0-6.82-7.24c-8-2.58-15.85-2.35-23.35,1.59-5.54,2.91-8.64,7.83-10,13.82a25.74,25.74,0,0,0,1.55,17.11c3.65,7.67,9.79,12.14,18.41,12.9a54.46,54.46,0,0,0,10.17,0,10.6,10.6,0,0,0,3.66-1.07,3.13,3.13,0,0,0,1.85-3c0-4.48-.08-9-0.19-13.43-0.05-2.22-.86-3.24-3-3.95-1-.33-2.07-0.51-3.19-0.78a1.35,1.35,0,0,1,1.36-.65c5.16,0.15,10.31.07,15.47,0a0.53,0.53,0,0,1,.64.31,2.46,2.46,0,0,1-1.39.77c-2.51.71-3.36,1.85-3.46,4.91-0.15,4.39,0,8.8,0,13.2,0,2.86-.77,4-3.47,4.88a39.62,39.62,0,0,1-11.94,1.65,50.75,50.75,0,0,1-17.28-2.15,19.71,19.71,0,0,1-11-8.37c-2.74-4.35-4.79-8.87-5.24-14.1a24.41,24.41,0,0,1,14.91-24.51,45.14,45.14,0,0,1,19.95-3.05,73.87,73.87,0,0,1,12.71,1.5c1.6,0.36,1.82.81,1.67,2.44-0.22,2.38-.28,4.78-0.42,7.17A2.21,2.21,0,0,1,276.3,211.28Z" transform="translate(-35.39 -172.79)" fill="#2b73b5"/><path d="M227.88,249.65c-5.21.23-10.41,0-15.81-.14a1.86,1.86,0,0,1,1.26-1.1c1.05-.23,1.08-0.88.87-1.72a47.05,47.05,0,0,0-2.11-5.2c-1.27-3.27-2.7-6.48-4-9.75a2.47,2.47,0,0,0-2.62-1.78c-4.28,0-8.56,0-12.83,0a2.25,2.25,0,0,0-2.49,1.71c-1.35,4-2.84,7.89-4.26,11.83a10.1,10.1,0,0,0-.43,1.61,2.86,2.86,0,0,0,1.78,3.5,4.47,4.47,0,0,1,1.94,1.08c-5.28.21-10.38-.08-15.67-0.08a2.07,2.07,0,0,1,1.66-.83,8,8,0,0,0,6.34-5.39q8.5-21.54,17-43.07c0.16-.41.32-0.82,0.5-1.22a0.94,0.94,0,0,1,1.87.07c1.21,2.87,2.4,5.74,3.61,8.61,5.05,12,10.07,24,15.2,35.94,1.27,3,3.34,5.18,6.94,5.2a5.68,5.68,0,0,1,1.25.29Zm-29-41.2a1.33,1.33,0,0,0-.62.93q-3,8.33-5.95,16.65c-0.47,1.3-.38,1.44,1,1.44h11.38c1.4,0,1.51-.17,1-1.44q-3-8-6-16A3.24,3.24,0,0,0,198.85,208.45Z" transform="translate(-35.39 -172.79)" fill="#2b73b5"/><path d="M344.36,240.69c0.33,2.28.74,4.43-.19,6.54a4,4,0,0,1-3,2.32,11.85,11.85,0,0,1-2.26.24c-6,.09-11.9-0.13-17.85-0.36-2.79-.11-5.59.15-8.38,0.26a2.41,2.41,0,0,1-1.53-.14,0.79,0.79,0,0,1,.72-0.66,5.71,5.71,0,0,0,4-4.8,21.05,21.05,0,0,0,.26-3.1q0-17.63,0-35.26a10.29,10.29,0,0,0-.09-1.55c-0.41-2.66-1.44-3.65-4.12-4a1.91,1.91,0,0,1-1.69-.87c6-.15,12,0.11,18.32-0.14a3,3,0,0,1-2,1.15,5,5,0,0,0-4.12,4.75c0,0.56,0,1.12,0,1.68q0,16.67,0,33.34a11.39,11.39,0,0,0,.71,4.1,4.3,4.3,0,0,0,4,3,70.39,70.39,0,0,0,10.18,0c2.88-.21,4.56-2.21,5.8-4.64C343.3,241.93,343.36,241.08,344.36,240.69Z" transform="translate(-35.39 -172.79)" fill="#2b73b5"/><path d="M285.8,199.6a1.74,1.74,0,0,1,1.72-.59,76.3,76.3,0,0,0,14.12.16,5.63,5.63,0,0,1,.94.08,2.7,2.7,0,0,1-1.74,1.23c-2.24.63-3,1.62-3,4q0,19.37,0,38.75c0,3.15,1.21,4.65,4.28,5.47a4.59,4.59,0,0,1,2.17.67c-1.16.71-2.33,0.3-3.43,0.19a76.42,76.42,0,0,0-12.69.18,3.29,3.29,0,0,1-2.09-.24,2.54,2.54,0,0,1,1.41-.58c2.59-.72,3.82-2.26,3.82-4.94q0-19.73,0-39.47c0-2.38-1-3.57-3.32-4.16A5.6,5.6,0,0,1,285.8,199.6Z" transform="translate(-35.39 -172.79)" fill="#2b73b5"/><path d="M192.24,197.21a2.13,2.13,0,0,1,1.58-1.26,33.08,33.08,0,0,0,9.87-6.41,3.25,3.25,0,0,0,1.37-3.13,0.84,0.84,0,0,1,1.11-1,16.69,16.69,0,0,1,3.71.87c0.76,0.31.72,0.78,0.31,1.31a6.35,6.35,0,0,1-1.6,1.43A121.45,121.45,0,0,1,194,196.86,2.64,2.64,0,0,1,192.24,197.21Z" transform="translate(-35.39 -172.79)" fill="#2b73b5"/><path d="M320.62,286.2a38.61,38.61,0,0,1,2.53-4.36c0.61-.81,1.77-0.23,3-0.34-1.34,1.71-2.45,3.24-3.69,4.64C322.13,286.55,321.38,286.31,320.62,286.2Z" transform="translate(-35.39 -172.79)" fill="#2b73b5"/><path d="M539,284.08a1.65,1.65,0,0,1-1.7,1.76,1.57,1.57,0,0,1-1.61-1.8,1.64,1.64,0,0,1,1.66-1.79A1.74,1.74,0,0,1,539,284.08Z" transform="translate(-35.39 -172.79)" fill="#2b73b5"/><path d="M571.44,284a1.66,1.66,0,1,1-3.31.08,1.76,1.76,0,0,1,1.63-1.86A1.64,1.64,0,0,1,571.44,284Z" transform="translate(-35.39 -172.79)" fill="#2b73b5"/><path d="M355.86,285.84A1.67,1.67,0,0,1,354.3,284a1.72,1.72,0,0,1,1.77-1.7,1.67,1.67,0,0,1,1.53,1.91A1.58,1.58,0,0,1,355.86,285.84Z" transform="translate(-35.39 -172.79)" fill="#2b73b5"/><path d="M511.57,278.88a1.54,1.54,0,0,1-.32-3.07,1.33,1.33,0,0,1,1.4,1.46C512.69,278.19,512.34,278.82,511.57,278.88Z" transform="translate(-35.39 -172.79)" fill="#2b73b5"/><path d="M495.43,277.45a1.36,1.36,0,1,1-2.7-.06,1.44,1.44,0,0,1,1.38-1.6A1.47,1.47,0,0,1,495.43,277.45Z" transform="translate(-35.39 -172.79)" fill="#2b73b5"/><path d="M69.75,228.39c0.64-.75,1.33-1.44,2-2.15l5.31-5.55,0.44-.48a1,1,0,0,0,.09-1.5,12.21,12.21,0,0,0-1.93-2,19.71,19.71,0,0,0-7.33-3.82l-0.1,0,0,0c0.29-.78.6-1.58,0.89-2.38,0.7-1.94,1.37-3.89,1.88-5.89a19.94,19.94,0,0,0,.37-2.59,5.47,5.47,0,0,0,0-1.26,3.13,3.13,0,0,0-1.27-2.08,3.38,3.38,0,0,0-1.53-.75,0.92,0.92,0,0,0-.83.21,4,4,0,0,0-.35.33,3.15,3.15,0,0,1-2.53,1,9.25,9.25,0,0,0-4.32,1,0.37,0.37,0,0,0-.18.2,52.52,52.52,0,0,0-2.69,7.26,0.26,0.26,0,0,1-.09.15c0.07-.58.13-1.15,0.21-1.71s0.15-1.14.24-1.71c0.23-1.44.49-2.88,0.81-4.31,0.07-.31.15-0.62,0.23-0.93a0.28,0.28,0,0,1,.18-0.21,24.13,24.13,0,0,0,2.86-1.41,4.69,4.69,0,0,1,2.57-.63,0.36,0.36,0,0,0,.23-0.1,4,4,0,0,1,3.9-.4,4.85,4.85,0,0,1,1.89,1.47l0.16,0.21c0.32-.37.64-0.73,0.94-1.09a0.21,0.21,0,0,1,.29-0.08h0c0.52,0.23,1,.46,1.59.66a0.53,0.53,0,0,0,.81-0.24l0.13-.16a1.38,1.38,0,0,1-.06.73,0.42,0.42,0,0,1-.45.23,2.8,2.8,0,0,1-.84-0.2l-0.19-.08a19.16,19.16,0,0,1-1.16,1.63,8.75,8.75,0,0,1,.7,1.2,6.12,6.12,0,0,1,.38,4.13c-0.43,1.76-.88,3.52-1.33,5.28a15.66,15.66,0,0,1-.51,1.56,3.35,3.35,0,0,0,.63.17,13.4,13.4,0,0,1,4.35,1.9,11.41,11.41,0,0,1,3.66,4.26l0.13,0.26a1.3,1.3,0,0,1-.17,1.61,8.78,8.78,0,0,1-1.16,1.06L71.47,227l-1.71,1.4Z" transform="translate(-35.39 -172.79)" fill="#2b73b5"/><path d="M50.85,232.37a12.72,12.72,0,0,1,1.8-3.11,24.84,24.84,0,0,1,3.23-3.42,22.16,22.16,0,0,1,2-1.42,8.9,8.9,0,0,0,1.77-1.52,2,2,0,0,0,.53-1.78c0.63-.39,1.26-0.78,1.87-1.2a13,13,0,0,0,2.57-2.16,4.07,4.07,0,0,0,.76-1.26,1.1,1.1,0,0,1,.07-0.15c1,0.45,2.08.89,3.12,1.39a11.09,11.09,0,0,1-1.77,2,18.25,18.25,0,0,1-4.32,2.6,0.24,0.24,0,0,0-.17.12,2.51,2.51,0,0,1-1.08,1.19,5.85,5.85,0,0,1-1.11.6,12.74,12.74,0,0,0-3.17,2,34.8,34.8,0,0,0-6,6.13l-0.06.06Z" transform="translate(-35.39 -172.79)" fill="#2b73b5"/><path d="M80.34,200.62c-0.53,1-1.12,1.89-1.71,2.81-1,1.59-2,3.17-3.14,4.69a2.8,2.8,0,0,1-.72.76,0.47,0.47,0,0,1-.71-0.07l-1-.92a0.21,0.21,0,0,1-.08-0.24,20.63,20.63,0,0,0,.81-4l0,0c0.42,0.71.75,1.47,1.12,2.23,1.82-1.72,3.66-3.4,5.33-5.25Z" transform="translate(-35.39 -172.79)" fill="#2b73b5"/><path d="M69.22,193.73a3.5,3.5,0,0,1,.71-2.64,3,3,0,0,1,2.08-1,4.74,4.74,0,0,1,2.37.36,2.25,2.25,0,0,1,1.3,2.63c-0.07.33-.13,0.65-0.21,1a0.86,0.86,0,0,0,0,.57c0.1,0.23.2,0.45,0.28,0.68a0.26,0.26,0,0,1-.26.4H75.25a0.29,0.29,0,0,1-.16,0,2.6,2.6,0,0,0,.26-0.11,0.26,0.26,0,0,0,.12-0.46c-0.06-.08-0.12-0.16-0.19-0.24a1.41,1.41,0,0,1-.31-1.3,3.29,3.29,0,0,0,0-1.34,1,1,0,0,0-.28-0.52,3.46,3.46,0,0,0-2.93-1,2.3,2.3,0,0,0-2,1.23,4.3,4.3,0,0,0-.4,1C69.33,193.2,69.28,193.47,69.22,193.73Z" transform="translate(-35.39 -172.79)" fill="#2b73b5"/><path d="M113.27,211.48a8.57,8.57,0,0,1-2.64,6.5,9.6,9.6,0,0,0-2.68,6.29,7.26,7.26,0,0,1-5.91,6.59,2,2,0,0,1-1.77,0,1,1,0,0,1-.53-0.85,0.86,0.86,0,0,1,.64-0.66c0.88-.42,1.9-0.2,2.8-0.7a5.37,5.37,0,0,0,3-4.94,9.35,9.35,0,0,1,2.42-6c1.11-1.39,2.34-2.66,2.72-4.57a9.57,9.57,0,0,0-3.59-9.18,9,9,0,0,0-5.06-1.92c-4.66-.12-8.93,2.26-10.08,7.59a5,5,0,0,0-.26,1.71,0.92,0.92,0,0,1-.85,1.14,1.05,1.05,0,0,1-.91-1.17,10.8,10.8,0,0,1,1.25-4.75,11.27,11.27,0,0,1,20.76,1.25A7.45,7.45,0,0,1,113.27,211.48Z" transform="translate(-35.39 -172.79)" fill="#2b73b5"/><path d="M107.84,212.58c-1.24-.44-1-1.47-1.12-2.2a4.85,4.85,0,0,0-5.24-3.67A4.71,4.71,0,0,0,97,211.14c0,0.7-.28,1.4-1,1.36s-0.82-.77-0.74-1.48a6.71,6.71,0,0,1,4.71-5.78c2.45-.9,4.67-0.15,6.58,1.59a6.58,6.58,0,0,1,2.16,4.46A1,1,0,0,1,107.84,212.58Z" transform="translate(-35.39 -172.79)" fill="#2b73b5"/><path d="M112.29,195.28a1.1,1.1,0,0,1,1.5-.26,18.13,18.13,0,0,1,4.32,4.12,23.1,23.1,0,0,1,3.33,6.22,0.9,0.9,0,0,1-.4,1.26,0.84,0.84,0,0,1-1.15-.54c-0.4-.88-0.69-1.8-1.1-2.67a19.11,19.11,0,0,0-5.74-6.94C112.3,195.87,112,195.65,112.29,195.28Z" transform="translate(-35.39 -172.79)" fill="#2b73b5"/><path d="M117.11,207.55a1,1,0,0,1-1.71-.28c0-.07-0.05-0.14-0.08-0.22a13.54,13.54,0,0,0-5-6.81c-0.48-.34-1-0.82-0.46-1.42s1-.35,1.52.05a16.72,16.72,0,0,1,5.75,7.94A0.64,0.64,0,0,1,117.11,207.55Z" transform="translate(-35.39 -172.79)" fill="#2b73b5"/><path d="M96.12,224.16h0a0.76,0.76,0,0,1-1.06,0l-3-3a0.76,0.76,0,0,1,0-1.07l0,0,0,0a0.76,0.76,0,0,1,1,0l2.93,3a0.76,0.76,0,0,1,0,1.07h0Z" transform="translate(-35.39 -172.79)" fill="#2b73b5"/><circle cx="67.18" cy="40.95" r="0.81" fill="#2b73b5"/><circle cx="62.29" cy="45.79" r="0.81" fill="#2b73b5"/><circle cx="55.25" cy="52.83" r="0.81" fill="#2b73b5"/><circle cx="50.65" cy="57.39" r="0.81" fill="#2b73b5"/><path d="M88.8,248.22a0.58,0.58,0,0,1-.25,1c-1.92.52-2,1.51-2.41,3.8-0.45,2.66-.11,5.36-0.35,8-0.23,2.5-1.7,4.21-4.08,4.4a0.56,0.56,0,0,1-.61-0.59c0-.13,0-0.26,0-0.39,0-3.62,0-7.24,0-10.86a14.06,14.06,0,0,1,.21-2,1.27,1.27,0,0,1,1-1.12c0.37-.09.77-0.16,1.17-0.23a0.56,0.56,0,0,0,.47-0.6v0a0.56,0.56,0,0,0-.48-0.5,7.25,7.25,0,0,0-.87,0c-2.14,0-4.28.08-6.42-.14-0.93-.09-1.23.29-1,1.17a0.37,0.37,0,0,0,.14.08c2.1,0.15,2.5.56,2.5,2.62V264.5a2.09,2.09,0,0,0,0,.28,0.58,0.58,0,0,1-.54.61h-0.1c-2.34-.29-3.57-1.68-3.88-4.14-0.23-1.82-.11-3.64-0.16-5.45a24.07,24.07,0,0,0-.47-4.07,2.69,2.69,0,0,0-2.3-2.51,0.58,0.58,0,0,1-.24-1,14.4,14.4,0,0,1,7.92-3.32C81.63,244.47,86.75,246.18,88.8,248.22Z" transform="translate(-35.39 -172.79)" fill="#2b73b5"/><path d="M70,255.87a19.52,19.52,0,0,0,.52,5.69,6,6,0,0,0,4.3,4.45c0.79,0.22,1.59.43,2.4,0.59a0.69,0.69,0,0,1,.71.8c0,1.38,0,2.75,0,4.13a2.23,2.23,0,0,1-3.21,2.09,14.47,14.47,0,0,1-9.83-12,14.13,14.13,0,0,1,3-11,1.23,1.23,0,0,1,1.28-.37,0.88,0.88,0,0,1,.71.91,11.53,11.53,0,0,1,.22,2.57C70,254.46,70,255.17,70,255.87Z" transform="translate(-35.39 -172.79)" fill="#2b73b5"/><path d="M94.22,259.79a14.75,14.75,0,0,1-7.37,12.57,7,7,0,0,1-3.69,1.39,1.57,1.57,0,0,1-1.7-1.24,6.56,6.56,0,0,1-.27-2.82,5.3,5.3,0,0,0-.07-2,0.78,0.78,0,0,1,.79-1.09,12.6,12.6,0,0,0,3.45-1,5,5,0,0,0,2.84-2.94,13.23,13.23,0,0,0,1-4.65c0-1.92,0-3.84,0-5.76a2.85,2.85,0,0,1,.1-0.93,1,1,0,0,1,2-.47,13.8,13.8,0,0,1,2.54,5.38A12.65,12.65,0,0,1,94.22,259.79Z" transform="translate(-35.39 -172.79)" fill="#2b73b5"/><path d="M122.67,247c-1-.69-2-0.35-3.19.87s-1.84,2.51-3.11,3.45c-0.56.42-1.14,0.87-1.82,0.45a1.74,1.74,0,0,1-.54-1.92c0.33-2.8,2.17-5,3-7.58,0.54-1.62,1.41-3.12,1.53-4.88a1.41,1.41,0,0,0-.84-1.45,1.07,1.07,0,0,0-1.34.57,4.73,4.73,0,0,0-.61,1c-1.11,2.42-1.79,5-3.14,7.35a1,1,0,0,1-1.25.71,1,1,0,0,1-.69-1.25c0.47-2.73.2-5.52,0.76-8.23a3.83,3.83,0,0,0-.41-3,1.1,1.1,0,0,0-2.06.14,6.29,6.29,0,0,0-.54,2.48c-0.18,2.69-.33,5.37-0.56,8.05a1.29,1.29,0,0,1-1,1.45,1.11,1.11,0,0,1-1.19-1.19c0-.26-0.29-0.5-0.33-0.76-0.42-2.32-1.11-4.58-1.67-6.86a6.75,6.75,0,0,0-.82-1.7,1,1,0,0,0-1.27-.16,1.19,1.19,0,0,0-.44,1.41c0.5,3.13,1.19,6.21,1.88,9.3,0.1,0.42.37,1-.33,1.17a1.09,1.09,0,0,1-1.54-.5,17.71,17.71,0,0,0-1.27-2c-0.84-1.27-1.43-2.74-2.69-3.73-0.44-.35-0.8-0.91-1.36-0.45s-0.28,1.08,0,1.64c0.8,1.39,1.5,2.84,2.39,4.18a11.85,11.85,0,0,1,1.72,4.74c0.26,1.59.12,3.23,0.66,4.78h0a12.28,12.28,0,0,0,1.53,5.17,4.83,4.83,0,0,0,1.86,1.72,1.23,1.23,0,0,0,1.85-1.06v-5.41a1.39,1.39,0,0,0-1.39-1.39H103a1.39,1.39,0,0,1-1.39-1.39h0a1.39,1.39,0,0,1,1.39-1.39h9.19a1.39,1.39,0,0,1,1.39,1.39h0a1.39,1.39,0,0,1-1.39,1.39H110.6a1.39,1.39,0,0,0-1.39,1.39v5.78a1.14,1.14,0,0,0,1.65,1,13.69,13.69,0,0,0,5.12-4.88,34.63,34.63,0,0,1,3.25-4.23c1.36-1.47,2.91-2.79,3.78-4.67A1,1,0,0,0,122.67,247Z" transform="translate(-35.39 -172.79)" fill="#2b73b5"/><path d="M107.61,262.24a5.11,5.11,0,1,0,5.11,5.11,5.11,5.11,0,0,0-5.11-5.11h0Zm0,7.39a2.28,2.28,0,1,1,2.28-2.28h0a2.28,2.28,0,0,1-2.28,2.28h0Z" transform="translate(-35.39 -172.79)" fill="#2b73b5"/></svg>