<svg id="Capa_1" data-name="Capa 1" xmlns="http://www.w3.org/2000/svg" viewBox="0 0 398.82 70.93"><title>logo-413x72</title><path d="M66.37,52.32c1.22,1.33.51,2.34-.6,3.33a1.48,1.48,0,0,0-.2,1.67,7.32,7.32,0,0,1,.37,4,5.89,5.89,0,0,1-5.86,4.35,29.75,29.75,0,0,0-6.55.53,3.89,3.89,0,0,0-3.47,4,0.53,0.53,0,0,1-.65.65c-1.58,0-3.16,0-4.74,0a1.16,1.16,0,0,1-1-.49,23.71,23.71,0,0,1-2.49-3.69,5.17,5.17,0,0,1,.65-5.44,4.06,4.06,0,0,1,4.53-1.67,25.22,25.22,0,0,0,5.39.91,4.63,4.63,0,0,0,2.16-.55,2.38,2.38,0,0,0,1.37-2.13,5.7,5.7,0,0,1,.17-1.08,1.69,1.69,0,0,1,1.73-1.37c1.24,0,1.68-.57,1.44-1.81a0.76,0.76,0,0,1,.63-1,1.18,1.18,0,0,0,.89-1.83,7.45,7.45,0,0,1-.47-2.06,1.44,1.44,0,0,1,1.11-1.73c1.74-.47,2.51-1.74,1.1-3.67a17.74,17.74,0,0,1-1.58-2.72,3.74,3.74,0,0,1-.22-3A26.66,26.66,0,0,1,61,34.93a14.29,14.29,0,0,0,.66-10.1,26.33,26.33,0,0,0-5.86-11.4,23.4,23.4,0,0,0-12.43-7c-8-1.77-15.32,0-22,4.54-3.31,2.26-5.38,5.63-6.85,9.32-2.34,5.85-2.13,11.75-.24,17.66a45.56,45.56,0,0,0,5.85,11.58,12.27,12.27,0,0,1,2.33,8,26.47,26.47,0,0,1-1.26,5.25c-0.7,2.36-1.56,4.67-2.45,7a2.05,2.05,0,0,1-2.71.93A0.53,0.53,0,0,1,15.89,70c0.18-.73.39-1.45,0.61-2.18a25,25,0,0,0,1.19-9.26,15.7,15.7,0,0,0-2.26-7A52,52,0,0,1,9.1,37.35C7.46,31,7.44,24.62,10,18.46c3.23-7.71,9-12.74,16.76-15.58,8.62-3.16,16.88-2,24.84,2.28a27.12,27.12,0,0,1,11.78,11.8c2.28,4.54,3.2,9.26,1.79,14.27a2.4,2.4,0,0,0,.58,2.1l4.78,6.87,1,1.41a3.18,3.18,0,0,1,.55,1.87,1.35,1.35,0,0,1-.64,1.21,19.69,19.69,0,0,1-2.93,1.63c-1.41.65-1.63,1.21-.75,2.53a2.44,2.44,0,0,1-.67,3A1.55,1.55,0,0,0,66.37,52.32Z" transform="translate(-7.96 -1.07)" fill="#20417d"/><path d="M256.52,10.78a2.37,2.37,0,0,1,.79,1.77q1.35,11.55,2.7,23.11c0.46,3.93.82,7.87,1.39,11.79,0.39,2.7,1.67,4.5,4.62,4.53a1.28,1.28,0,0,1,1.26.67c-4.51-.11-9-0.59-13.49-0.13l-0.05-.3c0.35-.15.69-0.33,1-0.45a2.56,2.56,0,0,0,1.9-2.85Q255.36,35.73,254,22.54a2,2,0,0,0-.18-0.4c-0.84,1.61-1.63,3.11-2.4,4.61L238.72,51.4c-0.06.11-.11,0.23-0.18,0.34-0.68,1.1-1.33,1.12-1.95,0-1.06-1.93-2.06-3.88-3.09-5.83L221.6,23.32c-0.1-.19-0.22-0.38-0.46-0.81-0.15,1.51-.28,2.78-0.4,4-0.64,7-1.33,14-1.9,21.08-0.16,2,.25,3.81,3,4.37a0.88,0.88,0,0,1,.65.37,1.07,1.07,0,0,1-1.09.25,41.73,41.73,0,0,0-9,0,2.88,2.88,0,0,1-1.3-.14,0.72,0.72,0,0,1,.56-0.35c2.42-.54,3.32-2.37,3.6-4.53,0.77-6.08,1.44-12.17,2.14-18.26q1-8.56,2-17.12c0-.39,0-1,0.51-1s0.74,0.51,1,.91q7.87,14.77,15.72,29.55l2.2,4.12Z" transform="translate(-7.96 -1.07)" fill="#20417d"/><path d="M334.2,46.51V45.29q0-13.75,0-27.51c0-3-.82-4-3.82-4.65a1.38,1.38,0,0,1-1.26-.92,69.57,69.57,0,0,0,12.39-.06,1,1,0,0,1-1,.92,3.14,3.14,0,0,0-2.9,3,11.18,11.18,0,0,0-.07,1.34q0,16.77,0,33.55c0,0.74.31,1.79-.47,2.09s-1.4-.6-1.93-1.16q-6.68-7.12-13.33-14.28l-18-19.33a2.54,2.54,0,0,0-.29-0.23,0.71,0.71,0,0,0-.15.72q0,14,0,28.08a7,7,0,0,0,.47,2.71A3.59,3.59,0,0,0,307.12,52a2,2,0,0,1,1.51.59,98.89,98.89,0,0,0-13,0A1.18,1.18,0,0,1,296.5,52a4.07,4.07,0,0,0,3.36-4c0-.48,0-1,0-1.44q0-16.58,0-33.16a4.17,4.17,0,0,1,.49-2.31Z" transform="translate(-7.96 -1.07)" fill="#20417d"/><path d="M157.61,21.93a2.43,2.43,0,0,1-.84-1.43,7.82,7.82,0,0,0-5.45-5.79c-6.39-2.06-12.67-1.88-18.65,1.27-4.43,2.33-6.91,6.25-8,11A20.56,20.56,0,0,0,125.9,40.7,17.1,17.1,0,0,0,140.61,51a43.52,43.52,0,0,0,8.13,0,8.47,8.47,0,0,0,2.92-.85,2.5,2.5,0,0,0,1.48-2.39c0-3.58-.07-7.15-0.15-10.73a2.92,2.92,0,0,0-2.4-3.15c-0.81-.27-1.66-0.41-2.55-0.62a1.08,1.08,0,0,1,1.09-.52c4.12,0.12,8.24.05,12.36,0A0.42,0.42,0,0,1,162,33a2,2,0,0,1-1.11.62c-2,.57-2.69,1.48-2.77,3.93-0.12,3.51,0,7,0,10.54,0,2.28-.61,3.16-2.77,3.9a31.65,31.65,0,0,1-9.54,1.32A40.55,40.55,0,0,1,132,51.61a15.75,15.75,0,0,1-8.8-6.69A24.9,24.9,0,0,1,119,33.66,19.5,19.5,0,0,1,130.9,14.08a36.07,36.07,0,0,1,15.94-2.44A59,59,0,0,1,157,12.83c1.28,0.29,1.45.65,1.33,1.95-0.17,1.9-.22,3.82-0.33,5.73A1.77,1.77,0,0,1,157.61,21.93Z" transform="translate(-7.96 -1.07)" fill="#ad3079"/><path d="M118.93,52.59c-4.16.19-8.32,0-12.63-.12a1.48,1.48,0,0,1,1-.88c0.84-.18.87-0.7,0.69-1.37a37.6,37.6,0,0,0-1.69-4.16c-1-2.61-2.16-5.18-3.18-7.79A2,2,0,0,0,101,36.85c-3.42,0-6.84,0-10.25,0a1.8,1.8,0,0,0-2,1.37c-1.08,3.17-2.27,6.3-3.4,9.45A8.07,8.07,0,0,0,85,49a2.28,2.28,0,0,0,1.42,2.8,3.57,3.57,0,0,1,1.55.86c-4.22.17-8.29-.07-12.52-0.06a1.65,1.65,0,0,1,1.33-.66,6.38,6.38,0,0,0,5.06-4.3q6.79-17.21,13.61-34.42c0.13-.33.26-0.65,0.4-1a0.75,0.75,0,0,1,1.49.05c1,2.29,1.92,4.59,2.88,6.88,4,9.58,8,19.16,12.14,28.71,1,2.37,2.67,4.14,5.55,4.16a4.54,4.54,0,0,1,1,.23ZM95.73,19.67a1.06,1.06,0,0,0-.5.75q-2.37,6.66-4.75,13.31c-0.37,1-.3,1.15.81,1.15h9.09c1.12,0,1.21-.13.83-1.15q-2.38-6.4-4.78-12.79A2.59,2.59,0,0,0,95.73,19.67Z" transform="translate(-7.96 -1.07)" fill="#ad3079"/><path d="M403.77,28.65c-1.11,2.59-.83,5.31-1,8.19a2.32,2.32,0,0,1-.79-1.45c-0.49-2.11-1.41-3-3.51-3.12-2.26-.1-4.54-0.06-6.8,0-1,0-1.26.45-1.26,1.63q0,6,0,12,0,0.77,0,1.53c0,2,.73,3,2.74,3.21a21.2,21.2,0,0,0,7.43,0c2.1-.48,3.86-1.54,4.42-3.88a1.54,1.54,0,0,1,.51-1,1.34,1.34,0,0,1,.42,1.18,21,21,0,0,1-.6,4.44,1.58,1.58,0,0,1-1.33,1.23,10,10,0,0,1-1.81.17q-9.63,0-19.27,0a1.69,1.69,0,0,1-1.27-.25,0.84,0.84,0,0,1,.77-0.47c1.8-.41,2.41-1.16,2.42-3q0-8,.06-16,0-8.48.06-17c0-1.67-.41-2.17-2-2.65a6.48,6.48,0,0,1-2.36-.83,1.08,1.08,0,0,1,1.14-.29q10,0,20,0a7.44,7.44,0,0,0,2.23-.4c0.64-.19,1,0.07.76,0.72a15.86,15.86,0,0,0-.89,5.26,0.77,0.77,0,0,1-.35.74,1.12,1.12,0,0,1-.67-1c-0.39-2.08-2.18-3-4.37-3.18s-4.34-.05-6.52,0c-1.36,0-1.8.51-1.8,1.9q0,6,0,12c0,1.63.35,2,2,2,2.59,0,5.17,0,7.76,0a3.81,3.81,0,0,0,3-1.28A1,1,0,0,1,403.77,28.65Z" transform="translate(-7.96 -1.07)" fill="#20417d"/><path d="M292.46,45.59c0.54,1.44.19,2.78,0,4.11a4.28,4.28,0,0,1-.13.56c-0.52,2.11-.9,2.43-3.14,2.44q-9.82,0-19.65,0a1.59,1.59,0,0,1-1.1-.24,1,1,0,0,1,.86-0.49,2.53,2.53,0,0,0,2.33-2.87c0-3.07,0-6.13,0-9.2q0-8.24.06-16.48c0-2.36.05-4.73,0.06-7.09,0-2-.38-2.54-2.39-3.05a5.73,5.73,0,0,1-2-.71,1.19,1.19,0,0,1,1.22-.31c6.68,0,13.35,0,20,0a8.66,8.66,0,0,0,2.23-.42c0.63-.16.94,0.16,0.71,0.69a17.25,17.25,0,0,0-.91,5.44,0.71,0.71,0,0,1-.3.59,1,1,0,0,1-.68-0.93c-0.4-2.15-2.37-3.11-4.45-3.23s-4.28,0-6.42,0c-1.39,0-1.87.53-1.87,1.95q0,5.89,0,11.79c0,1.79.36,2.14,2.13,2.14,2.55,0,5.11-.05,7.66,0A3.77,3.77,0,0,0,289.65,29a0.84,0.84,0,0,1,1-.32c-0.94,2.57-.94,5.27-1,8a1.86,1.86,0,0,1-.75-1.36c-0.46-2-1.4-2.9-3.41-3-2.29-.11-4.6-0.05-6.9,0a1.14,1.14,0,0,0-1.25,1.27c0,4.89,0,9.78,0,14.66a2.29,2.29,0,0,0,2.09,2.27,22.16,22.16,0,0,0,6.94.33A8.35,8.35,0,0,0,289,50a4.83,4.83,0,0,0,2.82-3.4A1.43,1.43,0,0,1,292.46,45.59Z" transform="translate(-7.96 -1.07)" fill="#20417d"/><path d="M358.36,14.36c-3.25.14-6.38-.22-9.49,0.2-2.48.33-4.71,1.18-6.1,3.47a1,1,0,0,1-.54.51,0.4,0.4,0,0,1-.16-0.5,48.74,48.74,0,0,1,1.21-5.8,0.76,0.76,0,0,1,1-.62,12.86,12.86,0,0,0,4.63.39c8.85,0.12,17.7.16,26.55,0.22a6.71,6.71,0,0,0,2.17-.3c0.51-.17,1-0.08,1,0.59a52.32,52.32,0,0,1-.11,6.21,0.41,0.41,0,0,1-.12.15,1.16,1.16,0,0,1-.83-0.84,5.83,5.83,0,0,0-5.34-3.6c-3-.11-5.93,0-8.92,0a2,2,0,0,0-.11,1.12c0,10.35,0,20.71,0,31.06,0,2.91,1.29,5.15,4.4,5.46a7,7,0,0,1,.89.23,2.93,2.93,0,0,1-1.52.37c-4,0-8-.19-12,0a6.84,6.84,0,0,1-1-.12,4,4,0,0,1,1.37-.55c1.57-.51,2.72-1.4,2.88-3.18,0-.44.1-0.89,0.1-1.34q0-16.2,0-32.4v-0.7Z" transform="translate(-7.96 -1.07)" fill="#20417d"/><path d="M212,45.43c0.26,1.82.59,3.54-.15,5.22a3.21,3.21,0,0,1-2.41,1.86,9.47,9.47,0,0,1-1.8.19c-4.76.07-9.51-.1-14.26-0.29-2.23-.09-4.46.12-6.69,0.21a1.93,1.93,0,0,1-1.22-.11A0.63,0.63,0,0,1,186,52a4.56,4.56,0,0,0,3.18-3.83,16.82,16.82,0,0,0,.21-2.48q0-14.09,0-28.17a8.22,8.22,0,0,0-.07-1.24c-0.33-2.12-1.15-2.91-3.29-3.19a1.53,1.53,0,0,1-1.35-.7c4.81-.12,9.61.09,14.64-0.11a2.43,2.43,0,0,1-1.63.92,4,4,0,0,0-3.29,3.8c0,0.45,0,.89,0,1.34q0,13.32,0,26.64a9.1,9.1,0,0,0,.56,3.28,3.43,3.43,0,0,0,3.18,2.37,56.24,56.24,0,0,0,8.13,0c2.3-.17,3.65-1.76,4.64-3.71A2.19,2.19,0,0,1,212,45.43Z" transform="translate(-7.96 -1.07)" fill="#ad3079"/><path d="M165.2,12.6a1.39,1.39,0,0,1,1.37-.47,61,61,0,0,0,11.28.13,4.5,4.5,0,0,1,.75.06,2.16,2.16,0,0,1-1.39,1c-1.79.5-2.37,1.29-2.37,3.19q0,15.48,0,31c0,2.51,1,3.72,3.42,4.37a3.67,3.67,0,0,1,1.73.54c-0.93.57-1.86,0.24-2.74,0.15a61.05,61.05,0,0,0-10.14.14,2.63,2.63,0,0,1-1.67-.19,2,2,0,0,1,1.13-.47A3.69,3.69,0,0,0,169.64,48q0-15.77,0-31.53A3,3,0,0,0,167,13.18,4.48,4.48,0,0,1,165.2,12.6Z" transform="translate(-7.96 -1.07)" fill="#ad3079"/><path d="M90.45,10.69a1.7,1.7,0,0,1,1.26-1A26.43,26.43,0,0,0,99.6,4.56a2.6,2.6,0,0,0,1.09-2.5,0.67,0.67,0,0,1,.89-0.81,13.33,13.33,0,0,1,3,.69c0.6,0.25.57,0.62,0.25,1a5.07,5.07,0,0,1-1.28,1.14,97,97,0,0,1-11.69,6.28A2.11,2.11,0,0,1,90.45,10.69Z" transform="translate(-7.96 -1.07)" fill="#ad3079"/><path d="M27.62,32.88c0.37-.43.76-0.83,1.15-1.23l3-3.18,0.25-.28a0.57,0.57,0,0,0,.05-0.86A7,7,0,0,0,31,26.19,11.28,11.28,0,0,0,26.81,24l-0.06,0h0c0.17-.45.34-0.91,0.51-1.36,0.4-1.11.78-2.23,1.08-3.37a11.41,11.41,0,0,0,.21-1.48,3.13,3.13,0,0,0,0-.72,1.79,1.79,0,0,0-.72-1.19,1.94,1.94,0,0,0-.88-0.43,0.53,0.53,0,0,0-.48.12l-0.2.19a1.8,1.8,0,0,1-1.45.58,5.29,5.29,0,0,0-2.47.6,0.21,0.21,0,0,0-.1.12,30.06,30.06,0,0,0-1.54,4.16,0.15,0.15,0,0,1,0,.08c0-.33.08-0.66,0.12-1s0.08-.65.14-1c0.13-.83.28-1.65,0.47-2.46,0-.18.09-0.35,0.13-0.53a0.16,0.16,0,0,1,.11-0.12,13.81,13.81,0,0,0,1.64-.81A2.68,2.68,0,0,1,24.71,15,0.21,0.21,0,0,0,24.84,15a2.31,2.31,0,0,1,2.23-.23,2.78,2.78,0,0,1,1.08.84l0.09,0.12,0.54-.63A0.12,0.12,0,0,1,29,15h0c0.3,0.13.6,0.26,0.91,0.38a0.3,0.3,0,0,0,.46-0.14l0.07-.09a0.79,0.79,0,0,1,0,.42,0.24,0.24,0,0,1-.26.13,1.6,1.6,0,0,1-.48-0.12l-0.11,0a11,11,0,0,1-.66.94,5,5,0,0,1,.4.69,3.5,3.5,0,0,1,.22,2.37c-0.25,1-.51,2-0.76,3a9,9,0,0,1-.29.89,1.92,1.92,0,0,0,.36.1,7.67,7.67,0,0,1,2.49,1.08,6.53,6.53,0,0,1,2.09,2.44l0.07,0.15a0.74,0.74,0,0,1-.1.92,5,5,0,0,1-.66.6l-4.08,3.36-1,.8v0Z" transform="translate(-7.96 -1.07)" fill="#dbbf3a"/><path d="M16.81,35.16a7.28,7.28,0,0,1,1-1.78,14.22,14.22,0,0,1,1.85-2,12.68,12.68,0,0,1,1.12-.81,5.09,5.09,0,0,0,1-.87,1.16,1.16,0,0,0,.31-1c0.36-.22.72-0.45,1.07-0.69a7.46,7.46,0,0,0,1.47-1.23,2.33,2.33,0,0,0,.44-0.72l0-.08c0.6,0.26,1.19.51,1.79,0.79a6.35,6.35,0,0,1-1,1.12,10.45,10.45,0,0,1-2.47,1.49,0.14,0.14,0,0,0-.1.07,1.44,1.44,0,0,1-.62.68,3.35,3.35,0,0,1-.64.34,7.29,7.29,0,0,0-1.81,1.14,19.91,19.91,0,0,0-3.43,3.51l0,0v0Z" transform="translate(-7.96 -1.07)" fill="#dbbf3a"/><path d="M33.68,17c-0.31.55-.64,1.08-1,1.61-0.58.91-1.17,1.81-1.8,2.68a1.6,1.6,0,0,1-.41.43,0.27,0.27,0,0,1-.41,0l-0.55-.53a0.12,0.12,0,0,1,0-.14A11.81,11.81,0,0,0,30,18.71h0c0.24,0.41.43,0.84,0.64,1.28,1-1,2.09-1.95,3-3Z" transform="translate(-7.96 -1.07)" fill="#dbbf3a"/><path d="M27.31,13.05a2,2,0,0,1,.41-1.51,1.69,1.69,0,0,1,1.19-.6,2.71,2.71,0,0,1,1.36.21,1.29,1.29,0,0,1,.74,1.5c0,0.19-.08.37-0.12,0.56a0.49,0.49,0,0,0,0,.33c0.06,0.13.11,0.26,0.16,0.39a0.15,0.15,0,0,1-.15.23H30.77l-0.09,0,0.15-.06a0.15,0.15,0,0,0,.07-0.26l-0.11-.14a0.81,0.81,0,0,1-.18-0.74,1.88,1.88,0,0,0,0-.77,0.56,0.56,0,0,0-.16-0.3,2,2,0,0,0-1.68-.56,1.32,1.32,0,0,0-1.14.7,2.46,2.46,0,0,0-.23.6C27.38,12.75,27.35,12.9,27.31,13.05Z" transform="translate(-7.96 -1.07)" fill="#dbbf3a"/><path d="M52.53,23.21A4.9,4.9,0,0,1,51,26.93a5.49,5.49,0,0,0-1.54,3.6,4.16,4.16,0,0,1-3.38,3.77,1.12,1.12,0,0,1-1,0,0.6,0.6,0,0,1-.31-0.49,0.49,0.49,0,0,1,.37-0.38c0.5-.24,1.09-0.11,1.6-0.4a3.08,3.08,0,0,0,1.74-2.83,5.35,5.35,0,0,1,1.38-3.42,6.11,6.11,0,0,0,1.56-2.61,5.48,5.48,0,0,0-2.06-5.25,5.12,5.12,0,0,0-2.9-1.1,5.39,5.39,0,0,0-5.77,4.34,2.87,2.87,0,0,0-.15,1,0.53,0.53,0,0,1-.49.65,0.6,0.6,0,0,1-.52-0.67,6.18,6.18,0,0,1,.72-2.72,6.45,6.45,0,0,1,11.88.71A4.26,4.26,0,0,1,52.53,23.21Z" transform="translate(-7.96 -1.07)" fill="#97b14c"/><path d="M49.42,23.84a1.17,1.17,0,0,1-.64-1.26,2.78,2.78,0,0,0-3-2.1A2.69,2.69,0,0,0,43.22,23a0.65,0.65,0,0,1-.6.78c-0.47,0-.47-0.44-0.42-0.85a3.84,3.84,0,0,1,2.7-3.31,3.54,3.54,0,0,1,3.77.91,3.77,3.77,0,0,1,1.24,2.55A0.58,0.58,0,0,1,49.42,23.84Z" transform="translate(-7.96 -1.07)" fill="#97b14c"/><path d="M52,13.94a0.63,0.63,0,0,1,.86-0.15,10.37,10.37,0,0,1,2.47,2.36,13.22,13.22,0,0,1,1.9,3.56,0.51,0.51,0,0,1-.23.72,0.48,0.48,0,0,1-.66-0.31c-0.23-.5-0.4-1-0.63-1.53a10.93,10.93,0,0,0-3.28-4C52,14.27,51.82,14.15,52,13.94Z" transform="translate(-7.96 -1.07)" fill="#97b14c"/><path d="M54.72,21a0.57,0.57,0,0,1-1-.16l0-.13a7.75,7.75,0,0,0-2.87-3.89c-0.28-.2-0.55-0.47-0.27-0.81s0.55-.2.87,0a9.57,9.57,0,0,1,3.29,4.55A0.37,0.37,0,0,1,54.72,21Z" transform="translate(-7.96 -1.07)" fill="#97b14c"/><path d="M42.71,30.46h0a0.43,0.43,0,0,1-.61,0l-1.69-1.7a0.43,0.43,0,0,1,0-.61l0,0,0,0a0.43,0.43,0,0,1,.6,0l1.68,1.72a0.43,0.43,0,0,1,0,.61h0Z" transform="translate(-7.96 -1.07)" fill="#97b14c"/><circle cx="38.45" cy="23.44" r="0.47" fill="#97b14c"/><circle cx="35.64" cy="26.2" r="0.47" fill="#97b14c"/><circle cx="31.62" cy="30.23" r="0.47" fill="#97b14c"/><circle cx="28.98" cy="32.84" r="0.47" fill="#97b14c"/><path d="M38.52,44.23a0.33,0.33,0,0,1-.14.55c-1.1.3-1.16,0.86-1.38,2.18-0.26,1.52-.06,3.06-0.2,4.6a2.52,2.52,0,0,1-2.34,2.52,0.32,0.32,0,0,1-.35-0.34c0-.07,0-0.15,0-0.22,0-2.07,0-4.14,0-6.21a8,8,0,0,1,.12-1.14,0.73,0.73,0,0,1,.59-0.64l0.67-.13A0.32,0.32,0,0,0,35.76,45h0a0.32,0.32,0,0,0-.28-0.28H35c-1.22,0-2.45,0-3.67-.08-0.53-.05-0.7.16-0.56,0.67l0.08,0c1.2,0.08,1.43.32,1.43,1.5v6.65a1.2,1.2,0,0,0,0,.16,0.33,0.33,0,0,1-.31.35H31.91a2.38,2.38,0,0,1-2.22-2.37c-0.13-1-.06-2.08-0.09-3.12a13.77,13.77,0,0,0-.27-2.33A1.54,1.54,0,0,0,28,44.81a0.33,0.33,0,0,1-.13-0.57,8.24,8.24,0,0,1,4.53-1.9A8.82,8.82,0,0,1,38.52,44.23Z" transform="translate(-7.96 -1.07)" fill="#a13f80"/><path d="M27.75,48.61a11.17,11.17,0,0,0,.3,3.25,3.42,3.42,0,0,0,2.46,2.55c0.45,0.13.91,0.25,1.37,0.34a0.39,0.39,0,0,1,.4.46c0,0.79,0,1.58,0,2.36a1.28,1.28,0,0,1-1.84,1.2A8.28,8.28,0,0,1,24.8,51.9a8.08,8.08,0,0,1,1.69-6.28,0.7,0.7,0,0,1,.73-0.21,0.51,0.51,0,0,1,.4.52,6.6,6.6,0,0,1,.12,1.47C27.74,47.81,27.75,48.21,27.75,48.61Z" transform="translate(-7.96 -1.07)" fill="#a13f80"/><path d="M41.62,50.85A8.44,8.44,0,0,1,37.41,58a4,4,0,0,1-2.11.79,0.9,0.9,0,0,1-1-.71,3.75,3.75,0,0,1-.16-1.61,3,3,0,0,0,0-1.15,0.45,0.45,0,0,1,.45-0.63,7.21,7.21,0,0,0,2-.59,2.85,2.85,0,0,0,1.63-1.68,7.57,7.57,0,0,0,.55-2.66c0-1.1,0-2.2,0-3.3A1.63,1.63,0,0,1,38.8,46a0.6,0.6,0,0,1,1.13-.27,7.9,7.9,0,0,1,1.45,3.08A7.24,7.24,0,0,1,41.62,50.85Z" transform="translate(-7.96 -1.07)" fill="#a13f80"/><path d="M57.9,43.51c-0.56-.4-1.16-0.2-1.83.5a16,16,0,0,1-1.78,2,0.89,0.89,0,0,1-1,.26,1,1,0,0,1-.31-1.1c0.19-1.6,1.24-2.86,1.74-4.34A11.33,11.33,0,0,0,55.56,38a0.81,0.81,0,0,0-.48-0.83,0.61,0.61,0,0,0-.77.33,2.71,2.71,0,0,0-.35.57,45.73,45.73,0,0,1-1.8,4.21,0.56,0.56,0,0,1-.72.41,0.54,0.54,0,0,1-.4-0.72c0.27-1.56.12-3.16,0.43-4.71a2.19,2.19,0,0,0-.23-1.72,0.63,0.63,0,0,0-1.18.08A3.6,3.6,0,0,0,49.77,37c-0.1,1.54-.19,3.07-0.32,4.61a0.74,0.74,0,0,1-.54.83,0.63,0.63,0,0,1-.68-0.68c0-.15-0.16-0.28-0.19-0.44-0.24-1.33-.63-2.62-1-3.93a3.86,3.86,0,0,0-.47-1,0.56,0.56,0,0,0-.73-0.09,0.68,0.68,0,0,0-.25.81c0.28,1.79.68,3.55,1.08,5.32,0.05,0.24.21,0.55-.19,0.67a0.63,0.63,0,0,1-.88-0.28,10.13,10.13,0,0,0-.73-1.17,8.12,8.12,0,0,0-1.54-2.14c-0.25-.2-0.46-0.52-0.78-0.26a0.68,0.68,0,0,0,0,.94c0.46,0.79.86,1.63,1.36,2.39a6.78,6.78,0,0,1,1,2.71,15.87,15.87,0,0,0,.38,2.73h0a7,7,0,0,0,.87,3,2.76,2.76,0,0,0,1.06,1,0.71,0.71,0,0,0,1.06-.61V48.34a0.79,0.79,0,0,0-.79-0.79H46.64a0.79,0.79,0,0,1-.79-0.79h0A0.79,0.79,0,0,1,46.64,46H51.9a0.79,0.79,0,0,1,.79.79h0a0.79,0.79,0,0,1-.79.79H51a0.79,0.79,0,0,0-.79.79v3.31a0.65,0.65,0,0,0,.94.58,7.83,7.83,0,0,0,2.93-2.79A19.82,19.82,0,0,1,55.94,47a10.81,10.81,0,0,0,2.16-2.67A0.59,0.59,0,0,0,57.9,43.51Z" transform="translate(-7.96 -1.07)" fill="#5f9eb2"/><path d="M49.29,52.26a2.93,2.93,0,1,0,2.93,2.93,2.93,2.93,0,0,0-2.93-2.93h0Zm0,4.23a1.3,1.3,0,1,1,1.3-1.3h0a1.3,1.3,0,0,1-1.3,1.31h0Z" transform="translate(-7.96 -1.07)" fill="#5f9eb2"/><path d="M393.31,60.46h-0.72l0.39-6.6,0.37,0a0.5,0.5,0,0,1,.64.48c0.36,1.54.76,3.07,1.15,4.62l1.05-4.35c0.19-.79.19-0.79,1.07-0.71l0.38,6.55a1.36,1.36,0,0,1-.74,0l-0.25-4.81h-0.06L396,57.89c-0.19.75-.38,1.49-0.58,2.24a0.33,0.33,0,0,1-.34.34,0.35,0.35,0,0,1-.37-0.36c-0.37-1.46-.75-2.92-1.2-4.39Z" transform="translate(-7.96 -1.07)" fill="#9a999f"/><path d="M387.91,57.17a5.24,5.24,0,0,1,.44-2.34,1.65,1.65,0,0,1,1.54-1.08,1.55,1.55,0,0,1,1.43,1.08,3.84,3.84,0,0,1,.27.91,7.54,7.54,0,0,1-.1,3.23,2.45,2.45,0,0,1-.58,1.11,1.53,1.53,0,0,1-2.55-.48A5.49,5.49,0,0,1,387.91,57.17Zm0.83,0.26a4.86,4.86,0,0,0,.33,1.81,0.82,0.82,0,0,0,.76.61,0.76,0.76,0,0,0,.74-0.62,6.6,6.6,0,0,0,0-4,0.83,0.83,0,0,0-.79-0.7,0.87,0.87,0,0,0-.78.72A6.17,6.17,0,0,0,388.74,57.43Z" transform="translate(-7.96 -1.07)" fill="#9a999f"/><path d="M373.86,53.86c0.86-.08.87-0.08,1,0.67,0.44,2,.87,3.91,1.31,5.87-0.69.19-.79,0.13-0.91-0.49,0-.12,0-0.24-0.08-0.35-0.25-1.05-.25-1-1.31-1a0.36,0.36,0,0,0-.43.34c-0.06.34-.14,0.68-0.21,1-0.14.65-.15,0.66-0.91,0.53Zm0.45,1.09h-0.06l-0.57,2.91a3.6,3.6,0,0,0,1.18,0Z" transform="translate(-7.96 -1.07)" fill="#9a999f"/><path d="M402.17,60.42c-0.71.15-.73,0.13-0.88-0.5a4.15,4.15,0,0,1-.17-0.8c0-.54-0.3-0.62-0.77-0.6-0.8,0-.8,0-1,0.78,0,0.19-.08.38-0.12,0.58-0.14.66-.17,0.69-0.91,0.53l1-4.54c0.13-.59.3-1.17,0.4-1.77,0.07-.39.33-0.27,0.55-0.28a0.35,0.35,0,0,1,.47.28c0.44,2,.9,4.1,1.36,6.14A0.8,0.8,0,0,1,402.17,60.42Zm-1.29-2.56-0.6-3.05-0.6,3.05h1.2Z" transform="translate(-7.96 -1.07)" fill="#9a999f"/><path d="M386.43,54.54h-1.91a1.17,1.17,0,0,1,0-.69h2.89a1.07,1.07,0,0,1-.09.84l-1.85,4.53a1.27,1.27,0,0,0-.16.57h2.07a0.85,0.85,0,0,1,0,.66h-3.07a0.92,0.92,0,0,1,.06-0.74l1.9-4.6A1,1,0,0,0,386.43,54.54Z" transform="translate(-7.96 -1.07)" fill="#9a999f"/><path d="M379.09,59.61l0.55,0.17a1.16,1.16,0,0,0,1.34-.4,1.37,1.37,0,0,0-.11-1.45,3.35,3.35,0,0,0-.71-0.63,3.28,3.28,0,0,1-.85-0.87,1.75,1.75,0,0,1,.14-2.07,1.85,1.85,0,0,1,2-.47c0.5,0.2.12,0.48,0.1,0.73a0.77,0.77,0,0,1-.5-0.1,0.94,0.94,0,0,0-1.09.35,1,1,0,0,0,.08,1.26,6.66,6.66,0,0,0,1,.81,2.11,2.11,0,0,1,.89,1.66,1.9,1.9,0,0,1-2.74,1.79C378.7,60.18,379.08,59.91,379.09,59.61Z" transform="translate(-7.96 -1.07)" fill="#9a999f"/><path d="M369.25,54.66l-0.41-.12a1,1,0,0,0-1.17.35,1.07,1.07,0,0,0,.13,1.3,6.86,6.86,0,0,0,.74.6,2.24,2.24,0,0,1,1,2.37,1.91,1.91,0,0,1-2.74,1.21c-0.41-.18-0.05-0.46-0.08-0.7a1.25,1.25,0,0,1,.59.12,1.14,1.14,0,0,0,1.32-.43,1.27,1.27,0,0,0-.17-1.47,4.75,4.75,0,0,0-.68-0.6,2.23,2.23,0,0,1-1.1-1.87,1.74,1.74,0,0,1,2.45-1.52C369.65,54.07,369.3,54.38,369.25,54.66Z" transform="translate(-7.96 -1.07)" fill="#9a999f"/><path d="M405.74,59.76c0.23,0.64.18,0.73-.47,0.78A2,2,0,0,1,403,59.1a5.6,5.6,0,0,1,0-3.82,2.09,2.09,0,0,1,2.82-1.34c-0.05.6-.05,0.6-0.63,0.54a1.32,1.32,0,0,0-1.34.88,4.78,4.78,0,0,0-.06,3.54C404.12,59.72,404.63,59.91,405.74,59.76Z" transform="translate(-7.96 -1.07)" fill="#9a999f"/><path d="M350.2,64.14v-3a3.06,3.06,0,0,1,.94,0v8.29a2,2,0,0,1-.73,0,3.64,3.64,0,0,0-.13-0.52,0.38,0.38,0,0,0-.21.19A1.31,1.31,0,0,1,348,69a4.4,4.4,0,0,1-.59-2.9,3.83,3.83,0,0,1,.43-1.65,1.56,1.56,0,0,1,.88-0.81A1.25,1.25,0,0,1,350.2,64.14Zm0,2.39c0-.3,0-0.6,0-0.9a1.64,1.64,0,0,0-.25-0.89,0.7,0.7,0,0,0-1.28,0,2.3,2.3,0,0,0-.2.49,5,5,0,0,0-.14,1.82,2.94,2.94,0,0,0,.32,1.22,0.69,0.69,0,0,0,1.29,0,1.64,1.64,0,0,0,.26-0.89C350.19,67.14,350.2,66.84,350.2,66.54Z" transform="translate(-7.96 -1.07)" fill="#9a999f"/><path d="M388.48,69.42h-0.77a1.79,1.79,0,0,1-.12-0.59,4,4,0,0,1-.37.41,1.34,1.34,0,0,1-2.06-.42,3.25,3.25,0,0,1-.45-1.39,5.53,5.53,0,0,1,.29-2.81,1.55,1.55,0,0,1,1.6-1.1,1.41,1.41,0,0,1,.88.54v-3h0.94C388.48,63.86,388.37,66.62,388.48,69.42Zm-1-2.87c0-.35,0-0.71,0-1.06a1.29,1.29,0,0,0-.38-0.92,0.64,0.64,0,0,0-1,0,1.57,1.57,0,0,0-.35.73,6.1,6.1,0,0,0,0,2.19,2.1,2.1,0,0,0,.3.88,0.67,0.67,0,0,0,1.18,0,1.54,1.54,0,0,0,.29-0.88C387.47,67.21,387.47,66.88,387.47,66.56Z" transform="translate(-7.96 -1.07)" fill="#9a999f"/><path d="M310.16,63.63a2.85,2.85,0,0,1,.75,0,4,4,0,0,1,.12.61,1.54,1.54,0,0,1,1.21-.72,1.39,1.39,0,0,1,1.36,1,5.37,5.37,0,0,1,0,4,1.49,1.49,0,0,1-1.73,1,1.58,1.58,0,0,1-.73-0.51v2c0,0.87,0,.87-1,0.72V63.63Zm1,2.87a4.5,4.5,0,0,0,.12,1.62,0.77,0.77,0,0,0,1.52,0,4.88,4.88,0,0,0,0-3.08,0.81,0.81,0,0,0-.78-0.67,0.86,0.86,0,0,0-.77.69,1.39,1.39,0,0,0-.09.44C311.12,65.82,311.13,66.16,311.13,66.5Z" transform="translate(-7.96 -1.07)" fill="#9a999f"/><path d="M367.14,63.64a2.46,2.46,0,0,1,.82,0,2.7,2.7,0,0,1,.11.61,1.56,1.56,0,0,1,1.13-.72,1.35,1.35,0,0,1,1.22.6A3.17,3.17,0,0,1,371,65.7a5.55,5.55,0,0,1-.22,2.58,1.75,1.75,0,0,1-1.32,1.26,1.32,1.32,0,0,1-1.26-.53v2.72a2.69,2.69,0,0,1-.91.06C367.17,69.06,367.29,66.37,367.14,63.64Zm1,2.81c0,0.33,0,.6,0,0.88a2.23,2.23,0,0,0,.19.87,0.77,0.77,0,0,0,.73.55,0.79,0.79,0,0,0,.72-0.58,5.26,5.26,0,0,0,.18-2.62,1.92,1.92,0,0,0-.3-0.84,0.69,0.69,0,0,0-1.21,0,1.48,1.48,0,0,0-.25.55A6.83,6.83,0,0,0,368.14,66.46Z" transform="translate(-7.96 -1.07)" fill="#9a999f"/><path d="M364.33,61.32l1.79,8a1.8,1.8,0,0,1-.76.07c-0.22,0-.21-0.18-0.25-0.31-0.14-.6-0.27-1.19-0.38-1.79a0.31,0.31,0,0,0-.38-0.3c-0.37,0-.74,0-1.1,0a0.36,0.36,0,0,0-.44.34c-0.1.55-.25,1.09-0.33,1.64a0.43,0.43,0,0,1-.57.43,3.76,3.76,0,0,0-.47,0c0.37-1.63.73-3.21,1.09-4.78,0.23-1,.48-2,0.68-3a0.36,0.36,0,0,1,.45-0.36A6.64,6.64,0,0,0,364.33,61.32Zm-0.56,1.15L363,66.22h1.47Z" transform="translate(-7.96 -1.07)" fill="#9a999f"/><path d="M279,69.41c0-1.24,0-2.43,0-3.63a2.69,2.69,0,0,0-.09-0.89,0.7,0.7,0,0,0-.51-0.53,0.74,0.74,0,0,0-.76.29,1.52,1.52,0,0,0-.3,1c0,1.1,0,2.21,0,3.31,0,0.15,0,.29,0,0.46h-1V63.63h0.76a2.23,2.23,0,0,1,.09.59,1.68,1.68,0,0,1,1.36-.7,1.25,1.25,0,0,1,1.2.82,1.78,1.78,0,0,1,.17.67c0,1.46,0,2.91,0,4.39A2.91,2.91,0,0,1,279,69.41Z" transform="translate(-7.96 -1.07)" fill="#9a999f"/><path d="M383.42,69.42h-0.88a0.71,0.71,0,0,1-.06-0.45q0-1.66,0-3.31a2.32,2.32,0,0,0-.11-0.8,0.65,0.65,0,0,0-.58-0.5,0.73,0.73,0,0,0-.73.35,1.81,1.81,0,0,0-.25,1q0,1.61,0,3.23a1,1,0,0,1,0,.47,3.06,3.06,0,0,1-.9,0c-0.05-1.93,0-3.84-.08-5.78h0.8a2,2,0,0,1,.12.56,1.64,1.64,0,0,1,1.34-.67,1.24,1.24,0,0,1,1.17.75,1.86,1.86,0,0,1,.21.78C383.42,66.5,383.42,67.94,383.42,69.42Z" transform="translate(-7.96 -1.07)" fill="#9a999f"/><path d="M323.29,69.4c-0.78.1-.8,0.09-0.87-0.44a2.88,2.88,0,0,1-.92.55,1.28,1.28,0,0,1-1.58-.87,3,3,0,0,1-.17-1q0-1.92,0-3.84c0-.07,0-0.13,0-0.22h0.86a0.53,0.53,0,0,1,.07.43q0,1.74,0,3.48a2.39,2.39,0,0,0,.1.64,0.67,0.67,0,0,0,.58.56,0.75,0.75,0,0,0,.75-0.4,2,2,0,0,0,.21-1.07c0-1.2,0-2.4,0-3.6a2.15,2.15,0,0,1,.85,0C323.25,63.82,323.34,69.07,323.29,69.4Z" transform="translate(-7.96 -1.07)" fill="#9a999f"/><path d="M343.6,63.63h0.94c-0.36,1.42-.71,2.82-1.07,4.21a12,12,0,0,1-1,2.73A3.19,3.19,0,0,1,341.09,72l-0.38-.78a3.22,3.22,0,0,0,1.31-1.6,1.23,1.23,0,0,0,0-.8c-0.44-1.59-.87-3.18-1.3-4.77a0.82,0.82,0,0,1-.05-0.4,0.22,0.22,0,0,1,.07,0c0.85-.08.85-0.08,1,0.74,0.28,1.18.54,2.36,0.87,3.56Z" transform="translate(-7.96 -1.07)" fill="#9a999f"/><path d="M291.25,66.54a3.76,3.76,0,0,1-.56,2.26,1.62,1.62,0,0,1-2.77,0,4.43,4.43,0,0,1-.49-2.89,3.21,3.21,0,0,1,.53-1.61,1.63,1.63,0,0,1,2.79.06A4,4,0,0,1,291.25,66.54Zm-1,0a3.84,3.84,0,0,0-.24-1.68,0.79,0.79,0,0,0-.71-0.58,0.75,0.75,0,0,0-.7.59,5.15,5.15,0,0,0,0,3.28,0.77,0.77,0,0,0,.76.63,0.8,0.8,0,0,0,.72-0.67A4,4,0,0,0,290.28,66.55Z" transform="translate(-7.96 -1.07)" fill="#9a999f"/><path d="M334,66.56a3.89,3.89,0,0,1,.4-2,1.68,1.68,0,0,1,1.59-1,1.57,1.57,0,0,1,1.5,1.08,4.92,4.92,0,0,1,0,3.82,1.68,1.68,0,0,1-1.61,1.13,1.66,1.66,0,0,1-1.56-1.13A4.05,4.05,0,0,1,334,66.56Zm1,0a3.85,3.85,0,0,0,.21,1.52,0.83,0.83,0,0,0,.74.66,0.75,0.75,0,0,0,.74-0.64,5.23,5.23,0,0,0,0-3.2,0.78,0.78,0,0,0-.74-0.65,0.82,0.82,0,0,0-.74.66A4.32,4.32,0,0,0,334.95,66.6Z" transform="translate(-7.96 -1.07)" fill="#9a999f"/><path d="M399.41,69.42a2.57,2.57,0,0,1-.74,0,2.93,2.93,0,0,1-.14-0.4,0.22,0.22,0,0,0-.1,0,1.31,1.31,0,0,1-1.58.39,1.52,1.52,0,0,1-.87-1.5,2.09,2.09,0,0,1,2.07-2.18l0.36,0a1.26,1.26,0,0,0-.3-1.24,1.33,1.33,0,0,0-1.49,0c-0.36-.57-0.32-0.68.3-0.88a2.61,2.61,0,0,1,1.29-.08,1.57,1.57,0,0,1,1.18,1.65c0,1,0,2,0,3C399.41,68.59,399.41,69,399.41,69.42Zm-0.93-2.92A1.29,1.29,0,0,0,397,68.29a0.66,0.66,0,0,0,1.1.33,1.08,1.08,0,0,0,.32-0.56A5.87,5.87,0,0,0,398.48,66.5Z" transform="translate(-7.96 -1.07)" fill="#9a999f"/><path d="M307.66,65.73c0.22-1.27-.42-1.7-1.77-1.21-0.37-.51-0.33-0.65.25-0.86a2.61,2.61,0,0,1,1.25-.11,1.59,1.59,0,0,1,1.27,1.71c0,1.08,0,2.16,0,3.23,0,0.3,0,.59,0,0.92a2.43,2.43,0,0,1-.79,0L307.83,69a0.56,0.56,0,0,0-.13.07,1.3,1.3,0,0,1-1.53.44,1.45,1.45,0,0,1-.91-1.34,2.1,2.1,0,0,1,2.09-2.37Zm0.11,1.46c0-.2,0-0.36,0-0.53a0.2,0.2,0,0,0-.26-0.22,1.32,1.32,0,0,0-1.3,1.7,0.68,0.68,0,0,0,.61.65,0.76,0.76,0,0,0,.8-0.56A2.47,2.47,0,0,0,307.77,67.18Z" transform="translate(-7.96 -1.07)" fill="#9a999f"/><path d="M270.74,68.55a1.57,1.57,0,0,1,.18.6c0.06,0.19-.11.23-0.23,0.27a2.52,2.52,0,0,1-3.08-1.18,6.15,6.15,0,0,1-.55-3.5,4.46,4.46,0,0,1,.87-2.51,2.53,2.53,0,0,1,2.55-.94,0.63,0.63,0,0,1,.45.21l-0.19.71a7.6,7.6,0,0,0-.88-0.12,1.66,1.66,0,0,0-1.3.88,3.35,3.35,0,0,0-.44,1.31,7.39,7.39,0,0,0,.12,2.84A1.8,1.8,0,0,0,270.74,68.55Z" transform="translate(-7.96 -1.07)" fill="#9a999f"/><path d="M406.36,68.6c0.25,0.68.25,0.69-.4,0.85a2,2,0,0,1-2.71-1.64,4.67,4.67,0,0,1,.31-3.3,1.65,1.65,0,0,1,1.32-1,1.52,1.52,0,0,1,1.71,1.25,4.34,4.34,0,0,1,.15,1.83h-2.66a2.24,2.24,0,0,0,.52,1.83A1.68,1.68,0,0,0,406.36,68.6Zm-0.54-2.72a2.08,2.08,0,0,0-.28-1.3,0.6,0.6,0,0,0-1-.12,2.07,2.07,0,0,0-.48,1.42h1.74Z" transform="translate(-7.96 -1.07)" fill="#9a999f"/><path d="M298.57,66.69c0.11,1.89.46,2.19,2.3,1.93a0.55,0.55,0,0,1,.07.13c0,0.16.06,0.31,0.09,0.47A2.13,2.13,0,0,1,297.81,68a4.88,4.88,0,0,1,.19-3.36,1.74,1.74,0,0,1,1.28-1.1,1.46,1.46,0,0,1,1.71.95,4.38,4.38,0,0,1,.3,1.88c0,0.26-.17.27-0.36,0.26h-2A0.53,0.53,0,0,0,298.57,66.69Zm1.75-.81a1.86,1.86,0,0,0-.16-1.1,0.74,0.74,0,0,0-.63-0.51,0.67,0.67,0,0,0-.64.43,1.86,1.86,0,0,0-.27,1.18h1.7Z" transform="translate(-7.96 -1.07)" fill="#9a999f"/><path d="M274.74,68.61a1.47,1.47,0,0,1,.19.59,2.09,2.09,0,0,1-3-.64A4.41,4.41,0,0,1,272,64.4a1.56,1.56,0,0,1,1.67-.86,1.52,1.52,0,0,1,1.25,1.15,4.57,4.57,0,0,1,.23,1.61,0.29,0.29,0,0,1-.36.35c-0.76,0-1.52,0-2.27,0C272.16,68.13,273.1,69,274.74,68.61Zm-0.53-2.72a1.85,1.85,0,0,0-.26-1.28,0.61,0.61,0,0,0-1.07,0,1.94,1.94,0,0,0-.38,1.32h1.71Z" transform="translate(-7.96 -1.07)" fill="#9a999f"/><path d="M315.89,66.71a2.19,2.19,0,0,0,.51,1.74,1.64,1.64,0,0,0,1.76.15c0.28,0.65.27,0.69-.36,0.85a2.05,2.05,0,0,1-2.74-1.65,4.69,4.69,0,0,1,.3-3.27,1.65,1.65,0,0,1,1.31-1,1.5,1.5,0,0,1,1.69,1.16,4.65,4.65,0,0,1,.21,1.69c0,0.24-.15.25-0.32,0.25l-2.29,0Zm0-.82h1.78a2.62,2.62,0,0,0-.26-1.2,0.63,0.63,0,0,0-1.15-.08A2.11,2.11,0,0,0,315.89,65.88Z" transform="translate(-7.96 -1.07)" fill="#9a999f"/><path d="M355.64,68.57a1.74,1.74,0,0,0,.06.27c0.14,0.33,0,.49-0.32.59a2.1,2.1,0,0,1-2.91-1.71,5,5,0,0,1,.16-2.81,2.3,2.3,0,0,1,.59-0.92,1.5,1.5,0,0,1,2.44.39,3.75,3.75,0,0,1,.28,2.27h-2.58C353.21,68,353.82,69.26,355.64,68.57Zm-0.54-2.68a2.23,2.23,0,0,0-.29-1.25,0.62,0.62,0,0,0-1.13,0,2.31,2.31,0,0,0-.37,1.29h1.78Z" transform="translate(-7.96 -1.07)" fill="#9a999f"/><path d="M378.22,68.6a1.3,1.3,0,0,1,.18.63,2.12,2.12,0,0,1-3.19-1.15,4.54,4.54,0,0,1,.34-3.75,1.57,1.57,0,0,1,1.66-.79,1.48,1.48,0,0,1,1.19,1.1,3.73,3.73,0,0,1,.18,2h-2.66a2.44,2.44,0,0,0,.53,1.82A1.63,1.63,0,0,0,378.22,68.6Zm-0.54-2.71a1.81,1.81,0,0,0-.29-1.33,0.6,0.6,0,0,0-1-.06,1.75,1.75,0,0,0-.41,1.39h1.67Z" transform="translate(-7.96 -1.07)" fill="#9a999f"/><path d="M296.15,69.42h-1V62.17h-1.43a2.06,2.06,0,0,1,0-.82h3.86a2.44,2.44,0,0,1,0,.79h-1.46v7.27Z" transform="translate(-7.96 -1.07)" fill="#9a999f"/><path d="M391.92,69.42a1.18,1.18,0,0,1,.12-0.86c0.66-1.27,1.31-2.54,2-3.81a0.3,0.3,0,0,0,0-.31h-1.89a2.53,2.53,0,0,1,0-.79h3.07a1.36,1.36,0,0,1-.12.92c-0.68,1.28-1.33,2.56-2,3.85a0.26,0.26,0,0,0,0,.27h2.13a2,2,0,0,1,0,.74h-3.29Z" transform="translate(-7.96 -1.07)" fill="#9a999f"/><path d="M326.89,68.74c0.11,0.76.09,0.79-.61,0.79a1.18,1.18,0,0,1-1.3-1.37c0-1.1,0-2.21,0-3.32,0-.15,0-0.29,0-0.46l-0.69,0a1.8,1.8,0,0,1,0-.65,5.37,5.37,0,0,1,.71-0.12,0.89,0.89,0,0,1,.95-1.24V63.6H327a1.77,1.77,0,0,1,0,.7c-0.33.11-.68,0-1,0.08a0.86,0.86,0,0,0-.06.52c0,0.94,0,1.88,0,2.82S326,68.67,326.89,68.74Z" transform="translate(-7.96 -1.07)" fill="#9a999f"/><path d="M283.61,63.61v0.74h-1.06a2.16,2.16,0,0,0,0,.77c0,1-.06,2,0.05,2.94a0.56,0.56,0,0,0,.69.65c0.3,0,.28.17,0.3,0.37s0,0.39-.27.44a1.28,1.28,0,0,1-1.67-1.4c0-1.09,0-2.18,0-3.27,0-.15,0-0.29,0-0.43a5.06,5.06,0,0,0-.7-0.12,2.43,2.43,0,0,1,0-.62,0.43,0.43,0,0,1,.12-0.06c0.6-.05.62-0.05,0.6-0.64a0.42,0.42,0,0,1,.34-0.51,1.5,1.5,0,0,1,.56-0.15,4.47,4.47,0,0,1,0,1,0.26,0.26,0,0,0,.31.31C283.05,63.6,283.31,63.61,283.61,63.61Z" transform="translate(-7.96 -1.07)" fill="#9a999f"/><path d="M401,63.63h0.9a0.67,0.67,0,0,1,.07.45q0,2.62,0,5.24a4,4,0,0,1-.21,1.37,1.81,1.81,0,0,1-1.46,1.17,0.2,0.2,0,0,1-.28-0.2l-0.07-.53c1-.23,1-1,1-1.85,0-1.72,0-3.44,0-5.16C401,64,401,63.82,401,63.63Z" transform="translate(-7.96 -1.07)" fill="#9a999f"/><path d="M357.2,69.44V61.12a3.87,3.87,0,0,1,.92,0v8.29A3.83,3.83,0,0,1,357.2,69.44Z" transform="translate(-7.96 -1.07)" fill="#9a999f"/><path d="M333.18,68.63c0.19,0.76.13,0.84-.61,0.88a1.93,1.93,0,0,1-2.14-1.44,4.53,4.53,0,0,1,.07-3.09,2.13,2.13,0,0,1,2.14-1.46c0.75,0,.85.2,0.49,0.91a1.26,1.26,0,0,0-1.45.3,1.88,1.88,0,0,0-.31.57,3.81,3.81,0,0,0-.12,2.06A1.38,1.38,0,0,0,333.18,68.63Z" transform="translate(-7.96 -1.07)" fill="#9a999f"/><path d="M285.39,63.62a2.86,2.86,0,0,0,.14.71,1.37,1.37,0,0,1,1.33-.79,2.89,2.89,0,0,1,0,.89,1.53,1.53,0,0,0-1.32,1.87c0,0.9,0,1.8,0,2.7,0,0.13,0,.27,0,0.41a3.66,3.66,0,0,1-.93,0V63.64A2.37,2.37,0,0,1,285.39,63.62Z" transform="translate(-7.96 -1.07)" fill="#9a999f"/><path d="M303.42,69.42h-0.95c-0.06-1.93.06-3.84-.09-5.78a2.58,2.58,0,0,1,.87,0l0,0.79a1.43,1.43,0,0,1,1.41-.88,3.43,3.43,0,0,1,0,.92,1.34,1.34,0,0,0-1.31,1.5c0,1,0,2,0,3C303.42,69.09,303.42,69.24,303.42,69.42Z" transform="translate(-7.96 -1.07)" fill="#9a999f"/><path d="M374.49,64.48a1.26,1.26,0,0,0-1.29,1.34c0,1,0,2.1,0,3.15a0.74,0.74,0,0,1-.06.45,3.48,3.48,0,0,1-.88,0c-0.07-1.92.06-3.83-.09-5.75a2,2,0,0,1,.82,0,3,3,0,0,1,.11.77,1.39,1.39,0,0,1,1.42-.83v0.92Z" transform="translate(-7.96 -1.07)" fill="#9a999f"/><path d="M390.86,69.42a3.6,3.6,0,0,1-.91,0V63.64h0.91v5.78Z" transform="translate(-7.96 -1.07)" fill="#9a999f"/><path d="M329,69.42a3.39,3.39,0,0,1-.87,0c-0.08-.31-0.09-5.26,0-5.78a3.11,3.11,0,0,1,.89,0v5.79Z" transform="translate(-7.96 -1.07)" fill="#9a999f"/></svg>