<svg id="Capa_1" data-name="Capa 1" xmlns="http://www.w3.org/2000/svg" viewBox="0 0 112.05 122.1"><title>favicon</title><path d="M135.27,100.35c2.13,2.32.88,4.08-1.05,5.82-0.87.78-.69,1.9-0.35,2.93a12.8,12.8,0,0,1,.65,6.95,10.29,10.29,0,0,1-10.25,7.59,52,52,0,0,0-11.44.93c-3.81.71-6.4,3.7-6.06,7a0.93,0.93,0,0,1-1.13,1.13c-2.76,0-5.52,0-8.28,0a2,2,0,0,1-1.75-.85,41.44,41.44,0,0,1-4.35-6.46c-1.65-3.33-.86-6.58,1.13-9.51s4.71-3.6,7.91-2.93,6.18,1.61,9.42,1.58a8.1,8.1,0,0,0,3.78-1,4.16,4.16,0,0,0,2.39-3.73,10,10,0,0,1,.3-1.89,3,3,0,0,1,3-2.39c2.17-.07,2.93-1,2.52-3.16a1.32,1.32,0,0,1,1.11-1.82c1.75-.48,2.19-1.46,1.56-3.19a13,13,0,0,1-.82-3.61c-0.11-1.6.41-2.61,1.93-3,3-.82,4.39-3,1.92-6.41a31,31,0,0,1-2.76-4.76,6.53,6.53,0,0,1-.38-5.23,46.59,46.59,0,0,1,1.54-4.4c2.69-5.75,2.77-11.6,1.15-17.65-2-7.4-5-14.25-10.24-19.93A40.89,40.89,0,0,0,95,20.2c-13.93-3.09-26.76,0-38.38,7.93-5.79,4-9.4,9.85-12,16.29C40.59,54.64,41,65,44.25,75.29A79.61,79.61,0,0,0,54.47,95.52c2.82,4.19,4.51,8.84,4.07,14a46.25,46.25,0,0,1-2.21,9.18c-1.23,4.13-2.73,8.17-4.28,12.19a3.59,3.59,0,0,1-4.74,1.63,0.92,0.92,0,0,1-.24-1.18c0.32-1.28.69-2.54,1.06-3.81a43.64,43.64,0,0,0,2.08-16.17,27.43,27.43,0,0,0-4-12.18,90.92,90.92,0,0,1-11.06-25C32.33,63,32.3,52,36.82,41.17c5.64-13.47,15.75-22.26,29.3-27.23,15.07-5.53,29.5-3.54,43.41,4,8.92,4.82,16,11.47,20.58,20.61,4,7.94,5.6,16.18,3.13,24.93-0.4,1.44.25,2.57,1,3.67l8.35,12c0.57,0.82,1.13,1.65,1.69,2.47a5.55,5.55,0,0,1,1,3.27A2.36,2.36,0,0,1,144.15,87,34.4,34.4,0,0,1,139,89.84c-2.47,1.13-2.85,2.12-1.3,4.42a4.27,4.27,0,0,1-1.17,5.24A2.71,2.71,0,0,0,135.27,100.35Z" transform="translate(-33.21 -10.79)" fill="#20417d"/><path d="M67.56,66.39c0.64-.75,1.33-1.44,2-2.15l5.31-5.55,0.44-.48a1,1,0,0,0,.09-1.5,12.21,12.21,0,0,0-1.93-2,19.71,19.71,0,0,0-7.33-3.82l-0.1,0,0,0c0.29-.78.6-1.58,0.89-2.38,0.7-1.94,1.37-3.89,1.88-5.89A19.94,19.94,0,0,0,69.14,40a5.47,5.47,0,0,0,0-1.26,3.13,3.13,0,0,0-1.27-2.08,3.38,3.38,0,0,0-1.53-.75,0.92,0.92,0,0,0-.83.21,4,4,0,0,0-.35.33,3.15,3.15,0,0,1-2.53,1,9.25,9.25,0,0,0-4.32,1,0.37,0.37,0,0,0-.18.2,52.52,52.52,0,0,0-2.69,7.26,0.26,0.26,0,0,1-.09.15c0.07-.58.13-1.15,0.21-1.71s0.15-1.14.24-1.71c0.23-1.44.49-2.88,0.81-4.31,0.07-.31.15-0.62,0.23-0.93A0.28,0.28,0,0,1,57,37.2a24.13,24.13,0,0,0,2.86-1.41,4.69,4.69,0,0,1,2.57-.63,0.36,0.36,0,0,0,.23-0.1,4,4,0,0,1,3.9-.4,4.85,4.85,0,0,1,1.89,1.47l0.16,0.21c0.32-.37.64-0.73,0.94-1.09a0.21,0.21,0,0,1,.29-0.08h0c0.52,0.23,1,.46,1.59.66a0.53,0.53,0,0,0,.81-0.24l0.13-.16a1.38,1.38,0,0,1-.06.73,0.42,0.42,0,0,1-.45.23,2.8,2.8,0,0,1-.84-0.2L70.9,36.1a19.16,19.16,0,0,1-1.16,1.63,8.75,8.75,0,0,1,.7,1.2,6.12,6.12,0,0,1,.38,4.13c-0.43,1.76-.88,3.52-1.33,5.28A15.66,15.66,0,0,1,69,49.91a3.35,3.35,0,0,0,.63.17A13.4,13.4,0,0,1,74,52a11.41,11.41,0,0,1,3.66,4.26l0.13,0.26a1.3,1.3,0,0,1-.17,1.61,8.78,8.78,0,0,1-1.16,1.06L69.28,65l-1.71,1.4Z" transform="translate(-33.21 -10.79)" fill="#dbbf3a"/><path d="M48.67,70.37a12.72,12.72,0,0,1,1.8-3.11,24.84,24.84,0,0,1,3.23-3.42,22.16,22.16,0,0,1,2-1.42,8.9,8.9,0,0,0,1.77-1.52A2,2,0,0,0,58,59.13c0.63-.39,1.26-0.78,1.87-1.2a13,13,0,0,0,2.57-2.16,4.07,4.07,0,0,0,.76-1.26,1.1,1.1,0,0,1,.07-0.15c1,0.45,2.08.89,3.12,1.39a11.09,11.09,0,0,1-1.77,2,18.25,18.25,0,0,1-4.32,2.6,0.24,0.24,0,0,0-.17.12A2.51,2.51,0,0,1,59,61.61a5.85,5.85,0,0,1-1.11.6,12.74,12.74,0,0,0-3.17,2,34.8,34.8,0,0,0-6,6.13l-0.06.06Z" transform="translate(-33.21 -10.79)" fill="#dbbf3a"/><path d="M78.16,38.62c-0.53,1-1.12,1.89-1.71,2.81-1,1.59-2,3.17-3.14,4.69a2.8,2.8,0,0,1-.72.76,0.47,0.47,0,0,1-.71-0.07l-1-.92a0.21,0.21,0,0,1-.08-0.24,20.63,20.63,0,0,0,.81-4l0,0c0.42,0.71.75,1.47,1.12,2.23,1.82-1.72,3.66-3.4,5.33-5.25Z" transform="translate(-33.21 -10.79)" fill="#dbbf3a"/><path d="M67,31.73a3.5,3.5,0,0,1,.71-2.64,3,3,0,0,1,2.08-1,4.74,4.74,0,0,1,2.37.36A2.25,2.25,0,0,1,73.49,31c-0.07.33-.13,0.65-0.21,1a0.86,0.86,0,0,0,0,.57c0.1,0.23.2,0.45,0.28,0.68a0.26,0.26,0,0,1-.26.4H73.06a0.29,0.29,0,0,1-.16,0,2.6,2.6,0,0,0,.26-0.11,0.26,0.26,0,0,0,.12-0.46c-0.06-.08-0.12-0.16-0.19-0.24a1.41,1.41,0,0,1-.31-1.3,3.29,3.29,0,0,0,0-1.34,1,1,0,0,0-.28-0.52,3.46,3.46,0,0,0-2.93-1,2.3,2.3,0,0,0-2,1.23,4.3,4.3,0,0,0-.4,1C67.14,31.2,67.09,31.47,67,31.73Z" transform="translate(-33.21 -10.79)" fill="#dbbf3a"/><path d="M111.09,49.48a8.57,8.57,0,0,1-2.64,6.5,9.6,9.6,0,0,0-2.68,6.29,7.26,7.26,0,0,1-5.91,6.59,2,2,0,0,1-1.77,0A1,1,0,0,1,97.54,68a0.86,0.86,0,0,1,.64-0.66c0.88-.42,1.9-0.2,2.8-0.7a5.37,5.37,0,0,0,3-4.94,9.35,9.35,0,0,1,2.42-6c1.11-1.39,2.34-2.66,2.72-4.57A9.57,9.57,0,0,0,105.57,42a9,9,0,0,0-5.06-1.92c-4.66-.12-8.93,2.26-10.08,7.59a5,5,0,0,0-.26,1.71,0.92,0.92,0,0,1-.85,1.14,1.05,1.05,0,0,1-.91-1.17,10.8,10.8,0,0,1,1.25-4.75,11.27,11.27,0,0,1,20.76,1.25A7.45,7.45,0,0,1,111.09,49.48Z" transform="translate(-33.21 -10.79)" fill="#97b14c"/><path d="M105.65,50.58c-1.24-.44-1-1.47-1.12-2.2a4.85,4.85,0,0,0-5.24-3.67,4.71,4.71,0,0,0-4.47,4.44c0,0.7-.28,1.4-1,1.36S92.95,49.73,93,49a6.71,6.71,0,0,1,4.71-5.78c2.45-.9,4.67-0.15,6.58,1.59a6.58,6.58,0,0,1,2.16,4.46A1,1,0,0,1,105.65,50.58Z" transform="translate(-33.21 -10.79)" fill="#97b14c"/><path d="M110.1,33.28a1.1,1.1,0,0,1,1.5-.26,18.13,18.13,0,0,1,4.32,4.12,23.1,23.1,0,0,1,3.33,6.22,0.9,0.9,0,0,1-.4,1.26,0.84,0.84,0,0,1-1.15-.54c-0.4-.88-0.69-1.8-1.1-2.67a19.11,19.11,0,0,0-5.74-6.94C110.11,33.87,109.85,33.65,110.1,33.28Z" transform="translate(-33.21 -10.79)" fill="#97b14c"/><path d="M114.92,45.55a1,1,0,0,1-1.71-.28c0-.07-0.05-0.14-0.08-0.22a13.54,13.54,0,0,0-5-6.81c-0.48-.34-1-0.82-0.46-1.42s1-.35,1.52.05a16.72,16.72,0,0,1,5.75,7.94A0.64,0.64,0,0,1,114.92,45.55Z" transform="translate(-33.21 -10.79)" fill="#97b14c"/><path d="M93.93,62.16h0a0.76,0.76,0,0,1-1.06,0l-3-3a0.76,0.76,0,0,1,0-1.07l0,0,0,0a0.76,0.76,0,0,1,1,0l2.93,3a0.76,0.76,0,0,1,0,1.07h0Z" transform="translate(-33.21 -10.79)" fill="#97b14c"/><circle cx="67.18" cy="40.95" r="0.81" fill="#97b14c"/><circle cx="62.29" cy="45.79" r="0.81" fill="#97b14c"/><circle cx="55.25" cy="52.83" r="0.81" fill="#97b14c"/><circle cx="50.65" cy="57.39" r="0.81" fill="#97b14c"/><path d="M86.61,86.22a0.58,0.58,0,0,1-.25,1c-1.92.52-2,1.51-2.41,3.8-0.45,2.66-.11,5.36-0.35,8-0.23,2.5-1.7,4.21-4.08,4.4a0.56,0.56,0,0,1-.61-0.59c0-.13,0-0.26,0-0.39,0-3.62,0-7.24,0-10.86a14.06,14.06,0,0,1,.21-2,1.27,1.27,0,0,1,1-1.12c0.37-.09.77-0.16,1.17-0.23a0.56,0.56,0,0,0,.47-0.6v0a0.56,0.56,0,0,0-.48-0.5,7.25,7.25,0,0,0-.87,0c-2.14,0-4.28.08-6.42-.14-0.93-.09-1.23.29-1,1.17a0.37,0.37,0,0,0,.14.08c2.1,0.15,2.5.56,2.5,2.62V102.5a2.09,2.09,0,0,0,0,.28,0.58,0.58,0,0,1-.54.61h-0.1c-2.34-.29-3.57-1.68-3.88-4.14-0.23-1.82-.11-3.64-0.16-5.45a24.07,24.07,0,0,0-.47-4.07,2.69,2.69,0,0,0-2.3-2.51,0.58,0.58,0,0,1-.24-1,14.4,14.4,0,0,1,7.92-3.32C79.44,82.47,84.56,84.18,86.61,86.22Z" transform="translate(-33.21 -10.79)" fill="#a13f80"/><path d="M67.78,93.87a19.52,19.52,0,0,0,.52,5.69A6,6,0,0,0,72.6,104c0.79,0.22,1.59.43,2.4,0.59a0.69,0.69,0,0,1,.71.8c0,1.38,0,2.75,0,4.13a2.23,2.23,0,0,1-3.21,2.09,14.47,14.47,0,0,1-9.83-12,14.13,14.13,0,0,1,3-11,1.23,1.23,0,0,1,1.28-.37,0.88,0.88,0,0,1,.71.91,11.53,11.53,0,0,1,.22,2.57C67.76,92.46,67.78,93.17,67.78,93.87Z" transform="translate(-33.21 -10.79)" fill="#a13f80"/><path d="M92,97.79a14.75,14.75,0,0,1-7.37,12.57A7,7,0,0,1,81,111.75a1.57,1.57,0,0,1-1.7-1.24,6.56,6.56,0,0,1-.27-2.82,5.3,5.3,0,0,0-.07-2,0.78,0.78,0,0,1,.79-1.09,12.6,12.6,0,0,0,3.45-1A5,5,0,0,0,86,100.63,13.23,13.23,0,0,0,87,96c0-1.92,0-3.84,0-5.76a2.85,2.85,0,0,1,.1-0.93,1,1,0,0,1,2-.47,13.8,13.8,0,0,1,2.54,5.38A12.65,12.65,0,0,1,92,97.79Z" transform="translate(-33.21 -10.79)" fill="#a13f80"/><path d="M120.48,85c-1-.69-2-0.35-3.19.87s-1.84,2.51-3.11,3.45c-0.56.42-1.14,0.87-1.82,0.45a1.74,1.74,0,0,1-.54-1.92c0.33-2.8,2.17-5,3-7.58,0.54-1.62,1.41-3.12,1.53-4.88a1.41,1.41,0,0,0-.84-1.45,1.07,1.07,0,0,0-1.34.57,4.73,4.73,0,0,0-.61,1c-1.11,2.42-1.79,5-3.14,7.35a1,1,0,0,1-1.25.71,1,1,0,0,1-.69-1.25c0.47-2.73.2-5.52,0.76-8.23a3.83,3.83,0,0,0-.41-3,1.1,1.1,0,0,0-2.06.14,6.29,6.29,0,0,0-.54,2.48c-0.18,2.69-.33,5.37-0.56,8.05a1.29,1.29,0,0,1-1,1.45A1.11,1.11,0,0,1,103.56,82c0-.26-0.29-0.5-0.33-0.76-0.42-2.32-1.11-4.58-1.67-6.86a6.75,6.75,0,0,0-.82-1.7,1,1,0,0,0-1.27-.16A1.19,1.19,0,0,0,99,73.9c0.5,3.13,1.19,6.21,1.88,9.3,0.1,0.42.37,1-.33,1.17a1.09,1.09,0,0,1-1.54-.5,17.71,17.71,0,0,0-1.27-2c-0.84-1.27-1.43-2.74-2.69-3.73-0.44-.35-0.8-0.91-1.36-0.45s-0.28,1.08,0,1.64c0.8,1.39,1.5,2.84,2.39,4.18a11.85,11.85,0,0,1,1.72,4.74c0.26,1.59.12,3.23,0.66,4.78h0a12.28,12.28,0,0,0,1.53,5.17,4.83,4.83,0,0,0,1.86,1.72,1.23,1.23,0,0,0,1.85-1.06V93.41A1.39,1.39,0,0,0,102.39,92h-1.58a1.39,1.39,0,0,1-1.39-1.39h0a1.39,1.39,0,0,1,1.39-1.39H110a1.39,1.39,0,0,1,1.39,1.39h0A1.39,1.39,0,0,1,110,92h-1.58A1.39,1.39,0,0,0,107,93.41v5.78a1.14,1.14,0,0,0,1.65,1,13.69,13.69,0,0,0,5.12-4.88A34.63,34.63,0,0,1,117,91.09c1.36-1.47,2.91-2.79,3.78-4.67A1,1,0,0,0,120.48,85Z" transform="translate(-33.21 -10.79)" fill="#5f9eb2"/><path d="M105.42,100.24a5.11,5.11,0,1,0,5.11,5.11,5.11,5.11,0,0,0-5.11-5.11h0Zm0,7.39a2.28,2.28,0,1,1,2.28-2.28h0a2.28,2.28,0,0,1-2.28,2.28h0Z" transform="translate(-33.21 -10.79)" fill="#5f9eb2"/></svg>