<svg id="Capa_1" data-name="Capa 1" xmlns="http://www.w3.org/2000/svg" viewBox="0 0 338.57 85.99"><defs><style>.cls-1{fill:#11417d;}.cls-2{fill:#ab1577;}.cls-3{fill:#5e9fb2;}.cls-4{fill:#97b14a;}.cls-5{fill:#dbbf2d;}.cls-6{fill:#98989d;}.cls-7{fill:#fefefe;}</style></defs><title>Agilmente_logo</title><path class="cls-1" d="M262.53,325.78a56.16,56.16,0,0,1,1.43-5.61c1.24-5.58.72-10.78-2.4-15.75a47.55,47.55,0,0,1-7.08-18.66c-2-13.74,4.76-26,17.4-31.66,11.74-5.24,22.69-3.27,32.93,3.89a26.3,26.3,0,0,1,11.25,17.84,16.2,16.2,0,0,1-.38,7.13,3.16,3.16,0,0,0,.55,2.9q2.83,4,5.62,8.06a8.42,8.42,0,0,1,.84,1.44,2,2,0,0,1-.87,2.86c-1,.58-2,1.07-3,1.57s-1.33,1.09-.83,2.19c0.93,2,.73,2.78-1.24,4.16,1.19,1.35.61,2.44-.56,3.45a1.6,1.6,0,0,0-.32,1.88,7.91,7.91,0,0,1,.44,4.12,6.14,6.14,0,0,1-5.85,4.79A35.11,35.11,0,0,0,303,321c-2.43.54-3.45,1.64-3.7,4.14a0.77,0.77,0,0,1-.89.84c-1.6,0-3.2,0-4.8,0a1.46,1.46,0,0,1-1.32-.68c-0.84-1.26-1.78-2.47-2.53-3.78a5.48,5.48,0,0,1,4.2-7.84,9.22,9.22,0,0,1,2.93.52,15.77,15.77,0,0,0,4.38.6,3.32,3.32,0,0,0,3.62-3.31,2.14,2.14,0,0,1,2.28-2.22,1.27,1.27,0,0,0,1.31-1.71,1,1,0,0,1,.82-1.39,1.2,1.2,0,0,0,.84-1.7c-0.11-.38-0.29-0.75-0.38-1.13-0.51-2.16-.35-2.47,1.66-3.39,1.33-.61,1.67-1.69.89-3.06-0.55-1-1.16-1.91-1.74-2.86a5,5,0,0,1-.35-4.58,38.22,38.22,0,0,0,1.89-5.54c0.72-3.51-.24-6.82-1.3-10.1-4.69-14.46-19.63-19.88-31.84-16.7-4.88,1.27-9.54,3.09-13,7-6.4,7.23-8,15.61-5.6,24.83a44.17,44.17,0,0,0,6.51,13.79c2.53,3.73,3.55,7.68,2.18,12.14-1,3.13-1.95,6.25-3.1,9.31C265.26,326.08,264.77,326.33,262.53,325.78Z" transform="translate(-254.14 -251.13)"/><path class="cls-1" d="M443.17,298c2-.41,2.85-1.34,3.12-3.52,0.66-5.39,1.28-10.79,1.91-16.18,0.42-3.61.82-7.22,1.24-10.83a1.25,1.25,0,0,1,.71-1.11l14.22,26.7L478,266.27a2,2,0,0,1,.7,1.64q1.56,13.27,3.1,26.53a3.42,3.42,0,0,0,3.34,3.42,1.14,1.14,0,0,1,1.15.57,89.42,89.42,0,0,0-10.26-.13,1,1,0,0,1,0-.26c2-.56,2.18-1.93,2-3.73-0.7-6.23-1.29-12.47-1.93-18.71a4.82,4.82,0,0,0-.16-0.55l-2.59,5L464.6,297a4.63,4.63,0,0,1-.22.42c-0.25.39-.38,1-1,0.91a1.22,1.22,0,0,1-.88-0.89q-1.6-3-3.19-6L451,275.57a12.34,12.34,0,0,0-.52,3.71q-0.71,7.15-1.3,14.32c-0.25,3.12-.11,3.29,2.6,4.57-0.16.42-.5,0.28-0.79,0.25a31.23,31.23,0,0,0-6.82,0c-0.39.05-.82,0.15-1-0.39h0Z" transform="translate(-254.14 -251.13)"/><path class="cls-1" d="M539.67,299.1c-8.56-8.94-16.83-18.07-25.34-27a1.46,1.46,0,0,0-.23,1.26q0,10.14,0,20.27c0,3.08.52,3.74,3.48,4.42a0.67,0.67,0,0,1,.41.28c-3.26,0-6.52-.26-9.69.21-0.14-.35-0.05-0.42.06-0.47,2.67-1.06,3-1.56,3-4.45q0-12.53,0-25.07a3.34,3.34,0,0,1,.41-2.06l25.74,27a1,1,0,0,0,.2-1q0-10.38,0-20.75c0-2.36-.6-3.11-2.91-3.66-0.38-.09-0.81,0-0.88-0.75a45.17,45.17,0,0,0,9.28,0c0.11,0.67-.28.68-0.63,0.76a2.5,2.5,0,0,0-2.24,2.65c0,0.36,0,.72,0,1.08q0,12.71,0,25.43A2.1,2.1,0,0,1,539.67,299.1Z" transform="translate(-254.14 -251.13)"/><path class="cls-2" d="M402.18,274.75a1,1,0,0,1-.73-0.76c-0.74-3.36-3.22-4.67-6.26-5.28a17.88,17.88,0,0,0-11.47,1.14c-4.82,2.3-7,6.35-7.33,11.49A14.89,14.89,0,0,0,380.25,293c2.79,3,6.32,4,10.22,4.23a24.75,24.75,0,0,0,5.14-.16c2.33-.37,2.95-1.07,2.94-3.37,0-2.12,0-4.24,0-6.36,0-2.47-.48-3-2.91-3.59a1.14,1.14,0,0,1-1-.6c3.68-.1,7.2.12,10.71-0.11a0.59,0.59,0,0,1-.62.69c-1.84.44-2.29,1.79-2.29,3.44,0,2.56,0,5.12,0,7.68,0,1.87-.51,2.69-2.32,3.12-6.31,1.5-12.62,1.55-18.74-.76-5.24-2-7.61-6.48-8.69-11.55-1.76-8.28,3-15.43,11.55-17.87,5.11-1.46,10.29-1.13,15.45-.36,3,0.45,3.07.54,2.83,3.56A17.73,17.73,0,0,1,402.18,274.75Z" transform="translate(-254.14 -251.13)"/><path class="cls-2" d="M348.38,298.34h-9.66a1.78,1.78,0,0,1,1.11-.54,4.9,4.9,0,0,0,3.88-3.35Q349,281.22,354.18,268c0.17-.44.17-1.16,0.87-1.12s0.59,0.68.77,1.09q5.63,13.27,11.24,26.55c0.81,1.91,2,3.35,4.32,3.42a4.94,4.94,0,0,1,.87.2c-0.83.41-8.4,0.44-9.6,0.08a0.42,0.42,0,0,1,0-.21c1.35-1,1.32-1,.62-2.67-1.1-2.57-2.17-5.14-3.19-7.74a1.72,1.72,0,0,0-1.89-1.25c-2.52.06-5,0-7.55,0a1.47,1.47,0,0,0-1.67,1.15c-0.69,2.12-1.51,4.2-2.28,6.3C345.67,296.57,345.74,296.8,348.38,298.34Zm10.45-13.66-4.36-11.61-0.31.07L350,284.77C353.08,284.78,355.87,284.9,358.83,284.68Z" transform="translate(-254.14 -251.13)"/><path class="cls-1" d="M486.38,267.56a1.78,1.78,0,0,1,1.36-.24h14.64c0.28,0,.56,0,0.84,0,1.72-.1,1.71-0.11,1.34,1.66-0.11.54-.14,1.1-0.22,1.66a2.79,2.79,0,0,1-.27,1.5,0.59,0.59,0,0,1-.62-0.6c-0.41-1.83-1.82-2.35-3.4-2.46s-3.28,0-4.92,0a1.2,1.2,0,0,0-1.39,1.38c0,3.12,0,6.24,0,9.36a1.2,1.2,0,0,0,1.44,1.42c1,0,2.08,0,3.12,0,2-.06,4,0.5,5.75-1.24a22.71,22.71,0,0,0-.57,6.14,1,1,0,0,1-.69-1c-0.49-1.66-1.15-2.28-2.87-2.36s-3.2,0-4.8,0a1.09,1.09,0,0,0-1.21,1.28c0,3.56,0,7.12,0,10.68a1.75,1.75,0,0,0,1.32,1.91,13.23,13.23,0,0,0,7.09,0,3.76,3.76,0,0,0,2.82-3,3.34,3.34,0,0,1,.37-0.68,4.38,4.38,0,0,1,.17,2.89c-0.4,2.45-.64,2.61-3.1,2.61h-14a1.64,1.64,0,0,1-1.27-.22,0.39,0.39,0,0,1,0-.19c2.25-.87,2.23-0.87,2.25-3.27q0.07-12.17.17-24.35a1.94,1.94,0,0,0-1.67-2.22A3,3,0,0,1,486.38,267.56Z" transform="translate(-254.14 -251.13)"/><path class="cls-1" d="M573.35,267.51a1.42,1.42,0,0,1,1.22-.18c4.84,0,9.68,0,14.52,0a5.45,5.45,0,0,0,2-.21c0.39-.15.92,0,0.71,0.55a15.35,15.35,0,0,0-.68,4.12,1.31,1.31,0,0,1-.17.38,0.72,0.72,0,0,1-.64-0.68c-0.41-1.78-1.8-2.28-3.32-2.4s-3.28,0-4.92,0a1.24,1.24,0,0,0-1.45,1.45q0.05,4.62,0,9.24a1.25,1.25,0,0,0,1.51,1.48c1.92,0,3.84-.08,5.76,0,1.22,0.06,2-.72,3.06-1.23-0.67,2-.48,4.06-0.64,6.09a1,1,0,0,1-.63-0.93c-0.52-1.74-1.19-2.35-2.95-2.42-1.56-.06-3.12,0-4.68,0a1.09,1.09,0,0,0-1.26,1.23c0,3.6,0,7.2,0,10.8a1.7,1.7,0,0,0,1.26,1.83,12.9,12.9,0,0,0,7.31,0,3.67,3.67,0,0,0,2.63-2.85,0.53,0.53,0,0,1,.55-0.53,7.47,7.47,0,0,1-.58,4.68,1.65,1.65,0,0,1-1.62.6c-5.16,0-10.32,0-15.48,0a0.89,0.89,0,0,1-.76-0.27,0.7,0.7,0,0,1,.6-0.33,2,2,0,0,0,1.75-2.31c0-7.6.07-15.19,0.12-22.79,0-.24,0-0.48,0-0.72,0-3.07,0-3.07-2.85-4.17C573.59,267.83,573.34,267.83,573.35,267.51Z" transform="translate(-254.14 -251.13)"/><path class="cls-1" d="M571.84,272.41a0.92,0.92,0,0,1-.94-0.78,4.54,4.54,0,0,0-4-2.57c-2.23-.09-4.47,0-6.69,0a2.93,2.93,0,0,0-.15,1.47q0,11.22,0,22.43c0,3.65.45,4.25,3.9,5.36H553.09a0.33,0.33,0,0,1,0-.12c2.64-.58,3.15-2.4,3.12-4.83-0.1-7.64,0-15.28,0-22.91V269c-2.55.1-5-.17-7.48,0.17a6.61,6.61,0,0,0-4.88,3,15.51,15.51,0,0,1,.86-5,0.58,0.58,0,0,1,.69-0.33c6.17,0.66,12.36.37,18.54,0.4a35.62,35.62,0,0,0,7.17-.19,0.58,0.58,0,0,1,.74.68C571.85,269.33,571.84,270.87,571.84,272.41Z" transform="translate(-254.14 -251.13)"/><path class="cls-2" d="M443.18,298c-4.45,1-8.93.22-13.4,0.25a41.17,41.17,0,0,0-5.5.16,0.71,0.71,0,0,1-.75-0.15,0.82,0.82,0,0,1,.66-0.47,3.63,3.63,0,0,0,2.2-3,28.88,28.88,0,0,0,.18-3.23q0-9.71,0-19.43a10.65,10.65,0,0,0-.1-1.55c-0.26-1.76-.75-2.23-2.5-2.52a1.59,1.59,0,0,1-1.09-.67c3.79-.11,7.41.42,11.27-0.09a1.74,1.74,0,0,1-1.34.85,2.94,2.94,0,0,0-2.36,2.93c0,7.47,0,14.95,0,22.42,0,2.2,1.14,3.27,3.37,3.4,1.71,0.09,3.44.08,5.15,0a4.5,4.5,0,0,0,4-2.69,1.9,1.9,0,0,1,1-1.3c0.26,1.7.6,3.32-.69,4.74-0.1.11-.23,0.22,0,0.36h0Z" transform="translate(-254.14 -251.13)"/><path class="cls-2" d="M419,298.42a68.81,68.81,0,0,0-11.08.07,1.31,1.31,0,0,1,.16-0.4c2.75-1,3-1.31,3-4.24q0-11.09,0-22.17c0-2.8-.11-2.94-2.78-3.75a0.85,0.85,0,0,1-.51-0.41c3.35-.33,6.7.41,10.22-0.33a1.52,1.52,0,0,1-1.24,1.06,2,2,0,0,0-1.64,2.2q0,12.17,0,24.33a2.84,2.84,0,0,0,2.27,2.86c0.53,0.16,1.07.28,1.61,0.42v0.35Z" transform="translate(-254.14 -251.13)"/><path class="cls-3" d="M295.22,270.57a9.2,9.2,0,0,0,1.64-2.18,0.89,0.89,0,0,1,1.17-.53c0.5,0.24.25,0.7,0.17,1.06a6.28,6.28,0,0,1-.88,2.21,6.37,6.37,0,0,0-1.1,3.12,3.7,3.7,0,0,1-2.49,3.23,3.79,3.79,0,0,1-4.17-.6,55.05,55.05,0,0,1-4.08-4.37,0.85,0.85,0,0,1-.22-1.26,1,1,0,0,1,1.42,0c0.67,0.49,1.26,1.08,1.94,1.68a2.26,2.26,0,0,0,.59-2.71c-0.37-1.18-.83-2.33-1.21-3.51-0.19-.58-0.3-1.28.41-1.56s1,0.42,1.19.89a20.93,20.93,0,0,0,1.67,3.12c0-.64,0-1.28,0-1.92a11.31,11.31,0,0,1,0-1.67c0.09-.55,0-1.33.88-1.33s0.72,0.79.76,1.34c0.1,1.3.18,2.6,0.28,4.13,0.77-.87.75-1.83,1.14-2.6s0.15-2,1.36-1.68,0.39,1.43.28,2.17A31,31,0,0,1,295.22,270.57Z" transform="translate(-254.14 -251.13)"/><path class="cls-4" d="M299.88,286.39a12,12,0,0,1-2.53,6,12.57,12.57,0,0,0-2.18,3.28,2.34,2.34,0,0,1-2.5,1.45,2.51,2.51,0,0,1-2.35-1.57,3.67,3.67,0,0,1-.28-1.27c-0.09-1.36.51-2.73-.17-4.1a1.76,1.76,0,0,1,.34-1.23,3.66,3.66,0,0,0,.22-3.22,1.74,1.74,0,0,1,1-2.54,2.24,2.24,0,0,0,.87-0.62,4.25,4.25,0,0,1,5.19-1.26C299,281.85,299.87,283.69,299.88,286.39Zm-3.61,5.16a0.38,0.38,0,0,0,.27-0.45A6.43,6.43,0,0,0,298,285a2.11,2.11,0,0,0-1.93-1.85c-1.09-.09-2.38-0.34-3,0.82a2.92,2.92,0,0,0,.2,3.17,6.31,6.31,0,0,0,2.53,2c-1.4,1.11-2.25,0-3.27-.56a5.19,5.19,0,0,1-.59,3.1,0.5,0.5,0,0,0,.18.73c0.38,0.24.58-.05,0.74-0.35a1.23,1.23,0,0,1,.82-0.79c2.12-.48,3-2.37,2.59-4.82a1.4,1.4,0,0,1,.1-1.5c1.2,0.24,1.35,1.19,1.4,2.14,0.08,1.45-.67,2.67-1.2,4a0.36,0.36,0,0,0-.22.5c-0.12,0-.22,0-0.14.14Z" transform="translate(-254.14 -251.13)"/><path class="cls-5" d="M278.16,284.45c-1.74-.31-2.44.8-1.83,3.08-0.88-.2-0.82.89-1.49,1.07a1,1,0,0,1-.27-1.16,6.14,6.14,0,0,0,1-3.15c0.22-1.17,1.16-1.17,2-1.35s1.59,0.13,2.37-.22a10.81,10.81,0,0,1-.19-1.43,1.16,1.16,0,0,1,1.26-1.17,1,1,0,0,1,1.17,1.06,3.48,3.48,0,0,1-.2,1.6c-0.46,1.05.48,1.69,1,2.56,0.58-1-.11-2.62,1.78-2.55a13.78,13.78,0,0,1-1.53,4c-0.19.43-.61,0.23-0.88-0.09s-0.48-.62-0.79-1c-1.07,1-1.12,2.26-1.63,3.48a6.8,6.8,0,0,1,2.86,1.36c0.77,0.53,1,1.09.25,1.84-0.58.55-1.11,1.15-1.67,1.72-1.06,1.07-1.06,1.45,0,2.6a2.65,2.65,0,0,1,.24.4,4.21,4.21,0,0,1-2.77-1.17,0.75,0.75,0,0,1,.38-0.92,9.21,9.21,0,0,0,1.95-3.1c-1.58-.57-3-0.72-4.19.76a10.68,10.68,0,0,1-3.13,2.17c-1.79,1-2.7,2.8-3.83,4.51-0.59-.73-0.26-1.4-0.17-2.06s0-1.34,1-1.44a1.87,1.87,0,0,0,.81-0.84,3.7,3.7,0,0,1,1.45-1.4,5.18,5.18,0,0,0,2.87-2.74C276.88,288.8,279,287.17,278.16,284.45Z" transform="translate(-254.14 -251.13)"/><path class="cls-2" d="M274.3,274.2a0.93,0.93,0,0,0-.19-0.13c-4.1-.63-4.53-1.83-4.5-5.91,0-1.46,0-1.46-1.14-1.95a1.85,1.85,0,0,1,2.87,1.34,16.86,16.86,0,0,1,.22,3.34c0.11,1.8.74,2.42,2.79,2.53,0-2.06,0-4.11,0-6.16,0-.89-1.06-0.64-1.86-1.2h5.48a0.85,0.85,0,0,1-.07.25c-1.4.14-1.65,1-1.57,2.24,0.1,1.59,0,3.19,0,4.78,1.77,0.19,2.64-.5,2.78-2.16,0.09-1.11.06-2.24,0.23-3.34,0.25-1.67,1.18-2.17,3.28-1.64-1.8.14-1.47,1.25-1.48,2.18,0,0.08,0,.16,0,0.24,0,3.9-.82,4.86-4.64,5.47-0.53,2.31-.26,3,1.4,3.41a11.88,11.88,0,0,1-5.08.07C274.48,276.92,274.59,276.67,274.3,274.2Z" transform="translate(-254.14 -251.13)"/><path class="cls-6" d="M491.56,332.52c-0.77.17-1.38,0.2-1.39-.79-2.43,1.84-4.33,1.14-5-1.79a10.31,10.31,0,0,1,.29-6c0.82-2.14,2.55-2.66,4.46-1.27v-4.94a2.35,2.35,0,0,1,1.62-.17v15ZM490,327.37a10.45,10.45,0,0,0-.17-2.73,1.6,1.6,0,0,0-1.32-1.37,1.49,1.49,0,0,0-1.5,1.3,8.83,8.83,0,0,0,.06,5.74,1.4,1.4,0,0,0,1.26,1.11,1.47,1.47,0,0,0,1.4-1.1A8.33,8.33,0,0,0,490,327.37Z" transform="translate(-254.14 -251.13)"/><path class="cls-6" d="M558.52,332.52c-0.77.17-1.38,0.2-1.39-.79-2.43,1.84-4.33,1.14-5-1.79a10.31,10.31,0,0,1,.29-6c0.82-2.14,2.55-2.66,4.46-1.27v-4.94a2.35,2.35,0,0,1,1.62-.17v15ZM557,327.33a9.34,9.34,0,0,0-.21-2.82,1.55,1.55,0,0,0-1.28-1.25,1.45,1.45,0,0,0-1.45,1.2,8.8,8.8,0,0,0,0,5.85,1.39,1.39,0,0,0,1.26,1.1,1.48,1.48,0,0,0,1.39-1.11A8.52,8.52,0,0,0,557,327.33Z" transform="translate(-254.14 -251.13)"/><path class="cls-6" d="M522.35,332v4.65a1.92,1.92,0,0,1-1.62.12V322.13c0.71-.13,1.41-0.35,1.47.81,2.27-1.86,4.25-1.19,4.89,1.59a10.44,10.44,0,0,1-.24,6.14C526,332.82,524.32,333.36,522.35,332Zm3.36-4.8a6.44,6.44,0,0,0-.44-2.84,1.46,1.46,0,0,0-1.37-1.14,1.37,1.37,0,0,0-1.32,1.19,13.73,13.73,0,0,0,0,5.8,1.33,1.33,0,0,0,1.33,1.17,1.48,1.48,0,0,0,1.37-1.14A7.1,7.1,0,0,0,525.71,327.24Z" transform="translate(-254.14 -251.13)"/><path class="cls-6" d="M419.58,332v4.78a2.37,2.37,0,0,1-1.55.12V322.12c0.69-.11,1.39-0.34,1.45.81,2.3-1.88,4.31-1.16,4.92,1.69A10,10,0,0,1,424,331C423.12,332.93,421.49,333.34,419.58,332Zm3.41-4.61a6.7,6.7,0,0,0-.46-3,1.44,1.44,0,0,0-1.39-1.11,1.34,1.34,0,0,0-1.26,1.11,12.85,12.85,0,0,0,0,6,1.28,1.28,0,0,0,1.2,1,1.38,1.38,0,0,0,1.38-1A6.6,6.6,0,0,0,423,327.34Z" transform="translate(-254.14 -251.13)"/><path class="cls-6" d="M518.45,332.46c-1.14.42-1.73,0-1.83-1.16a9.37,9.37,0,0,0-.24-1.17c-0.5-2.29-.16-1.83-2.31-2-1-.06-1.56.25-1.64,1.32,0,0.59-.32,1.16-0.36,1.75-0.08,1.21-.64,1.62-1.9,1.2,0.4-1.84.8-3.69,1.22-5.53,0.62-2.72,1.27-5.43,1.86-8.15a0.87,0.87,0,0,1,1-.83c0.57,0,1,0,1.22.76,1,4.48,2,8.94,3,13.42A1.16,1.16,0,0,1,518.45,332.46Zm-2.74-5.68-1.36-6.94L513,326.78h2.73Z" transform="translate(-254.14 -251.13)"/><path class="cls-6" d="M570.59,315.92l0.61-10.54c0.94-.35,1.46-0.18,1.69.89,0.51,2.32,1.13,4.61,1.79,7.26l1.21-5c0.18-.74.39-1.47,0.52-2.21,0.16-.94.6-1.34,1.71-0.91l0.61,10.43a1.26,1.26,0,0,1-1.05.17c-0.5-2.48-.16-5-0.72-7.49-0.56,2.18-1.11,4.36-1.69,6.54-0.1.37,0,1-.67,0.94s-0.54-.6-0.64-1q-0.89-3.46-1.76-6.92l-0.39,0c0,2.35,0,4.7,0,7.06C571.8,316,571.43,316.18,570.59,315.92Z" transform="translate(-254.14 -251.13)"/><path class="cls-6" d="M543.31,322.12c0.75-.14,1.4-0.25,1.41.83a4.92,4.92,0,0,0,.44-0.3,2.58,2.58,0,0,1,4.5,1.9c0.09,1.59,0,3.19.05,4.79,0,1,0,2.06,0,3.08a4.21,4.21,0,0,1-1.68.2c0-1.17,0-2.26,0-3.36,0-1.28.06-2.56,0-3.83-0.06-.92,0-2-1.35-2.19-0.93-.11-1.68.8-1.73,2.19-0.07,1.92,0,3.83,0,5.75,0,0.43,0,.86,0,1.36h-1.61V322.12Z" transform="translate(-254.14 -251.13)"/><path class="cls-6" d="M358.68,332.49a2.81,2.81,0,0,1-1.63,0V322.16c0.7-.21,1.37-0.37,1.46.77a11.21,11.21,0,0,1,1.14-.8,2.37,2.37,0,0,1,3.55,1.43,5.59,5.59,0,0,1,.26,1.64c0,2.43,0,4.85,0,7.25a2.85,2.85,0,0,1-1.68,0c0-2.12,0-4.26,0-6.41a5.46,5.46,0,0,0-.23-1.89,1.22,1.22,0,0,0-1.08-1,1.34,1.34,0,0,0-1.31.68,3.78,3.78,0,0,0-.5,2.06C358.69,328.11,358.68,330.26,358.68,332.49Z" transform="translate(-254.14 -251.13)"/><path class="cls-6" d="M440,331.65c-0.94,1-1.86,1.47-3,1a2.67,2.67,0,0,1-1.61-2.71c-0.09-2.58,0-5.17,0-7.77a2.26,2.26,0,0,1,1.64,0c0,2.14,0,4.28,0,6.43a6.4,6.4,0,0,0,.24,1.89,1.11,1.11,0,0,0,1,.92,1.29,1.29,0,0,0,1.3-.67,3.09,3.09,0,0,0,.37-1.73c0-2.27,0-4.54,0-6.8a2.23,2.23,0,0,1,1.63-.06V332.5C440.8,332.59,440.09,332.95,440,331.65Z" transform="translate(-254.14 -251.13)"/><path class="cls-6" d="M476.45,329.35l1.52-7.19a2.53,2.53,0,0,1,1.67,0c-1.17,3.86-1.71,7.88-3.3,11.61a5.83,5.83,0,0,1-2.73,3.2,1.65,1.65,0,0,1-.69-1.25c0.28-.24.56-0.46,0.8-0.72a4.18,4.18,0,0,0,1.29-4.53c-0.88-2.73-1.55-5.53-2.32-8.32a2.93,2.93,0,0,1,1.77,0l1.66,7.19h0.31Z" transform="translate(-254.14 -251.13)"/><path class="cls-6" d="M576.77,325.85c0.15-2.5-.7-3.09-3.28-2.37-0.62-.68-0.47-1.11.4-1.43,2.58-.94,4.55.33,4.61,3.06,0.06,2.43,0,4.86,0,7.36-0.73.23-1.39,0.39-1.55-.68-1.71,1.35-3.06,1.37-4,.11a3.82,3.82,0,0,1,.82-5.14A5.52,5.52,0,0,1,576.77,325.85Zm0,1.29c-2.12.1-3.19,1.3-2.81,3a1.3,1.3,0,0,0,1.18,1.28,1.37,1.37,0,0,0,1.49-1.09A9.1,9.1,0,0,0,576.81,327.14Z" transform="translate(-254.14 -251.13)"/><path class="cls-6" d="M467.64,327.23a7.44,7.44,0,0,1-.8,3.87,3,3,0,0,1-2.79,1.73,2.74,2.74,0,0,1-2.62-1.78,8.7,8.7,0,0,1,.08-7.51,3,3,0,0,1,5.45.15A7.38,7.38,0,0,1,467.64,327.23Zm-5.27.14a7.13,7.13,0,0,0,.54,3.22,1.43,1.43,0,0,0,1.28.94,1.21,1.21,0,0,0,1.18-.87,9,9,0,0,0,0-6.66,1.29,1.29,0,0,0-1.17-.9,1.35,1.35,0,0,0-1.27.93A7.15,7.15,0,0,0,462.37,327.37Z" transform="translate(-254.14 -251.13)"/><path class="cls-6" d="M410.26,323.48c-0.62-.79-0.32-1.16.45-1.44,2.58-.93,4.53.34,4.59,3.09,0.06,2.36,0,4.71,0,7.07a1.51,1.51,0,0,1-.09.31c-0.6.06-1.32,0.45-1.43-.67a0.58,0.58,0,0,0-.24,0c-1.44,1.23-2.8,1.27-3.75.1a3.81,3.81,0,0,1,.77-5.24,6.07,6.07,0,0,1,2.91-.92C413.87,323.46,412.92,322.76,410.26,323.48Zm3.35,3.72c-2-.12-3.29,1.29-2.78,3.11a1.25,1.25,0,0,0,1.17,1.15,1.35,1.35,0,0,0,1.44-1A8.37,8.37,0,0,0,413.61,327.2Z" transform="translate(-254.14 -251.13)"/><path class="cls-6" d="M383.88,327.27a7.36,7.36,0,0,1-.82,3.87,3,3,0,0,1-2.81,1.7,2.76,2.76,0,0,1-2.6-1.81,8.73,8.73,0,0,1,.05-7.41,3,3,0,0,1,5.56.22A7.54,7.54,0,0,1,383.88,327.27Zm-1.68.16a7.52,7.52,0,0,0-.51-3.29,1.41,1.41,0,0,0-1.33-1,1.35,1.35,0,0,0-1.22,1,9.15,9.15,0,0,0,0,6.44,1.36,1.36,0,0,0,1.37,1,1.38,1.38,0,0,0,1.19-1A7.17,7.17,0,0,0,382.19,327.43Z" transform="translate(-254.14 -251.13)"/><path class="cls-6" d="M347.38,318.16l-0.31,1.13c-2.83-.4-4.19.57-4.77,4.39a12.76,12.76,0,0,0,.09,4c0.47,2.83,1.79,3.81,4.64,3.47a1.69,1.69,0,0,1,.34,1.18,4.42,4.42,0,0,1-6.31-2.84,12.64,12.64,0,0,1,.11-8.46,4.76,4.76,0,0,1,5-3.36A2,2,0,0,1,347.38,318.16Z" transform="translate(-254.14 -251.13)"/><path class="cls-6" d="M354.7,327.55h-4.44c-0.78,2.79.79,4.31,3.8,3.71,0.51,0.73.38,1.16-.55,1.41a3.62,3.62,0,0,1-4.82-2.65,9.49,9.49,0,0,1,.12-5.53,4.89,4.89,0,0,1,.91-1.67,2.59,2.59,0,0,1,4.39.41A6.62,6.62,0,0,1,354.7,327.55Zm-1.56-1.27a6.79,6.79,0,0,0,0-1.29c-0.17-.82-0.37-1.78-1.37-1.85s-1.24.84-1.46,1.61a1.84,1.84,0,0,0-.09,1.53h2.94Z" transform="translate(-254.14 -251.13)"/><path class="cls-6" d="M401.8,327.58h-4.59c-0.42,3.06.9,4.29,3.89,3.67,0.49,0.72.42,1.15-.53,1.42a3.63,3.63,0,0,1-4.83-2.64,9.3,9.3,0,0,1,.16-5.65,3.7,3.7,0,0,1,1.8-2.29A2.44,2.44,0,0,1,401,323,6.84,6.84,0,0,1,401.8,327.58Zm-1.67-1.3a3.21,3.21,0,0,0-.34-2.41c-0.57-1-1.5-1-2-.1a3.52,3.52,0,0,0-.56,2.51h2.94Z" transform="translate(-254.14 -251.13)"/><path class="cls-6" d="M433,327.56h-4.51c-0.72,2.82.8,4.28,3.83,3.7,0.49,0.75.35,1.16-.58,1.41a3.63,3.63,0,0,1-4.81-2.67,9.31,9.31,0,0,1,.17-5.65A3.63,3.63,0,0,1,429,322a2.42,2.42,0,0,1,3.14.9A6.7,6.7,0,0,1,433,327.56Zm-1.66-1.29a3.29,3.29,0,0,0-.42-2.53,1,1,0,0,0-1.92-.05,3.49,3.49,0,0,0-.61,2.58h2.95Z" transform="translate(-254.14 -251.13)"/><path class="cls-6" d="M499.52,331.26c0.49,0.82.26,1.19-.57,1.42a3.63,3.63,0,0,1-4.82-2.66,9.34,9.34,0,0,1,.16-5.65,3.84,3.84,0,0,1,1.5-2.1,2.49,2.49,0,0,1,3.76,1,6.77,6.77,0,0,1,.65,4.27h-4.48C494.93,330.36,496.48,331.85,499.52,331.26Zm-1-5a3.19,3.19,0,0,0-.3-2.33,1.21,1.21,0,0,0-1.08-.81,1.19,1.19,0,0,0-1.1.79,4,4,0,0,0-.48,2.35h3Z" transform="translate(-254.14 -251.13)"/><path class="cls-6" d="M540.92,327.57h-4.44c-0.68,2.85.8,4.26,3.84,3.7,0.5,0.76.33,1.16-.59,1.41a3.61,3.61,0,0,1-4.76-2.57,9.24,9.24,0,0,1,.14-5.76,3.7,3.7,0,0,1,1.71-2.21,2.48,2.48,0,0,1,3.43.91A6.43,6.43,0,0,1,540.92,327.57Zm-1.58-1.3a3.31,3.31,0,0,0-.43-2.53,1,1,0,0,0-1.92,0,3.47,3.47,0,0,0-.61,2.57h3Z" transform="translate(-254.14 -251.13)"/><path class="cls-6" d="M591.65,327.55h-4.56c-0.56,3,.77,4.21,3.87,3.74,0.44,0.69.37,1.11-.52,1.37a3.62,3.62,0,0,1-4.86-2.58,9.25,9.25,0,0,1,.16-5.76,3.62,3.62,0,0,1,1.84-2.25,2.43,2.43,0,0,1,3.24.92A6.92,6.92,0,0,1,591.65,327.55ZM587,326.32a14.27,14.27,0,0,0,3-.1,3.21,3.21,0,0,0-.36-2.34,1.11,1.11,0,0,0-2.11,0A4,4,0,0,0,587,326.32Z" transform="translate(-254.14 -251.13)"/><path class="cls-6" d="M392.78,332.57h-1.66v-13.1H388.7a2,2,0,0,1-.23-1.43h6.76a1.5,1.5,0,0,1,.1,1.24c-0.78.38-1.66,0-2.55,0.31v13Z" transform="translate(-254.14 -251.13)"/><path class="cls-6" d="M569,310.64a8.45,8.45,0,0,1-.72,4.08,2.55,2.55,0,0,1-2.36,1.56,2.37,2.37,0,0,1-2.27-1.67,10.41,10.41,0,0,1,.05-7.93,2.51,2.51,0,0,1,2.39-1.69,2.47,2.47,0,0,1,2.31,1.77A9,9,0,0,1,569,310.64Zm-1.26-.06a9,9,0,0,0-.49-3.34,1.35,1.35,0,0,0-1.27-1.09,1.26,1.26,0,0,0-1.21,1,10.82,10.82,0,0,0,0,6.94,1.27,1.27,0,0,0,1.31,1,1.34,1.34,0,0,0,1.18-1A9.64,9.64,0,0,0,567.71,310.58Z" transform="translate(-254.14 -251.13)"/><path class="cls-6" d="M569,323.46h-3.46a2,2,0,0,1-.13-1.35h5.36a2.17,2.17,0,0,1-.32,2c-1.19,2.3-2.37,4.6-3.62,7h3.76a1.7,1.7,0,0,1,.23,1.41H565a1.64,1.64,0,0,1,.23-1.54C566.44,328.54,567.66,326.09,569,323.46Z" transform="translate(-254.14 -251.13)"/><path class="cls-6" d="M444.36,323.35c-0.79-.07-1.57-0.11-1.1-1.22l1.07-.18c-0.1-1.17.08-2.18,1.66-2.18v2c0.67,0.46,1.35.09,2,.33a1.06,1.06,0,0,1,.11,1c-0.62.32-1.3,0-2,.29,0,2.31,0,4.61,0,6.92a1,1,0,0,0,1,1.09,0.64,0.64,0,0,1,.75.8c0,0.56-.45.57-0.86,0.61a2.2,2.2,0,0,1-2.62-2.38c-0.07-1.56,0-3.12,0-4.68C444.36,325,444.36,324.26,444.36,323.35Z" transform="translate(-254.14 -251.13)"/><path class="cls-6" d="M366.36,323.39l-1.09-.2c-0.41-1,.13-1.22,1.05-1.18-0.08-1.21.06-2.3,1.72-2.24v2.09c0.67,0.38,1.35,0,1.95.3a1,1,0,0,1-.05,1.06l-1.86.12c0,2.38,0,4.72,0,7.06a1,1,0,0,0,1.1,1,0.6,0.6,0,0,1,.68.75c0,0.55-.39.61-0.81,0.66-1.62.18-2.61-.68-2.68-2.45s0-3.76,0-5.64C366.36,324.31,366.36,323.88,366.36,323.39Z" transform="translate(-254.14 -251.13)"/><path class="cls-6" d="M542,313h-2c-1.14.79,0.11,3-2.22,3.12l2-8.74c0.11-.51.27-1,0.35-1.51a0.68,0.68,0,0,1,.84-0.61,0.72,0.72,0,0,1,.85.63q1.08,5,2.19,10c-1,.44-1.34,0-1.46-0.89A18.68,18.68,0,0,0,542,313Zm-2.1-1.14a3.52,3.52,0,0,0,1.95,0,18.14,18.14,0,0,0-1.13-4.3Z" transform="translate(-254.14 -251.13)"/><path class="cls-6" d="M585.94,315.89c-1,.43-1.34,0-1.46-0.93a17.89,17.89,0,0,0-.49-2h-2.27L581,315.92a2,2,0,0,1-1.22.06l1.94-8.66c0.11-.51.27-1,0.35-1.51a0.68,0.68,0,0,1,.86-0.58,0.67,0.67,0,0,1,.8.53Q584.83,310.82,585.94,315.89Zm-3-8.69-0.19,0-0.9,4.74a4.21,4.21,0,0,0,1.93-.12Z" transform="translate(-254.14 -251.13)"/><path class="cls-6" d="M581.16,322.14a2.87,2.87,0,0,1,1.68,0c0,2.84,0,5.7,0,8.56a15.83,15.83,0,0,1-.16,3.46,3.25,3.25,0,0,1-3.06,2.91c-0.39-.68-0.57-1.2.41-1.66s1.11-1.69,1.12-2.72c0-3.07,0-6.15,0-9.22C581.16,323.08,581.16,322.65,581.16,322.14Z" transform="translate(-254.14 -251.13)"/><path class="cls-6" d="M504.28,332.48a2.69,2.69,0,0,1-1.52,0V317.59a3.93,3.93,0,0,1,1.52-.08v15Z" transform="translate(-254.14 -251.13)"/><path class="cls-6" d="M459.25,331.43c0.49,0.84.14,1.22-.72,1.37a3.46,3.46,0,0,1-3.91-2.06,7.87,7.87,0,0,1,.09-6.72,3.62,3.62,0,0,1,3.65-2.21c1.18,0.09,1.32.34,0.83,1.51-2.15-.25-2.86.29-3.37,2.49a7,7,0,0,0-.08,2.85C456.13,330.89,456.76,331.37,459.25,331.43Z" transform="translate(-254.14 -251.13)"/><path class="cls-6" d="M558.48,314.73a8,8,0,0,0,2.62.15c0.78,0,1,.3.76,1.09h-5.1c1-3.31,2.57-6.28,3.68-9.46-1.09-.38-2.21.19-3.18-0.36a1.84,1.84,0,0,1-.06-0.85H562c-0.14,1.78-1.07,3.21-1.65,4.74S559.13,313.13,558.48,314.73Z" transform="translate(-254.14 -251.13)"/><path class="cls-4" d="M302.47,292.89c2.63-3.49,2.62-5.91,0-10.09a2.56,2.56,0,0,1,1-1c3.43,2.67,3.47,9.28,0,12.17A2,2,0,0,1,302.47,292.89Z" transform="translate(-254.14 -251.13)"/><path class="cls-6" d="M533.61,321.87v1.4c-1.91.73-2.36,1.38-2.36,3.48,0,1.91,0,3.81,0,5.68a3.44,3.44,0,0,1-1.61.15V322.16a2.45,2.45,0,0,1,1.15-.09c0.38,0.34.12,0.79,0.32,1.24C531.77,322.58,532.34,321.68,533.61,321.87Z" transform="translate(-254.14 -251.13)"/><path class="cls-6" d="M405.72,332.46a2.77,2.77,0,0,1-1.62,0V322.17a1.88,1.88,0,0,1,1.2-.07c0.33,0.32.06,0.77,0.29,1.19,0.65-.75,1.24-1.59,2.4-1.43a2.86,2.86,0,0,1,.07,1.43c-1.83.63-2.34,1.36-2.35,3.36S405.72,330.54,405.72,332.46Z" transform="translate(-254.14 -251.13)"/><path class="cls-6" d="M373.8,332.57h-1.6V322.15a2.52,2.52,0,0,1,1.28-.06l0.13,1.22c0.72-.71,1.27-1.63,2.44-1.46a2.62,2.62,0,0,1,.12,1.4c-2,.83-2.37,1.4-2.37,3.59C373.8,328.71,373.8,330.58,373.8,332.57Z" transform="translate(-254.14 -251.13)"/><path class="cls-6" d="M552.7,306.58c-0.29-.06-0.52-0.13-0.75-0.16a1.5,1.5,0,0,0-1.76.69,1.67,1.67,0,0,0,.36,2.08c0.49,0.52,1.13.89,1.65,1.38a3.26,3.26,0,0,1,.75,4,3,3,0,0,1-3.41,1.36c-0.79-.2-0.85-0.31-0.63-1.26a1.14,1.14,0,0,1,.8.12,1.82,1.82,0,0,0,2.13-.67,2,2,0,0,0-.39-2.53,19.33,19.33,0,0,1-2.1-1.95,2.74,2.74,0,0,1-.2-3.15,2.67,2.67,0,0,1,2.88-1.27C552.77,305.37,553.12,305.71,552.7,306.58Z" transform="translate(-254.14 -251.13)"/><path class="cls-6" d="M532.78,306.58c-0.29-.06-0.52-0.13-0.75-0.16a1.5,1.5,0,0,0-1.76.69,1.67,1.67,0,0,0,.36,2.08c0.49,0.52,1.13.89,1.65,1.38a3.26,3.26,0,0,1,.75,4,3,3,0,0,1-3.41,1.36c-0.79-.2-0.85-0.31-0.63-1.26a1.14,1.14,0,0,1,.8.12,1.82,1.82,0,0,0,2.13-.67,2,2,0,0,0-.39-2.53,19.33,19.33,0,0,1-2.1-1.95,2.74,2.74,0,0,1-.2-3.15,2.67,2.67,0,0,1,2.88-1.27C532.85,305.37,533.2,305.71,532.78,306.58Z" transform="translate(-254.14 -251.13)"/><path class="cls-6" d="M586.91,310.86a6.71,6.71,0,0,1,1.08-4.21,3.23,3.23,0,0,1,3.12-1.4c0.39,0,.85,0,0.83.63s-0.41.59-.85,0.53a2.15,2.15,0,0,0-2.45,1.65,7.73,7.73,0,0,0,0,5.17,2.15,2.15,0,0,0,2.44,1.66c0.37,0,.85-0.21.92,0.42s-0.44.66-.87,0.72a3.37,3.37,0,0,1-3.81-2.56A7.35,7.35,0,0,1,586.91,310.86Z" transform="translate(-254.14 -251.13)"/><path class="cls-6" d="M561.57,322.07h1.49v10.4a2.79,2.79,0,0,1-1.49.07V322.07Z" transform="translate(-254.14 -251.13)"/><path class="cls-6" d="M451.74,322.12v10.32a2.65,2.65,0,0,1-1.52.11V322.12h1.52Z" transform="translate(-254.14 -251.13)"/><path class="cls-2" d="M350.19,266.29a1.83,1.83,0,0,1,1.21-1,20.84,20.84,0,0,0,5.61-3.61c0.65-.57,1.36-1.16,1.16-2.21a0.44,0.44,0,0,1,.46-0.57,6.86,6.86,0,0,1,2.55.54,0.45,0.45,0,0,1,.13.79,5.72,5.72,0,0,1-1,.87,68.58,68.58,0,0,1-8.94,4.81A8.35,8.35,0,0,1,350.19,266.29Z" transform="translate(-254.14 -251.13)"/><path class="cls-4" d="M301.38,291.86a3.17,3.17,0,0,1-1.07-1c1.35-1.92,1.57-3.91,0-5.84a3.21,3.21,0,0,1,1-1.06C303.3,285,303.83,289.76,301.38,291.86Z" transform="translate(-254.14 -251.13)"/><path class="cls-6" d="M429.44,320.74c1-2.83,1.33-3.1,3.17-2.93C431.55,318.79,431.27,320.36,429.44,320.74Z" transform="translate(-254.14 -251.13)"/><path class="cls-6" d="M582.16,320.37a1.07,1.07,0,0,1-.06-2.14,0.91,0.91,0,0,1,1,1A1,1,0,0,1,582.16,320.37Z" transform="translate(-254.14 -251.13)"/><path class="cls-6" d="M451.82,319.29a0.9,0.9,0,0,1-.9,1,1.06,1.06,0,0,1-.11-2.1A0.94,0.94,0,0,1,451.82,319.29Z" transform="translate(-254.14 -251.13)"/><path class="cls-6" d="M562.2,320.37a1,1,0,0,1-.94-1.21,0.91,0.91,0,0,1,1-.93A1.08,1.08,0,0,1,562.2,320.37Z" transform="translate(-254.14 -251.13)"/><path class="cls-6" d="M546.29,314.4a0.93,0.93,0,0,1,.79,1,0.74,0.74,0,0,1-.82.82,0.84,0.84,0,0,1-.81-1A0.88,0.88,0,0,1,546.29,314.4Z" transform="translate(-254.14 -251.13)"/><path class="cls-6" d="M536.53,315.43a0.76,0.76,0,0,1-.79.84,0.84,0.84,0,0,1-.84-1,0.81,0.81,0,0,1,.8-0.88A0.87,0.87,0,0,1,536.53,315.43Z" transform="translate(-254.14 -251.13)"/><path class="cls-7" d="M358.83,284.68c-3,.21-5.75.1-8.81,0.09l4.14-11.63,0.31-.07Z" transform="translate(-254.14 -251.13)"/><path class="cls-7" d="M296.51,291.08c0.53-1.28,1.28-2.5,1.2-4-0.05-1-.21-1.9-1.4-2.14a1.4,1.4,0,0,0-.1,1.5c0.38,2.45-.47,4.34-2.59,4.82a1.23,1.23,0,0,0-.82.79c-0.15.3-.36,0.59-0.74,0.35a0.5,0.5,0,0,1-.18-0.73,5.19,5.19,0,0,0,.59-3.1c1,0.59,1.87,1.67,3.27.56a6.31,6.31,0,0,1-2.53-2A2.92,2.92,0,0,1,293,284c0.67-1.16,2-.91,3-0.82A2.11,2.11,0,0,1,298,285a6.43,6.43,0,0,1-1.43,6.08Z" transform="translate(-254.14 -251.13)"/><path class="cls-7" d="M296.55,291.1a0.38,0.38,0,0,1-.27.45l0,0a0.36,0.36,0,0,1,.22-0.5Z" transform="translate(-254.14 -251.13)"/><path class="cls-7" d="M296.28,291.55l-0.12.16c-0.08-.17,0-0.17.14-0.14Z" transform="translate(-254.14 -251.13)"/><path class="cls-7" d="M490,327.37a8.3,8.3,0,0,1-.28,2.95,1.47,1.47,0,0,1-1.4,1.1,1.4,1.4,0,0,1-1.26-1.11,8.83,8.83,0,0,1-.06-5.74,1.49,1.49,0,0,1,1.5-1.3,1.6,1.6,0,0,1,1.32,1.37A10.4,10.4,0,0,1,490,327.37Z" transform="translate(-254.14 -251.13)"/><path class="cls-7" d="M557,327.33a8.52,8.52,0,0,1-.27,3,1.48,1.48,0,0,1-1.39,1.11,1.39,1.39,0,0,1-1.26-1.1,8.8,8.8,0,0,1,0-5.85,1.45,1.45,0,0,1,1.45-1.2,1.55,1.55,0,0,1,1.28,1.25A9.34,9.34,0,0,1,557,327.33Z" transform="translate(-254.14 -251.13)"/><path class="cls-7" d="M525.71,327.24a7.1,7.1,0,0,1-.42,3,1.48,1.48,0,0,1-1.37,1.14,1.33,1.33,0,0,1-1.33-1.17,13.73,13.73,0,0,1,0-5.8,1.37,1.37,0,0,1,1.32-1.19,1.46,1.46,0,0,1,1.37,1.14A6.44,6.44,0,0,1,525.71,327.24Z" transform="translate(-254.14 -251.13)"/><path class="cls-7" d="M423,327.34a6.6,6.6,0,0,1-.5,3.12,1.38,1.38,0,0,1-1.38,1,1.28,1.28,0,0,1-1.2-1,12.85,12.85,0,0,1,0-6,1.34,1.34,0,0,1,1.26-1.11,1.44,1.44,0,0,1,1.39,1.11A6.7,6.7,0,0,1,423,327.34Z" transform="translate(-254.14 -251.13)"/><path class="cls-7" d="M515.7,326.78H513l1.36-6.94Z" transform="translate(-254.14 -251.13)"/><path class="cls-7" d="M576.81,327.14a9.1,9.1,0,0,1-.14,3.24,1.37,1.37,0,0,1-1.49,1.09,1.3,1.3,0,0,1-1.18-1.28C573.62,328.44,574.69,327.24,576.81,327.14Z" transform="translate(-254.14 -251.13)"/><path class="cls-7" d="M462.37,327.37a7.15,7.15,0,0,1,.56-3.33,1.35,1.35,0,0,1,1.27-.93,1.29,1.29,0,0,1,1.17.9,9,9,0,0,1,0,6.66,1.21,1.21,0,0,1-1.18.87,1.43,1.43,0,0,1-1.28-.94A7.13,7.13,0,0,1,462.37,327.37Z" transform="translate(-254.14 -251.13)"/><path class="cls-7" d="M413.61,327.2a8.37,8.37,0,0,1-.17,3.27,1.35,1.35,0,0,1-1.44,1,1.25,1.25,0,0,1-1.17-1.15C410.33,328.49,411.57,327.08,413.61,327.2Z" transform="translate(-254.14 -251.13)"/><path class="cls-7" d="M382.19,327.43a7.18,7.18,0,0,1-.49,3.05,1.38,1.38,0,0,1-1.19,1,1.36,1.36,0,0,1-1.37-1,9.15,9.15,0,0,1,0-6.44,1.35,1.35,0,0,1,1.22-1,1.41,1.41,0,0,1,1.33,1A7.52,7.52,0,0,1,382.19,327.43Z" transform="translate(-254.14 -251.13)"/><path class="cls-7" d="M353.14,326.28H350.2a1.84,1.84,0,0,1,.09-1.53c0.22-.77.48-1.68,1.46-1.61s1.2,1,1.37,1.85A6.79,6.79,0,0,1,353.14,326.28Z" transform="translate(-254.14 -251.13)"/><path class="cls-7" d="M400.12,326.28h-2.94a3.52,3.52,0,0,1,.56-2.51c0.55-.95,1.48-0.87,2,0.1A3.21,3.21,0,0,1,400.12,326.28Z" transform="translate(-254.14 -251.13)"/><path class="cls-7" d="M431.33,326.27h-2.95a3.49,3.49,0,0,1,.61-2.58,1,1,0,0,1,1.92.05A3.29,3.29,0,0,1,431.33,326.27Z" transform="translate(-254.14 -251.13)"/><path class="cls-7" d="M498.52,326.26h-3a4,4,0,0,1,.48-2.35,1.19,1.19,0,0,1,1.1-.79,1.21,1.21,0,0,1,1.08.81A3.19,3.19,0,0,1,498.52,326.26Z" transform="translate(-254.14 -251.13)"/><path class="cls-7" d="M539.34,326.27h-3a3.47,3.47,0,0,1,.61-2.57,1,1,0,0,1,1.92,0A3.31,3.31,0,0,1,539.34,326.27Z" transform="translate(-254.14 -251.13)"/><path class="cls-7" d="M587,326.32a4,4,0,0,1,.52-2.45,1.11,1.11,0,0,1,2.11,0,3.21,3.21,0,0,1,.36,2.34A14.27,14.27,0,0,1,587,326.32Z" transform="translate(-254.14 -251.13)"/><path class="cls-7" d="M567.71,310.58a9.64,9.64,0,0,1-.5,3.5,1.34,1.34,0,0,1-1.18,1,1.27,1.27,0,0,1-1.31-1,10.82,10.82,0,0,1,0-6.94,1.26,1.26,0,0,1,1.21-1,1.35,1.35,0,0,1,1.27,1.09A9,9,0,0,1,567.71,310.58Z" transform="translate(-254.14 -251.13)"/><path class="cls-7" d="M539.89,311.82l0.82-4.29a18.14,18.14,0,0,1,1.13,4.3A3.52,3.52,0,0,1,539.89,311.82Z" transform="translate(-254.14 -251.13)"/><path class="cls-7" d="M583,307.21l0.85,4.58a4.21,4.21,0,0,1-1.93.12l0.9-4.74Z" transform="translate(-254.14 -251.13)"/></svg>