<svg id="Capa_1" data-name="Capa 1" xmlns="http://www.w3.org/2000/svg" viewBox="0 0 268.46 292.11"><defs><style>.cls-1{fill:#fff;}</style></defs><title>isotipo-agilmente_blanco</title><path class="cls-1" d="M315.57,445.84c0.93-7.72,3.95-14.63,5.56-21.87,4.84-21.74,2.8-42-9.37-61.43-14-22.3-23.88-46.41-27.63-72.78C276.52,236.19,302.69,188.3,352,166.28c45.77-20.44,88.47-12.77,128.44,15.16,24.21,16.92,39,40.28,43.88,69.57a63.18,63.18,0,0,1-1.5,27.81c-1.26,4.43-.29,7.84,2.16,11.33q11,15.68,21.91,31.45a32.84,32.84,0,0,1,3.29,5.62c2.17,5.05,1.23,8.33-3.39,11.15-3.71,2.26-7.64,4.19-11.52,6.14-4.35,2.19-5.18,4.26-3.23,8.55,3.63,8,2.83,10.86-4.83,16.23,4.63,5.26,2.39,9.51-2.18,13.46-2.29,2-2.17,4.6-1.26,7.32,1.74,5.22,2.82,10.58,1.7,16.08a23.93,23.93,0,0,1-22.8,18.67c-9.84,0-19.63.36-29.28,2.5-9.48,2.09-13.44,6.41-14.43,16.16-0.24,2.39-1.18,3.29-3.49,3.27-6.24-.06-12.48,0-18.72,0a5.68,5.68,0,0,1-5.14-2.64c-3.28-4.92-6.95-9.62-9.85-14.76-6.92-12.23,2.47-29.6,16.37-30.57,3.94-.27,7.69,1.05,11.45,2a61.52,61.52,0,0,0,17.07,2.33c8.59-.23,13.17-4.42,14.12-12.9,0.54-4.81,2.8-8.74,8.89-8.68,4.21,0,5.81-2.89,5.1-6.67-0.58-3.07.13-4.6,3.21-5.42,3.34-.9,4.19-3.45,3.28-6.63-0.43-1.49-1.13-2.92-1.49-4.42-2-8.42-1.38-9.64,6.46-13.23,5.2-2.39,6.5-6.58,3.48-12-2.13-3.79-4.53-7.43-6.8-11.14-3.51-5.72-3.71-11.56-1.36-17.87,2.65-7.13,5.84-14.1,7.39-21.6,2.83-13.7-.94-26.6-5.08-39.38-18.27-56.4-76.54-77.55-124.15-65.14-19,5-37.2,12.05-50.64,27.25-24.94,28.19-31,60.89-21.84,96.82,5,19.52,14.14,37.18,25.38,53.79,9.85,14.54,13.83,30,8.5,47.35-3.74,12.21-7.59,24.36-12.09,36.3C326.21,447,324.29,448,315.57,445.84Z" transform="translate(-282.83 -154.72)"/><path class="cls-1" d="M443,230.53c3.36-2.84,4.53-5.93,6.38-8.51,1.16-1.62,2.4-3.12,4.57-2.06,1.94,0.95,1,2.71.65,4.15a24.47,24.47,0,0,1-3.45,8.61,24.84,24.84,0,0,0-4.3,12.17c-0.49,6.24-4.16,10.24-9.71,12.6-5.84,2.48-11.75,1.67-16.25-2.34-5.77-5.15-10.71-11.25-15.91-17-1.21-1.35-2.62-3-.86-4.93s3.89-1.37,5.54-.17c2.61,1.89,4.91,4.21,7.56,6.54,3.71-3,3.49-6.77,2.31-10.56-1.44-4.6-3.23-9.08-4.7-13.67-0.73-2.27-1.17-5,1.6-6.08s3.75,1.65,4.64,3.48c2,4,3.64,8.13,6.52,12.17,0-2.49,0-5,0-7.47a44.09,44.09,0,0,1,.12-6.53c0.33-2.15.15-5.19,3.45-5.2,3.61,0,2.8,3.06,3,5.23,0.41,5.06.69,10.13,1.09,16.12,3-3.41,2.93-7.13,4.43-10.13,1.3-2.6.58-7.93,5.29-6.55,4.53,1.32,1.54,5.6,1.09,8.48C445.51,222.46,444.26,226,443,230.53Z" transform="translate(-282.83 -154.72)"/><path class="cls-1" d="M461.23,292.25c-1.22,7.36-3.61,16.14-9.85,23.37a49,49,0,0,0-8.49,12.78c-1.86,4.4-5.33,5.77-9.76,5.66a9.79,9.79,0,0,1-9.16-6.12,14.31,14.31,0,0,1-1.1-5c-0.36-5.3,2-10.65-.67-16-0.56-1.12.51-3.35,1.31-4.79a14.26,14.26,0,0,0,.87-12.56c-1.6-4.32-1-7.94,3.88-9.91a8.73,8.73,0,0,0,3.4-2.42c5.53-6.79,12.6-7.71,20.23-4.91C457.8,274.55,461.18,281.72,461.23,292.25Zm-14.07,20.12a1.49,1.49,0,0,0,1-1.76c6.42-6.83,7.37-15,5.59-23.7-0.82-4-3.33-6.87-7.53-7.22s-9.27-1.32-11.88,3.19c-2.27,3.92-1.86,8.24.77,12.36,2.32,3.63,5.85,5.64,9.89,7.83-5.47,4.31-8.77.1-12.74-2.19-0.13,4.52.21,8.59-2.31,12.07a2,2,0,0,0,.69,2.86c1.48,0.94,2.28-.2,2.88-1.36,0.73-1.4,1.41-2.7,3.19-3.1,8.28-1.86,11.61-9.22,10.12-18.79-0.29-1.87-1.61-3.83.39-5.85,4.66,0.93,5.27,4.63,5.48,8.36,0.32,5.67-2.61,10.43-4.66,15.43a1.4,1.4,0,0,0-.87,1.94c-0.48-.11-0.85-0.12-0.53.55Z" transform="translate(-282.83 -154.72)"/><path class="cls-1" d="M376.5,284.66c-6.79-1.2-9.52,3.12-7.13,12-3.42-.77-3.19,3.49-5.81,4.16-1.39-1.34-1.92-3.51-1.06-4.54,3.07-3.64,3.09-8.08,3.87-12.3,0.85-4.56,4.51-4.55,7.78-5.26,3-.64,6.18.51,9.22-0.87a42.16,42.16,0,0,1-.74-5.56c0-3.15,2.3-4.41,4.92-4.58s4.5,1.13,4.55,4.12c0,2.11.2,4-.76,6.23-1.79,4.11,1.88,6.59,4,10,2.27-3.71-.44-10.2,7-9.93-0.57,5.61-3.7,10.49-5.95,15.62-0.74,1.68-2.4.9-3.42-.34s-1.88-2.42-3.07-4c-4.16,3.73-4.36,8.83-6.35,13.57,4.53,0.71,7.84,3,11.17,5.3,3,2.06,4,4.26,1,7.16-2.24,2.16-4.32,4.48-6.51,6.7-4.12,4.17-4.15,5.67-.19,10.13a10.33,10.33,0,0,1,.94,1.55c-2.44.58-9.94-2.69-10.79-4.57-0.75-1.67.43-2.67,1.47-3.57,3.79-3.27,5.42-7.82,7.59-12.1-6.18-2.21-11.53-2.79-16.34,3-3.15,3.76-7.85,6-12.2,8.45-7,3.92-10.51,10.91-14.95,17.57-2.31-2.84-1-5.44-.68-8s0.05-5.24,3.92-5.62c1.15-.11,2.24-2,3.15-3.26,1.59-2.16,3.24-4.55,5.65-5.47a20.2,20.2,0,0,0,11.21-10.68C371.53,301.62,379.76,295.27,376.5,284.66Z" transform="translate(-282.83 -154.72)"/><path class="cls-1" d="M361.45,244.7a3.61,3.61,0,0,0-.75-0.49c-16-2.47-17.66-7.15-17.56-23.06,0-5.69.15-5.69-4.45-7.6,5.43-2.58,9.66-.59,11.18,5.23,1.12,4.29.6,8.69,0.85,13,0.41,7,2.89,9.43,10.87,9.86,0-8,.17-16-0.08-24-0.11-3.48-4.13-2.51-7.25-4.7h21.38a3.3,3.3,0,0,1-.26,1c-5.47.54-6.45,3.87-6.14,8.75,0.4,6.2.1,12.44,0.1,18.62,6.9,0.73,10.29-2,10.83-8.4,0.36-4.34.24-8.75,0.89-13,1-6.5,4.61-8.48,12.8-6.38-7,.56-5.73,4.86-5.79,8.5,0,0.31,0,.62,0,0.94,0,15.2-3.21,19-18.09,21.31-2.05,9-1,11.54,5.45,13.29-2.84,1.47-15.8,1.63-19.83.26C362.15,255.31,362.59,254.31,361.45,244.7Z" transform="translate(-282.83 -154.72)"/><path class="cls-1" d="M471.31,317.58c10.27-13.62,10.21-23,0-39.34a10,10,0,0,1,3.76-3.89c13.39,10.43,13.52,36.18.19,47.45A7.74,7.74,0,0,1,471.31,317.58Z" transform="translate(-282.83 -154.72)"/><path class="cls-1" d="M467.07,313.56a12.38,12.38,0,0,1-4.18-3.9c5.26-7.51,6.11-15.24-.09-22.79,0.86-1.88,2.39-3,3.76-4.15C474.56,286.94,476.61,305.39,467.07,313.56Z" transform="translate(-282.83 -154.72)"/></svg>