<svg id="Capa_1" data-name="Capa 1" xmlns="http://www.w3.org/2000/svg" viewBox="0 0 115.72 165.11"><title>service-icon-fisioterapia</title><path d="M1397.8,556.65c2.46-2.87,5.11-5.55,7.72-8.27q10.19-10.68,20.41-21.33c0.58-.61,1.11-1.26,1.69-1.86,1.84-1.92,2-3.61.36-5.75a46.91,46.91,0,0,0-7.43-7.72,75.72,75.72,0,0,0-28.16-14.67l-0.39-.13a1.12,1.12,0,0,1-.17-0.1c1.13-3,2.3-6.08,3.4-9.14,2.68-7.46,5.25-14.95,7.22-22.63a76.59,76.59,0,0,0,1.43-9.94,21,21,0,0,0,.09-4.85c-0.38-3.42-2.33-5.91-4.86-8a13,13,0,0,0-5.88-2.87,3.53,3.53,0,0,0-3.2.8,15.3,15.3,0,0,0-1.35,1.25c-2.6,2.91-6,3.95-9.72,3.89a35.53,35.53,0,0,0-16.61,4,1.42,1.42,0,0,0-.69.78,201.77,201.77,0,0,0-10.34,27.9,1,1,0,0,1-.33.57c0.27-2.23.51-4.4,0.79-6.56s0.57-4.38.92-6.56c0.88-5.54,1.88-11.06,3.13-16.54,0.27-1.2.59-2.38,0.88-3.58a1.06,1.06,0,0,1,.71-0.82,92.7,92.7,0,0,0,11-5.43,18,18,0,0,1,9.87-2.42,1.4,1.4,0,0,0,.88-0.4c4.76-2.86,9.7-3.87,15-1.54a18.64,18.64,0,0,1,7.27,5.64l0.63,0.8c1.23-1.42,2.44-2.79,3.61-4.2a0.81,0.81,0,0,1,1.17-.28c2,0.9,4,1.75,6.1,2.55,1.66,0.65,2,.5,3.11-0.94,0.13-.17.27-0.34,0.49-0.62a5.3,5.3,0,0,1-.23,2.8,1.6,1.6,0,0,1-1.74.89,10.75,10.75,0,0,1-3.24-.78c-0.23-.08-0.46-0.18-0.72-0.29a73.61,73.61,0,0,1-4.44,6.28,33.64,33.64,0,0,1,2.67,4.62,23.49,23.49,0,0,1,1.46,15.88c-1.67,6.77-3.39,13.53-5.11,20.29a60.14,60.14,0,0,1-1.95,6,12.88,12.88,0,0,0,2.41.67,51.48,51.48,0,0,1,16.71,7.28,43.82,43.82,0,0,1,14.06,16.36c0.17,0.32.32,0.65,0.5,1a5,5,0,0,1-.65,6.19,33.74,33.74,0,0,1-4.46,4.06q-13.68,11.29-27.39,22.54l-6.55,5.37Z" transform="translate(-1324.04 -408.33)" fill="none" stroke="#fff" stroke-miterlimit="10" stroke-width="2"/><path d="M1325.23,571.94a48.85,48.85,0,0,1,6.9-11.93,95.43,95.43,0,0,1,12.42-13.14,85.13,85.13,0,0,1,7.53-5.45,34.17,34.17,0,0,0,6.78-5.83c1.63-2,2.62-4.15,2.05-6.83,2.43-1.5,4.85-3,7.19-4.61a50.1,50.1,0,0,0,9.86-8.28,15.65,15.65,0,0,0,2.93-4.85c0.06-.18.16-0.34,0.28-0.57,4,1.74,8,3.43,12,5.33a42.6,42.6,0,0,1-6.8,7.5c-4.95,4.31-10.73,7.23-16.6,10a0.93,0.93,0,0,0-.65.47c-0.73,2.11-2.42,3.37-4.15,4.57a22.46,22.46,0,0,1-4.27,2.31,48.93,48.93,0,0,0-12.16,7.65,133.67,133.67,0,0,0-23,23.53,3,3,0,0,1-.23.24Z" transform="translate(-1324.04 -408.33)" fill="none" stroke="#fff" stroke-miterlimit="10" stroke-width="2"/><path d="M1438.51,450c-2.05,3.69-4.3,7.25-6.57,10.81-3.89,6.1-7.83,12.17-12.08,18a10.74,10.74,0,0,1-2.75,2.91c-1.15.75-1.76,0.7-2.74-.25q-1.84-1.78-3.7-3.53a0.8,0.8,0,0,1-.29-0.94,79.26,79.26,0,0,0,3.1-15.49,0.5,0.5,0,0,1,.14-0.07c1.62,2.72,2.87,5.63,4.29,8.56,7-6.62,14.06-13.07,20.47-20.17Z" transform="translate(-1324.04 -408.33)" fill="none" stroke="#fff" stroke-miterlimit="10" stroke-width="2"/><path d="M1395.76,423.54c-0.27-3.7.26-7.19,2.73-10.13a11.36,11.36,0,0,1,8-4,18.22,18.22,0,0,1,9.11,1.38c4,1.8,5.87,5.61,5,10.09-0.25,1.26-.51,2.51-0.82,3.76a3.31,3.31,0,0,0,.18,2.2c0.38,0.87.76,1.74,1.06,2.63a1,1,0,0,1-1,1.54c-0.36,0-.73,0-1.09,0a1.13,1.13,0,0,1-.6-0.16c0.34-.14.69-0.25,1-0.42a1,1,0,0,0,.45-1.77c-0.22-.32-0.48-0.62-0.73-0.92a5.41,5.41,0,0,1-1.19-5,12.64,12.64,0,0,0,.16-5.16,3.76,3.76,0,0,0-1.08-2c-3.11-3.19-6.94-4.12-11.26-3.78-3.41.27-6,1.64-7.68,4.71a16.53,16.53,0,0,0-1.53,4C1396.21,421.49,1396,422.51,1395.76,423.54Z" transform="translate(-1324.04 -408.33)" fill="none" stroke="#fff" stroke-miterlimit="10" stroke-width="2"/></svg>