<svg id="Capa_1" data-name="Capa 1" xmlns="http://www.w3.org/2000/svg" viewBox="0 0 179.08 258.9"><title>service-icon-to2</title><path d="M1044.7,154.35c-6.22-4.43-12.91-2.23-20.39,5.58-6.85,7.15-11.77,16-19.86,22.06-3.57,2.67-7.25,5.54-11.6,2.9-4.51-2.74-4-7.7-3.47-12.25,2.1-17.87,13.87-31.88,19.41-48.39,3.46-10.32,9-19.91,9.79-31.15,0.31-4.7-1.91-7.5-5.37-9.29-3.77-1.94-6.43,1-8.54,3.65a30.21,30.21,0,0,0-3.87,6.37c-7.1,15.47-11.41,32.12-20.08,46.93-2,3.37-3.24,5.75-8,4.53-5-1.26-4.91-5.28-4.43-8,3-17.41,1.29-35.23,4.83-52.58,1.33-6.52,1.36-13.15-2.62-19.18-3.87-5.86-10-5.39-13.13.89-2.49,4.94-3.1,10.37-3.45,15.84-1.12,17.15-2.12,34.3-3.58,51.42-0.32,3.75-1,8.73-6.08,9.27s-6.83-3.15-7.59-7.62c-0.28-1.69-1.82-3.17-2.13-4.87-2.7-14.82-7.06-29.22-10.64-43.82-1-4.08-3.29-7.42-5.22-10.84-1.44-2.55-5.48-2.37-8.1-1-3.49,1.87-3.36,5.44-2.79,9,3.17,20,7.59,39.66,12,59.36,0.61,2.69,2.34,6.17-2.09,7.45-3.86,1.11-7.52,1.64-9.84-3.17-2.22-4.6-5.32-8.78-8.12-13-5.37-8.13-9.12-17.47-17.15-23.83-2.81-2.22-5.14-5.84-8.67-2.89s-1.79,6.89.28,10.46c5.13,8.87,9.61,18.16,15.23,26.7,6.14,9.34,9.22,19.4,11,30.28,1.66,10.17.77,20.65,4.19,30.5h0a78.41,78.41,0,0,0,9.74,33c2.33,4.24,6.64,8,11.85,11a7.88,7.88,0,0,0,11.84-6.79V208.34a8.85,8.85,0,0,0-8.85-8.85H919.09a8.85,8.85,0,0,1-8.85-8.85h0a8.85,8.85,0,0,1,8.85-8.85h58.69a8.85,8.85,0,0,1,8.85,8.85h0a8.85,8.85,0,0,1-8.85,8.85H967.66a8.85,8.85,0,0,0-8.85,8.85v36.91a7.26,7.26,0,0,0,10.53,6.47c13.87-6.86,24.09-18.34,32.72-31.14a221.12,221.12,0,0,1,20.75-27c8.68-9.38,18.58-17.82,24.12-29.82C1048.78,159.77,1048.26,156.89,1044.7,154.35Z" transform="translate(-870.4 -59.9)" fill="none" stroke="#fff" stroke-miterlimit="10" stroke-width="3"/><path d="M948.56,252a32.64,32.64,0,1,0,32.64,32.64A32.64,32.64,0,0,0,948.56,252Zm0,47.19a14.55,14.55,0,1,1,14.55-14.55A14.55,14.55,0,0,1,948.56,299.21Z" transform="translate(-870.4 -59.9)" fill="none" stroke="#fff" stroke-miterlimit="10" stroke-width="3"/></svg>