<svg id="Capa_1" data-name="Capa 1" xmlns="http://www.w3.org/2000/svg" viewBox="0 0 167.1 166.91"><title>service-icon-fonoaudiologia</title><path d="M1196.16,499.36c0.79,12.08-4.54,21.37-12,29.56s-11.67,17.19-12.2,28.58c-0.71,15.18-12.53,26.86-26.88,29.94-2.52.54-5.22,2.19-8.05,0.16-1.47-1.05-2.45-2.26-2.43-3.88s1.57-2.33,2.9-3c4-1.89,8.65-.9,12.73-3.19,8.92-5,13.81-12.25,13.83-22.47,0-10.59,4.57-19.14,11-27.13,5.06-6.3,10.63-12.1,12.36-20.77,3-15.16-3.89-32.61-16.33-41.74-6.95-5.1-14.6-8.52-23-8.74-21.2-.55-40.6,10.28-45.84,34.51-0.54,2.51-1.51,5-1.17,7.78s-1.3,5.32-3.87,5.2c-2.32-.11-4.23-2.33-4.14-5.3a49.1,49.1,0,0,1,5.68-21.59c7.55-14.37,19.3-24,35.05-27.53,24.68-5.6,50.34,8.73,59.32,33.2C1195.17,488.38,1196.93,493.87,1196.16,499.36Z" transform="translate(-1067.66 -422.67)" fill="none" stroke="#fff" stroke-miterlimit="10" stroke-width="2"/><path d="M1171.46,504.36c-5.65-2-4.39-6.66-5.1-10-2.29-10.91-13.34-17.88-23.84-16.7-10.72,1.21-19.93,8.54-20.33,20.17-0.11,3.2-1.28,6.38-4.75,6.17-3.77-.23-3.74-3.49-3.36-6.72,1.55-13.38,9.5-21.85,21.41-26.26,11.12-4.11,21.25-.66,29.91,7.21a29.92,29.92,0,0,1,9.84,20.26C1175.55,501.79,1174.41,503.86,1171.46,504.36Z" transform="translate(-1067.66 -422.67)" fill="none" stroke="#fff" stroke-miterlimit="10" stroke-width="2"/><path d="M1191.7,425.73a5,5,0,0,1,6.84-1.19,82.4,82.4,0,0,1,19.64,18.73,105,105,0,0,1,15.13,28.29c1,2.75.33,4.64-1.8,5.72-2.32,1.18-4.28-.39-5.24-2.46-1.84-4-3.15-8.16-5-12.15-6-12.8-15.09-22.95-26.08-31.55C1191.73,428.41,1190.55,427.41,1191.7,425.73Z" transform="translate(-1067.66 -422.67)" fill="none" stroke="#fff" stroke-miterlimit="10" stroke-width="2"/><path d="M1213.58,481.49a4.53,4.53,0,0,1-7.79-1.26c-0.12-.32-0.24-0.64-0.35-1-4.4-12.67-11.8-23.13-22.82-30.94-2.19-1.55-4.33-3.72-2.11-6.46,2-2.5,4.39-1.61,6.89.23,12.56,9.29,20.8,21.63,26.12,36.11C1214.11,479.82,1214.36,480.47,1213.58,481.49Z" transform="translate(-1067.66 -422.67)" fill="none" stroke="#fff" stroke-miterlimit="10" stroke-width="2"/><path d="M1118.17,557l-0.05,0a3.45,3.45,0,0,1-4.82-.06l-13.46-13.52a3.45,3.45,0,0,1,.14-5l0.18-.16a3.44,3.44,0,0,1,4.75.16l13.34,13.64A3.45,3.45,0,0,1,1118.17,557Z" transform="translate(-1067.66 -422.67)" fill="none" stroke="#fff" stroke-miterlimit="10" stroke-width="2"/><circle cx="79.88" cy="86.97" r="3.7" fill="none" stroke="#fff" stroke-miterlimit="10" stroke-width="2"/><circle cx="57.62" cy="108.94" r="3.7" fill="none" stroke="#fff" stroke-miterlimit="10" stroke-width="2"/><circle cx="25.65" cy="140.94" r="3.7" fill="none" stroke="#fff" stroke-miterlimit="10" stroke-width="2"/><circle cx="4.7" cy="161.7" r="3.7" fill="none" stroke="#fff" stroke-miterlimit="10" stroke-width="2"/></svg>