<svg id="Capa_1" data-name="Capa 1" xmlns="http://www.w3.org/2000/svg" viewBox="0 0 156.24 183.64"><defs><style>.cls-1{fill:#fff;}</style></defs><title>service-icon-to</title><path class="cls-1" d="M1506.54,455.34c2.9-4.47,5.89-8.56,8.31-13,2.27-4.14,5.81-4.58,9.52-3.65,3.35,0.84,4.89,3.7,4.8,7.22-0.83,32.72-15,58.11-42.39,75.87-7.83,5.07-15.48.16-15.4-9.19,0.06-7.25.2-14.5,0-21.75-0.12-4.09,1.36-5.84,5.48-5.38a43.3,43.3,0,0,0,5.29,0c8.65-.11,8.49-0.12,8.27-8.91-0.12-4.56-2.18-6.25-6.53-6.23q-20.58.08-41.15-.1c-3.19,0-5.61.62-5.27,4.42,0.36,4-1.76,9.07,4.4,10.68a9.33,9.33,0,0,0,1.76.1c12.42,0.77,12.44.77,12.63,13.14,0.06,4.11-.1,8.23.07,12.34,0.19,4.65-.33,8.95-4.69,12.48,11.89-2.85,22.61-2,31.58,6.59,4.35,4.18,7.48,9.1,8.3,15.15,2,14.47-5.39,27.2-18.17,31.8-12.94,4.66-27.75-.87-34.83-13s-3.37-26.23,10.64-39c-5.15-1.49-10.4-1.56-15.19-3.67-10.7-4.7-17.57-13.52-24.47-22.28-7.17-9.09-15.95-15.32-27.61-17a21.31,21.31,0,0,1-3.91-1.13c-5.74-2-6.69-7.09-2.13-11.22,8.29-7.5,18.2-8.3,28.55-2.32,2.86,1.65,5.59,3.68,8.65,4.79,5.66,2,8.3,0,9.15-5.9,2.57-18,3.54-36.16,6.81-54.06,0.75-4.09,2.08-7.16,6.55-7.72s7,2.32,8.51,5.87c3,7.26,3.31,15.23,5.26,22.78,0.87,3.39.15,7.45,4.23,10.76,2.35-5.18,2-10.21,2.58-15,1.11-9.12,1.81-18.28,3.49-27.34,0.94-5.07,4-6.71,8.77-6.59,5,0.13,7.46,2.88,7.91,7.61,1.08,11.29,2.52,22.56,2.44,33.94,0,2.29-.44,4.8,2.38,6.14,3.1-1,2.42-4.17,3.31-6.29,2.79-6.65,5.33-13.41,7.67-20.23,1.56-4.54,3.8-7.92,9.17-7s6.6,5.36,6.63,9.67c0,5.24-1,10.49-1.52,15.73q-0.92,9-1.76,18.08C1504.48,453.57,1504.69,454.54,1506.54,455.34Zm-31.08,95.8c0.3-7.56-4.2-12.8-11.14-13a12.74,12.74,0,0,0-13.11,12.15c-0.16,7.21,5,12,13.34,12.32C1471.31,562.92,1475.16,558.87,1475.46,551.14Z" transform="translate(-1372.93 -394.98)"/></svg>