<svg id="Capa_1" data-name="Capa 1" xmlns="http://www.w3.org/2000/svg" viewBox="0 0 160.27 156.99"><title>service-icon-psicologia</title><path d="M1296.1,135.23a3.09,3.09,0,0,1-1.34,5.17c-10.26,2.79-10.82,8.08-12.91,20.35-2.42,14.23-.57,28.65-1.87,43-1.21,13.36-9.11,22.51-21.83,23.53a3,3,0,0,1-3.28-3.18c0-.7.14-1.4,0.13-2.07-0.05-19.36,0-38.72-.1-58.08A75.21,75.21,0,0,1,1256,153.3a6.8,6.8,0,0,1,5.52-6c2-.47,4.11-0.84,6.26-1.24a3,3,0,0,0,2.52-3.23v-0.12a3,3,0,0,0-2.59-2.65,38.8,38.8,0,0,0-4.66.08c-11.45-.17-22.92.41-34.34-0.73-5-.5-6.59,1.53-5.24,6.26a2,2,0,0,0,.77.45c11.23,0.79,13.38,3,13.39,14q0,31.1,0,62.2c0,0.5,0,1,.07,1.52a3.08,3.08,0,0,1-3.41,3.26c-12.53-1.53-19.1-9-20.74-22.15-1.21-9.75-.59-19.45-0.83-29.17a128.75,128.75,0,0,0-2.49-21.78c-1.57-8-4.7-11.61-12.31-13.41a3.09,3.09,0,0,1-1.26-5.35c12.38-10.68,26.66-15.84,42.39-17.78C1257.74,115.18,1285.15,124.3,1296.1,135.23Z" transform="translate(-1165.97 -116.11)" fill="none" stroke="#fff" stroke-miterlimit="10" stroke-width="2"/><path d="M1195.41,176.16c0,10.22-.22,20.38,2.77,30.42,3.6,12.1,10.68,20.37,23,23.8,4.24,1.18,8.51,2.31,12.83,3.14,2.58,0.5,3.86,1.35,3.78,4.26-0.21,7.36.08,14.73-.2,22.09-0.36,9.53-8.19,14.56-17.16,11.18-29.86-11.27-47.84-32.88-52.56-64.17-3.21-21.32,2.46-41.24,15.81-58.67,2.09-2.73,4.46-2.09,6.84-2,2.79,0.16,3.39,2.83,3.78,4.87a61.69,61.69,0,0,1,1.16,13.74C1195.29,168.62,1195.4,172.4,1195.41,176.16Z" transform="translate(-1165.97 -116.11)" fill="none" stroke="#fff" stroke-miterlimit="10" stroke-width="2"/><path d="M1325.13,197.13c-1.34,29.28-14.35,51.82-39.4,67.26-6,3.73-12.21,7.43-19.73,7.43-4.7,0-7.93-2.12-9.07-6.66-1.23-4.91-2.41-9.82-1.46-15.06a28.34,28.34,0,0,0-.38-10.71c-0.71-3.46.33-5.43,4.25-5.85,6.45-.7,12.49-3,18.46-5.48A26.67,26.67,0,0,0,1293,212.31a70.76,70.76,0,0,0,5.13-24.86c0.09-10.27,0-20.54.07-30.81a15.24,15.24,0,0,1,.56-5c0.78-2.31,1.14-4.7,4-5.37s4.95,0.68,6.59,2.87a73.83,73.83,0,0,1,13.58,28.78C1324.26,184.16,1325.62,190.51,1325.13,197.13Z" transform="translate(-1165.97 -116.11)" fill="none" stroke="#fff" stroke-miterlimit="10" stroke-width="2"/></svg>